<mxfile host="app.diagrams.net" modified="2023-10-30T07:09:04.514Z" agent="Mozilla/5.0 (Windows NT 10.0; Win64; x64) AppleWebKit/537.36 (KHTML, like Gecko) Chrome/118.0.0.0 Safari/537.36" etag="YqVuxfQIpdQp383KMCND" version="22.0.8" type="google">
  <diagram name="Page-1" id="_DXhKb3tWos0I7Kt6ng5">
    <mxGraphModel dx="1105" dy="596" grid="1" gridSize="10" guides="1" tooltips="1" connect="1" arrows="1" fold="1" page="1" pageScale="1" pageWidth="850" pageHeight="1100" math="0" shadow="0">
      <root>
        <mxCell id="0" />
        <mxCell id="1" parent="0" />
        <mxCell id="D9mL_kNJqEYYvsfLAUP1-133" value="" style="group" vertex="1" connectable="0" parent="1">
          <mxGeometry x="89.99999999999999" y="110" width="675.71" height="476" as="geometry" />
        </mxCell>
        <mxCell id="D9mL_kNJqEYYvsfLAUP1-121" value="" style="rounded=0;whiteSpace=wrap;html=1;dashed=1;dashPattern=8 8;strokeColor=#000000;" vertex="1" parent="D9mL_kNJqEYYvsfLAUP1-133">
          <mxGeometry x="65.71" y="101" width="610" height="375" as="geometry" />
        </mxCell>
        <mxCell id="D9mL_kNJqEYYvsfLAUP1-119" value="" style="rounded=0;whiteSpace=wrap;html=1;dashed=1;dashPattern=8 8;strokeColor=#00FF00;" vertex="1" parent="D9mL_kNJqEYYvsfLAUP1-133">
          <mxGeometry x="75.71000000000002" y="200" width="160" height="266" as="geometry" />
        </mxCell>
        <mxCell id="D9mL_kNJqEYYvsfLAUP1-80" value="" style="rounded=0;whiteSpace=wrap;html=1;dashed=1;dashPattern=8 8;strokeColor=#33FFFF;" vertex="1" parent="D9mL_kNJqEYYvsfLAUP1-133">
          <mxGeometry x="295.71" y="1.5" width="250" height="94.5" as="geometry" />
        </mxCell>
        <mxCell id="D9mL_kNJqEYYvsfLAUP1-1" value="" style="image;aspect=fixed;html=1;points=[];align=center;fontSize=12;image=img/lib/azure2/management_governance/My_Customers.svg;" vertex="1" parent="D9mL_kNJqEYYvsfLAUP1-133">
          <mxGeometry x="5.710000000000008" y="16" width="49.29" height="40" as="geometry" />
        </mxCell>
        <mxCell id="D9mL_kNJqEYYvsfLAUP1-2" value="Customers" style="text;strokeColor=none;align=center;fillColor=none;html=1;verticalAlign=middle;whiteSpace=wrap;rounded=0;" vertex="1" parent="D9mL_kNJqEYYvsfLAUP1-133">
          <mxGeometry y="46" width="60" height="30" as="geometry" />
        </mxCell>
        <mxCell id="D9mL_kNJqEYYvsfLAUP1-3" value="" style="image;html=1;image=img/lib/clip_art/general/Earth_globe_128x128.png" vertex="1" parent="D9mL_kNJqEYYvsfLAUP1-133">
          <mxGeometry x="135.70999999999998" y="16" width="50" height="50" as="geometry" />
        </mxCell>
        <mxCell id="D9mL_kNJqEYYvsfLAUP1-4" value="Global" style="text;strokeColor=none;align=center;fillColor=none;html=1;verticalAlign=middle;whiteSpace=wrap;rounded=0;" vertex="1" parent="D9mL_kNJqEYYvsfLAUP1-133">
          <mxGeometry x="130.5" width="60" height="20" as="geometry" />
        </mxCell>
        <mxCell id="D9mL_kNJqEYYvsfLAUP1-6" value="Req." style="text;strokeColor=none;align=center;fillColor=none;html=1;verticalAlign=middle;whiteSpace=wrap;rounded=0;" vertex="1" parent="D9mL_kNJqEYYvsfLAUP1-133">
          <mxGeometry x="63.709999999999994" y="20" width="60" height="23" as="geometry" />
        </mxCell>
        <mxCell id="D9mL_kNJqEYYvsfLAUP1-9" value="" style="image;html=1;image=img/lib/clip_art/networking/Firewall_02_128x128.png" vertex="1" parent="D9mL_kNJqEYYvsfLAUP1-133">
          <mxGeometry x="140.70999999999998" y="109" width="40" height="40" as="geometry" />
        </mxCell>
        <mxCell id="D9mL_kNJqEYYvsfLAUP1-11" value="" style="endArrow=async;html=1;rounded=0;entryX=0.5;entryY=0;entryDx=0;entryDy=0;exitX=0.5;exitY=1;exitDx=0;exitDy=0;endFill=1;strokeColor=#00FF00;" edge="1" parent="D9mL_kNJqEYYvsfLAUP1-133" source="D9mL_kNJqEYYvsfLAUP1-3" target="D9mL_kNJqEYYvsfLAUP1-9">
          <mxGeometry width="50" height="50" relative="1" as="geometry">
            <mxPoint x="57.000000000000014" y="96" as="sourcePoint" />
            <mxPoint x="135.70999999999998" y="96.5" as="targetPoint" />
          </mxGeometry>
        </mxCell>
        <mxCell id="D9mL_kNJqEYYvsfLAUP1-12" value="" style="endArrow=async;html=1;rounded=0;entryX=0.402;entryY=1.003;entryDx=0;entryDy=0;endFill=1;entryPerimeter=0;strokeColor=#FF8000;" edge="1" parent="D9mL_kNJqEYYvsfLAUP1-133" target="D9mL_kNJqEYYvsfLAUP1-3">
          <mxGeometry width="50" height="50" relative="1" as="geometry">
            <mxPoint x="155.70999999999998" y="106" as="sourcePoint" />
            <mxPoint x="183.70999999999998" y="105" as="targetPoint" />
          </mxGeometry>
        </mxCell>
        <mxCell id="D9mL_kNJqEYYvsfLAUP1-13" value="" style="endArrow=async;html=1;rounded=0;endFill=1;exitX=-0.043;exitY=0.605;exitDx=0;exitDy=0;exitPerimeter=0;strokeColor=#FF8000;" edge="1" parent="D9mL_kNJqEYYvsfLAUP1-133" source="D9mL_kNJqEYYvsfLAUP1-3">
          <mxGeometry width="50" height="50" relative="1" as="geometry">
            <mxPoint x="93.46999999999998" y="96" as="sourcePoint" />
            <mxPoint x="65.71" y="46" as="targetPoint" />
          </mxGeometry>
        </mxCell>
        <mxCell id="D9mL_kNJqEYYvsfLAUP1-14" value="Res." style="text;strokeColor=none;align=center;fillColor=none;html=1;verticalAlign=middle;whiteSpace=wrap;rounded=0;" vertex="1" parent="D9mL_kNJqEYYvsfLAUP1-133">
          <mxGeometry x="73.71" y="43" width="60" height="20" as="geometry" />
        </mxCell>
        <mxCell id="D9mL_kNJqEYYvsfLAUP1-7" value="" style="endArrow=async;html=1;rounded=0;endFill=1;strokeColor=#00FF00;entryX=0.976;entryY=-0.1;entryDx=0;entryDy=0;entryPerimeter=0;exitX=0.031;exitY=0.901;exitDx=0;exitDy=0;exitPerimeter=0;" edge="1" parent="D9mL_kNJqEYYvsfLAUP1-133" source="D9mL_kNJqEYYvsfLAUP1-6" target="D9mL_kNJqEYYvsfLAUP1-14">
          <mxGeometry width="50" height="50" relative="1" as="geometry">
            <mxPoint x="57.000000000000014" y="40.5" as="sourcePoint" />
            <mxPoint x="132.70999999999998" y="40" as="targetPoint" />
          </mxGeometry>
        </mxCell>
        <mxCell id="D9mL_kNJqEYYvsfLAUP1-15" value="Primary Firewall" style="text;strokeColor=none;align=center;fillColor=none;html=1;verticalAlign=middle;whiteSpace=wrap;rounded=0;" vertex="1" parent="D9mL_kNJqEYYvsfLAUP1-133">
          <mxGeometry x="87.71" y="116" width="60" height="30" as="geometry" />
        </mxCell>
        <mxCell id="D9mL_kNJqEYYvsfLAUP1-57" value="" style="endArrow=async;html=1;rounded=0;endFill=1;strokeColor=#00FF00;" edge="1" parent="D9mL_kNJqEYYvsfLAUP1-133">
          <mxGeometry width="50" height="50" relative="1" as="geometry">
            <mxPoint x="163.82999999999998" y="154" as="sourcePoint" />
            <mxPoint x="163.82999999999998" y="224" as="targetPoint" />
          </mxGeometry>
        </mxCell>
        <mxCell id="D9mL_kNJqEYYvsfLAUP1-58" value="" style="endArrow=async;html=1;rounded=0;endFill=1;strokeColor=#FF8000;" edge="1" parent="D9mL_kNJqEYYvsfLAUP1-133">
          <mxGeometry width="50" height="50" relative="1" as="geometry">
            <mxPoint x="156.74999999999994" y="222" as="sourcePoint" />
            <mxPoint x="156.74999999999994" y="157" as="targetPoint" />
          </mxGeometry>
        </mxCell>
        <mxCell id="D9mL_kNJqEYYvsfLAUP1-62" value="" style="shape=image;verticalLabelPosition=bottom;labelBackgroundColor=default;verticalAlign=top;aspect=fixed;imageAspect=0;image=data:image/png,iVBORw0KGgoAAAANSUhEUgAAAHoAAAB7CAYAAAC7BZRBAAAAAXNSR0IArs4c6QAAAARnQU1BAACxjwv8YQUAAAAJcEhZcwAAEnQAABJ0Ad5mH3gAAABhaVRYdFNuaXBNZXRhZGF0YQAAAAAAeyJjbGlwUG9pbnRzIjpbeyJ4IjowLCJ5IjowfSx7IngiOjEyMywieSI6MH0seyJ4IjoxMjMsInkiOjEyNH0seyJ4IjowLCJ5IjoxMjR9XX0VeeP9AABrEklEQVR4Xu29d7yt11nn99u9nnqrdNV7l2XLlsFFNljuGGOMDQzGQ8lgJhOGCZgAgcQEJmQGhsAwTIyxwTa4W3KViyzLclW3unR70e3nnnvq7jXf3/Pufe6RMJmISJ/8o3XvOm9f5fk9da31vjs1GJIkpchSj21PGvaTrDRbcirLflaDftpnxjerz62DVF/dgtTVQENyWXnlh6MbnktPLxmI9dsfRMY4N7ohgBvdtP7Z0akB2wYwtjmXGvaabDhKsUmTDfs4G1VuNuQtdrrkMoDnhzlOZuALLlLREkDPc49v30Se8APPpaefIPladhoBFmm8P94ORttx8vn1z5KGQLTKfS3kNDXsA3RI77rkh0a5y8YANwLuvDICVZK5BIFWh3tW2Tpb7qvkEvm59PSTSW5hCXnjYIzb+jzG19tQxeQ092bIoW2dOGe5TY1O9EOOB50EaMu5n/ZT3DBk2+GwTfU9TtT6LWUz5QDe0rvjSEO1dFlNuMYF+dFKmT/sUMJz6Z+RTDeD7K0xNCTjbQA72jqlwWjgiwaR8zmOs2xT3BByy7bA9VyjrakU+ng47AM0Z0YX4ylEs8e2Q5VtTllyDbC3+7jv3oN13b3nkBZTJdWQ3zS6IdcrqlQpqt5fUTftp55LTz8NEKk+VB/E3hCRHKBD+6PtgO3Q57kjk8lqOAAwHKUU2zwinQXHlB0nsu+aHLZ0dqGtyzfkuSfxxULUg33WJXOSVXOd/SXyXvC7+4h058GT2jG3qGa6pE6mpFw3rWw3o3Q2rXaqo17GXPNcevrJACQSNwZ1kDLQgBz7yTkgib8GOt3vKoMI57mSHQBwr2OWUDGb0cZ8XxdWe5puHVeqB9BjdeBkO4sjndQ3Sgv4XjsQ6dsOSN862NFDtZZWuLOrHFyXCxVBmer0aSA6pIc6fy7989IQ3es8luhIRtZ5fTJoo4xsg0FfmV6b3FEB+k9XS9pWTSl97DH1Dj2kVGcUXrlIl5VZV0CPkzV2D7H9xkHpq7s7enh+WXPZovKTE2q24AcADvtAbnV7GmYJw1zYc+mflcaYhv11Gp8Y09Tnx4LPthAg91TEsGY6zdifKOa0YbKi0gAT+7VPKVM7bKDbSPQA2SRGRlcPOygFVIULnyc/gUf24Ir093cc1W5CqnoGO4y6HhBbp0bx8hAVMEj3UDE+ti//HNL/rARwVoZpQOwhaEOjPfKZ0s4mr89jhrO4VkVuLvSxp81VVbmex2GeRpy3zEyqhM3++Iffhzc9r+npnFKt4SoSbQcgA0dwIlMQfriOEy/tRl0/uCjdsuOY9vZTOpGrqJvKR3Yae4j9NKxC6wYcYSni2nPp6afwk6B5DqJmMJf2rLGG6nAO8xsgO4zKc2PZ8tRp4AjXVIH2WydLuuiMGU1w/tCeA/ruN27VieOHuKmlidmSUs1hDe0+AGqkdJDFwZIex/O6Y29HO5o97R9k9Pjxk2rlywTeee7LJLYjpHeUDXjk1JqUP5eefjLOdoBDTY+VolX0SE2b1DmkuAiYwxYgdxuazqd1xuyEymjVxSMHVJ8/pvnDBzW/ewfizs3DtiamykqtDJdQ3WkYaUJ1CtuN3f3qXun2gwva0x1ooTw5asG4stGOgTbLuUU91Dhcl+WSpXzcxufS00sEL+pZWZqABtekdvLxSH4caFnc1K4pP+xoC5K8bWZCB3c+qj3fv1s6ijOFQxaOk6VvALJTVaXmmrVhqliJ8GkP6v42HK7b95/UEymfy6mVpuY8nDGOzteyazbHZMAetc+psSoftem59DQT1jEilvCOx4KF9FqKQ756SFOnRaiELS7lVC2k0cM9dZYXtPO2W8JWq4ukYsxT5aKGK9hd1PrU9IRSDZzuBmV8nzK+vLelz923XcczU0ptOkddam6vYhyoCDbiIRsKsr0BVHQW5ywNyEMuJgG9T1usfd9z6WmnIQ7x0E5uIix2vjzaFQa634k4uZjBPiOtZS6csbmqk0fndN+nPyHhZatBjNRFWh0wh1FH+gYtzUwVkWjiq72I861H6rrlyFHtrPXUrmzW0gDHvTUEvryqE3m1iNEGKHgr+QxAZ0F1DHQ3nSOjUBwDArJntJ5LTz9lANoTRuleCpw8w+ARL8sZYmSaI2RFNHIJb23T1ISOPLFPOx95SL2jOF0G2CmGswHaYA9tT3vaMIONvn95ODyASO8hhDqA87VKHNxAelfMFDyXpqLgKp6HmSLOzlqlkELDcI2ITB1LPcnmxCr8ufT0U+LQjoTRdIaYRbCwF24lOjCWPeJlwHzsoQe049GHVDt2LBF/zmXxm4bdboyY5XJEUIA2UAfVXVHq5rnh8L7DPa0s1/CvkFeAXu731S8VNeBmlz1s45NjiwtUZocrR/ZgSgfk29iQZDsEYIJ3GCL3nED/s5LHsB3R9JGelEe6oHEBKUtbSlHdGSTUsXO5kNNNn/qEdm1/DF+rx3EBhiDs7XTU5zgN4Lkc5hSu6fDMxAzO2CeODocf+sbj2nfgIGo3I0y5lnkgP4m3ncnGaFea4LyAWjGAMaQO1/VpRBfR7VKxpdqOhK9lcNoMeMJmTt46vn7ycZLYPkX6kyvJSbpLmVTAYS/Vg7k8WI86o/wsXBuEITtqUCqHv4i/EFWnlYJAXVSd/+UHfZ6xfnI7kzFj98HtXHMg2Q7548fdnySb8ElrHDZGRBE52ff9Hj+wyRqnpP1Op/YirYWdyfbJ9BgnT1bkuGZK9pPcR4XjReepcEOlqLM3bdD5Z5ymmz93kw7s2YmWpm+5rPIAXat5HDOlPGFwGlr0rBog3+TspFIfPTkc/s1t+7XjwBPqIM1tiNCmUcMstgJw3QeEdg3AARWaUwysieH2+z6Pqrn547HapAMGAhDG2+hscpycM5Tsm5JraUwC12enowLXDrSqGoyFjbEXybUSQA+47hGkLvF/pjCB85hVt8vzqazKM0QNvRUIhaaCUNO2PdTT4Vo3zf3uF30KczQC3P1y7uEFRajDNumjJQyfhIMsHbdW875HBLvZDsxuXZukpO3jPiVH4/4m/SebgUbnYhvnfZTU4+xFA0Ma16ftOdqeRapnaM/Z05O69tKL9LlPfVSH9+2ifaZ30u6kTGOBeEQBLnqgKcKv1IcXh8O/vu2QHj14UE1UdSdlqaCXHpqhM+4Dj/C49fGAzkMIUyfaljQyQ8E5RNxV9T1Clra0hezHk2vgutzx/lpen0ydUzlFYzOAl6L8bgHHokiGuIVGS7lmUz0ThTbnilX1h3lAT+5N0e6mDRqOqNLoKKR5mqpWV2vq50t0CMOHlsqNgV7HxBHi0MSYmPEwVDSRPwaDiy47x9aTOCZiJ9t9EtBO8ci4b+5K7J8CNzJgr+1HJo1ABjPh4yaExwk23XMAvYHbzp2a1AsvuVCf/9RHdHTvjhiVdHbzkjJpPA+noYWZl15pGqDTLnRclXOSonWjlJx1IyNHYU6jJ0bcmXTCKtFxtUMEKvO+wXUrnKMyxMFeeRrQ0gT2nrvOAEYGac0619fyMLsK0RcBGZVkynoMHs+v2yMiSE1jwCbVzXkOvKV2fwHpPap875CqnYOaGhxXqjkX9WTo8UobMIoTHMPAJkaacsgdchuvp+WMUWyh8nv2PgPkMXG8JQdBE8L2yDYB6X5Rue7EulzF0a0iIGVyCUYt8liBjDod4CARPgXDj+kSyfRen5/5RG1O/1RFBpYzYzBj69MmwihzPuZKyaGeYcME7FGmQ+bSU2kENDY3gM4AtKUu0xyBPQI6B7jOBtnZDOGpsg71DQgXsrOAP6VeroBwtpHuZbh2To35x3Tiga9o+eHbVagfVaG9jG7vAEoWgQRkL3QEoMj4JAPA7ZG7AN23m2sPyCC7K85jsN3zEdgBNLrfY/vpgYGeDJANcIDcrbCtADJg9w32CGiHTpY26JOATA6C+s84PzvJXTGEcfDkNAZnPci2WWsUGG2T/eS6AffAiR0Kz5KSzcFszclj8EMveXFhLDAcZ+6zZ9fxltwBFAxlOGMxIgTQPYDOcIzX2QCUdsTrXcKQrqZ7NVVPHlTvkTulb39Z6WN7dNVUXpv7TeXbqyp4gLgDM42cskgjWq/tJFwdKjoWPoYO95bLfsxkCrAT89XODdUk2vDiuySnIred3RVsagem6bL1ih3P7oWDR13+F+VFXr9PfhYSTSBReAob5T6sdTpS0qhTeQzsKYAjR+OhhTtioAHWEuR9kKH8BGBzcwa1ngPgHLY3D7iFbg7Tm1MJYMudvCrO7VEG9AkIXWwj+cSHMbY+WXV8gSPW0bBF8D9oaEs1q02DuuZv/7L03a/rBZeeo8Nffr/+z3/9Br32yos0iw1tNxaVmihGc8I1f3I3kz8jkNPkDCBnu2zNbAbbPDXmERs/QI44M49kY1YGbIccDzk/BPzQ0N4m3U+y6TTKTv4blKQYO7Mu1sfPRopyExidEjiT5DPJ2fEdSQPXmjfaX38PJcQl9kacPxYS57g3LiWeYQJ8An7kfm6U83i3zmiGlgdYs8pmk9WnyTAfKr6ITOBTpRtLWt75mHbhherAbv3kT/6YPvmf/6NQ7NpG/vEXn6vXPO9yVepLKrdqgAfTeOTI838xgkSD3HAnthkamsGxDIcLsPNsC7FNnLzoiOng/rifdsTwvNdyxluYMrxYayCykRyp/USa7LYm9TlHUc5BKF945lMi0aMak/0npwT6pCmJRLO/duP6fe61oxV2F5ubXZexw0MI0IcAvWwPDU1Ygo3rov48omb11sFetonb23jEzi1v00W1VYJ5JjGdSKNjqRq2uLms2e6ytqzOq7x3p2p3fEc6flxvf+Ob9G9+8Rd03oVnR3vc2rNhhp+4+jT96x+6VpuOHtLm1VVNt7poix7apAcz9QEQMEYqPegcDG3fAsMBI2YB2cO91kTpsbnxFm/d62SVWj2V0zBiCh/DoWAKU5HydWji6T3bgPBPEnontBsJkfOaID3zybRYqypgNYc/KSUVJ2A/NZ9K8bSBDo6mgyOAlV2XfQ2Qh+QBQCc0sw3D+8X2dgjpxkC3M4UAup+bUGdYxkzTVKQwA5Fm+w1VF48od2CHUo88ID38kH76hhv06z/zs3rp868OoXN7CjRnhu3z0fY/d/km/exlF+sCiDnd7mqyA9jdvorY/RxApwDaNBgT3arJcbxDxyxgJ+aGDMhpjxa58UEr+pnChKyBPQI6ZaB9bR3QdkBtAyLySKR6TNdkG7vPShoBfSqtVRjbZN+cliInq8ucSXGJ/VB9lvXE/QqVGJkOjZaeRvYoTcx60WkcqITDTYQRA1jdWQK8n2MfNTjM9gE6j6OdpwjKBJTpUkFVmGTxyF4d2v6QegvHdcXF5+n3/t2/1YtfcHWytplmuHlVeueXCfIUdwZg/8rbLtE1556h04qU4SHGdgPat+kbtjXsqbd41PiBrXxa9VxaTRixjSfeR+O4l2MpN9gpQM949Wsb+pDTtudmSGc7csEQZO7HaaHvblUQLkkGG3XucYdYoeN2mIbPQvonVPdoz6pkpE4yOXvQIwCTUzSe/ZHa84BDnnstRXlAcS4AuHMMQUbu4cN4FobY1mDjEWtgcNn3IHlnCYCRgiIMkbNG6MUQYKY8qbQHOhoN9Zp1nKOmVh9/QMNdj+qFl12gO2/7pC47dwsENjOQSfhCMbNqs+kx+knoPUWb3/zKs/Syqy7XbD6j5uK8Oo1V+sYFgI3RE0udHy7ncLCsaexNA3Q+h59m0BIpz+NTVAiXqvgRlWZaZQR4AodyopdXGfBLRA5FruWJnfNekTcOqQJsUnCjM+0NdQ7IAO5Rrmcj0fIkjapfl8Znkq0FN5OD1fOQz7GmmcNsgtqNUZdBV33UYSq81mzkVOSE++3Juk9pj0KRS4U8IQ8OlmNXS7pVmgluQofUs42BFfaaDfwmGGZqSrlsVh3Crctf9Ur9yh//of7XP/qDJDSGjuFR2zXuElfXzRADpB+pphoL2DLKY2ajdOkV0tXPv0oXXny+JqarxODU5Ql7b90ezw362A3m4XTZvsJAbU8Fcj2dw8z0OoTnvehjPlWGT8r0q0ARHpHiGfIQie+2BjBTF3kwHd1Ab0d5DegR2NTxrEn0aPv/mKyyuxC73zMINMpbL1exXcPzzKHeYhUE1O6iLFuaJk+RJyEQNlZVzlfQ6GVykU7ncZ57hLWUhVctiGH7pwxSi6SIsMYCL5ylBHRLPRqjUMSBy2mJelYqkzrUH+oz99yld/zmH2jn0TkaEA9RRgcp6kNsNA1FLXP2+ws1feBb9+mvv75fn7r7iO56YocOtZe1TPkdmxVrLg/7OlvqPD/rDFP16itYnqZSk0WcxK4atGdQcbzcVw3mrxcmtJqrahEJX6EftVRB9WxJ7XxFw9KEVJmCQeC2NY402anDmI5MX9DV9Pz/E+hIqOwQYHKoa6tw7NwQSfYUWgpi2Yb10xWIhQvknJ5BHU1he6ZQexNsuUZO2XI6fFIRHocA1gCdZCGDTXVEJwbcBLcazSWAN5otrXb6ahYrmoNo98/N6aa779RNX/ycjhE+RShjoM0clk7Uvum2Si93dur6/GMP6POP3KNv7n9U25eP6SQsSAjPc+4YN1k1u4g2f3omPvvWEO4jNnSY50SRbDMToVQfTZFWC5B7eZyAbJm2svV+hijB8V/EgM5U5DW7BjoGnU4lO8DBlKagQX8WksuODtlCRxUG8klpdCULJNjprJG2yom20mHU2ZCchhhYNM7bubJ9tRQ6+xiHJzxuiO9lRjg9uUJWBdRioVRSJl8YmdcU/lbaE4sjosEEXslooL3CBRttmhdykwhgVa02drZNQ0qTGhQKyRBmDGTQLteFSgwfyE3NVrXUHmoVj75eLqlbAYwK0lZkm06Yzc0PDWOgCcFSI+ZOmI3zLQ+z0h+P03fQE2n7GGyHZHvb7m/4FxQ0wPPu4I13Hfez79Uenlc244zBhJGTIWLnZLj4BwDwjKQRa50qfNSEJPmARiXOP9YDSfYSF3vRaatrqJAFdE+OlwGuaOkY0rHhIv1BwoZkE2KwwrOr2NkaYDbU9SREY0W1+qpaXjKT5cGswYXgWY9eEVal2JouPZimR9gCsUtTs9owvRktUILzK9Q3o2IBzQHt25xt0R07vJ5H7ANMm7b53TGnYqWi/MQm9cqAi2PlsZIB2iEWsRtgvGa/P1ZC/U6gdsu0pYrkFeirPfMivkOeMGmAJtDqnKoopdmpHD5DE6tCf3snAXQ+6XfP2eADfBmb7kXYaITokFV0gM1mDWiDnEwErUHyDKcnlfokkCOdOjOEu7sdnJyOCe8XuQDfIQrEdEhj9d1cOKLp3qKm+ic0PZgnn9TM8KRmIcQsXD87XCWurWsaSdiAl5Tr4aq2VsClC462pxTksezwbinTAxJoksictyJpNNtaXWmogV0fAEoKp0fY+n7PrOjJ1AwaIYOph3Hy2HSKRJ60vDTU4mIdh4qyLb0RB3NPpqwc6rZAzG6n0eB3W4R2+CHdVlN9QrAc0uhF8lmYc5bHNtsvmTum/v6d2tic1+n0c2v/JH1f0Kb+kma6i3gldU0SJs6kYY7F4yg6nMMwcR6gMe3opk1TSLGp6eDUbXp2gI6FB++7bZ8eOXSIuDGvFrYkJiJsY6z38BbdjAxq0PTuDlqR83imBj0NxyeR0Yq6Ox7Qb//GL+vCDUWzQZKxSShAisqqFxmHjWLxxXTH/bu098icWtix1e4QiQRuJNqLHoZ2iuyJ9utITAfTgD3vo+IhUD+88742rZ5Q9sAOHf3SJ/SNL31E11+yiXrsHzeo2+8XVkJYD5HvRtj+6ENf0MnSJi1mJ+mIC3I5WfpHx+grZ2B9oga677VWAwDOEgJmyOnmipr7duv1r/5RveyaK1FSNU0SfmWGDTQL3jImoQNIwxxOWConf0diFeV3ZLGtb951nxowYofzPQrvUme8IQlD2zKPQ1gLVsw5cNaht5v1jM1Hc+X/ZRpBR1lRHipoiANmm21fpltDve56WG84rahfPLegXzqvpF8+r8K2ql9g+/Oc+9lzMnr72dJbzpLeeB5hTrmv2faCqi1yd1XVYVslPOeMFw10m8TkfZVbfU1BtaKBQd/2LQpenA7YjmuTCYcscSvSHW4AAHNsybaytGJwJ93GAgxcJOatNIuq9irEwah/7s945gzC+BXVZNqSQzOZnS/bZtqTh+D40JpdrelSyvoXl1b1Ly8t650XbNS/PG9W7zx/Wu+8cFI/c05Ob6OPP3WO9OMXSi8/vaDT2jX6iYQTspW7XQQD7UDDwiYDOpWwRbvErN/TgORppBhHJ/43Q7Plj5NV5sirdlzrVSOOG+uc60CQ4dCv7xQAvIBkFzQB0QtInpbnEDSozePxh+L8vQSHOiWObcKdUP7aDV/sqQ11vFPQ6mBSPeytClWliK+HRoUQqY3GSN4PLiAJxK4uAO5NwrvEQ7XpsIc2tJfteulIHvByXRxH3062VK9Q5BL9WaVvba70rdqpKxXOHmFNDiufbqFW6YedJ09+wCy9NBKamVBvYrM2XXaVHp47rq/dd5/mML+2/3QfSwOzU26WJlBqZPRhLHCpcL2N+u8hGJZkL2Pq4IV7m7yUaFa0o0aBMLpXbj4bKZZ6JWvAkvlS//OARt7jygE0jTB3m/gZHIZchVBzGlrn0XL0gnamg1NBzsMKSHnHxISD7Ie7g/52gl0ld8vkOwogf/YPX9d3DpzEAz5d7cJWNQnBlrC7NWLnob1nL3ckPAp1jxnpYjcGDp+yPOyBG9gmsXWmLpJtPeUKnGhXlucsjAaaHsQS5hZefrdYAjxUK9qhjnQ1YagObRukGtxbR+rrCLLVJQ/7QTuFxQ2qd7KqT8zoBI7c93Y/oo9+5WbazC2uk1uTkBPJZ9cgm8mcQj5pm4dQ2+vG8vsOt+yLQHvTJwfQ+YEdO1f6zCeTJ9oZfoEpZeJYUsi2IAGy7yrRfI/3Egf5TU07M151yckYPSzHirm0cnQmkysjHQbDEsffkDhiVv4dOD6nv/vATcrT2YnypDrYyWXCmQ7H+eo0lMM+NeFuP1imTo8zQxCPbIU0W4KdaLBNiRfoWev0YrqQ8ya8E7f5Vp9yK33si9FHS5LLM+N4+JXQb0Ae2jPGF3EReRy5lMMumwakITUzSzjXwhmsac+e7frGrV+OcqPsUWU5vFI7rU7jeo1/NgfdkProBxrKfksCsmtyiyxUIRax/2yksbIeJR+N81OST4U6pyEQP5NH7VkLIBldpL/Xp7Oo09B4oOIVljlsGwEP//o4XDgISOHWqc1644teol++/mW6rpzRRHueiApnp4z741UkGQ+4AHCLfRw9ZCHATFSa0aL+AI2NNZHBQWc28XDbgDZ0zB1xdEIwf42BSFkz2IspYuSSA3ZT3/FwrFFzzA/YMFEPz75F/N6mDf1hESkrABYF9GsqNU6ounRMw92P6ZrJGf0v7/wVzbiYFvV5YCYYEOGAQc1DTiZZFsTbbTRdhFVOo8avJUNrJkics/GihGc6RZui6HDbTjUjafY4sWeQg0DEmznUoic5uNIH0MgjY58i5PHcAOjTQwc2lpSUanQHkmgjGL7iii16zQXS26+4QC84ewOEXsVuWYrN6VZ8aAOXhwR5hMuv+QTAATKFR+YI4nrtFq6xWgDdoK4muR+DGsFxNBA7yS0BNKcNdNpDng6+1wZ1EqBtmkQM7ZCrj4NmDZ4jzi+nWqp2FtXe+5ium53UL/3Ij+otL75SBapIXlbgT5g5Nw2NxBmTwFtP5OULmBmLVDDDOPl4nBOtlYyNcfwspDHzrSt+pN7Wzoy2ATJbSzON9iTDgF5Y1oJAHsUiD/KlxHbFFB3n7bQBvo1ZBiJDRk1wqQKmL7u2oDdfd4VeVM1rw+JcLPlJDUEEu5mxKGAaChC80s7hA1BvhEQEa5iCDChkI0Nt1J79CZ4gOxykgmA8TvCIO+mmD/whnSzS5blxM0+MmviC7+dpx9YxvWhA0ES9FRWai9qyuqjpY4d0AZrlna+6Xj/56hdEuaGb8zhVmCmrZG/bbCmdpxN/pAnZMkWbvdEgpBsS2UejBNgRalmi4+Izn0J1P4nRIj0VbJLHgk18kl/96NiOQqgUIKdz2DMDnS0AclYnudQwwfLEq4O8mgSUJSR1krDII4Sx8JM67bj8KJL9m6+9VucQghRrJ4mcuAh4fdTdDM5Phdi5CtCVThqwUcU9T3d2UastcgK2gc7RlpGLxrHBMnhu7Yh0dNJ2uGuQ826AgeYGx9IxX+yZtmSdWLZHWXjiKuBc1ReU3btT9Xvu1J/9m3fpZ3/kWpVdrkWVRzu0xRMtfcfRsJQZ37xjQY/q6eSJxSW1YVA7vsnsVFxJyBuqmraSk4WXPn7mU8Jmaylq5tT67frEzUj2wAv1DHKhiOOFFwlhlutIYgs7mUV1T3DnJJyNem8NciqWpgHCUh0KQSU6X6RoK2ncL70A7f2//eLrdUE1pcn+ikoDSzUOFup/aIfPU37IaiIN1EskkEI9p5FQ+wD2G8w4yDwtthYxCxl2noWQ5jkvX+qhovuOgey4UWKagDnbJY4mBk+TM0hyGm2SdYhVO67J3pLS808oM3dQf/+nf6xrzt4SJIjKPPGOWz9ALdeo+STNWOS0jRV8jhlJvqboqdFcZQLllLQ/+uBCQrqcRykA9/Vk+0ynkOgnKwzvGWRz1yjZJnqMOxwKN5INIHra0La5BdB9B/6zm7TEbctc/tb+tt73ze06Ds09HoG8x8RNjECiAnPwvePMMqw/RbGXbpR+9fU/pOtPr2ozoUYZp6aJ5qhhtxeKBS2jImv5VCyxbQNW36AhlbF8ifaYEQaIj5c1RPvcfMown5jo9fwAO+4lTDZBZCS42Cur3KmQS7EC1S+zdXIrmMx5zbaOKfPIHboMpv2Dd/+qrr7ydHntQwCEk9luL6vWawawK9S1DF8dqEl/84Vv6QNfuVsPzocXoD7cPMhj8wE67HCQ1wCPaLmWn910SnVH9pFTnB1lJy4aZA5TXmjAU2mHWjS8A8ge1JjauEX5K6/BAEt37Bvqc/c9qs/vOMx2mfiYIqCti4dEgNFCcoirAdKjRBOoUGRFrzxTetOl2/T8MzZoklClh/ZoYS7qhYI6BQAEaA9uDAC655DIixQMWrQQrxV0LaseyIgMAPYXQsJ4rhUMkgCdQ10XumWVDHQboNteLMDTAJ0G6M7++/XKmaze+SMv0qtfcr4qgGxeHjjuxmwM3QaOwVaL5B0Ae/MdD+kbD+3Wdx7dq9sf2K5HOIfCUANu86tOHqcIEps5A+hxfvbBToCmEm+dvLc++2rk0carSXzF/3rhiXMaGz21cavOufxqPQGLf+7uB/TdXYd1qJHWP9x+h75yeKiHIMpJP49se2lN2EYT1mAREhUAxZ8SfdHFs7rh6ot09YaqZmO0CFLaptpmUmdi6JA+vwExdOapGMJEdEfJ2i8EmtutwK1NSp2iiu0iZhfKQ/0UpqSLtugWMTH5PiFVA498VTOL88rv36mtxZbe9OaX6I2vfiFOvVequ0AzzhAGQtXn/dpeWQuc3k6fb3v4kG769gNaSE2Qq7pj+0HdcvcB7T4GM2D7MQgh0QkhDeoYZDPqOrCtPZ+FlLx75RyH/guM9v6cR8fJhkYSLw4cM44aNvCbE/5SEazeAK96qqD3feZ23XXohJZyk9issvaiq//k1q/pM3NtHecpw5HxawwQy2PlsW4sJLweH0fbyqVXXFjSz770Mp1XzWA3V0CKOo1W3O8tQKETs8OK8mlUiOekkZo1ErFjM+rIy+GPfYEyvFJoFJSrExoivQTc6thhmCyiLdAcGepvLmjmyCEt3fVt/ft3/4p+5CXX0N46EYInQdvq2sNHu6TyFY4KobYPoK1uvmdFX7p3h47TnkZlKwxd1eFWWnfteEI33nKvmukCGghjZRqalgHmCOQwh2S2yYTGs5PMYqQ1EpEScKPKsWMQl/0nkWbnSL5O4w10L+UP2xR0kpBqtTSjenFSy4BZL8Ph5Pd97XZ9/O794aB08kgSXO43IWMNkof9ED8vGjQomGs9/zTpXW96oS6Ztn6ERZbnoAce9+QMHOWpxIxaAFz3QoGpDYRjSBnPmZEcEhuToOWIno4OA/J0CV8BoLH5XTTJwupRri+pMlxVfe/j6u7arjs/+TFdvW0zd9cJBz3+bM0C2PTXXrUBRivrMXY+/c0n9L0dB7WYriq76Ry1yhtg8JKWhkU1UiUYqBRj2x7KTWjrRJtjLMB0dGPHdB1dexbSmupOUnLk5DOnqhwdjRsXDXTiXnd+BHYHoBvZiuq5CbVKZXUrBbW4ZWGli2NV1Dex2X/+3f06yLmGx01hjj6hkHVE2Fj2bXIN9lbuefFW6Tde/Ty9erqgrasLmu60lFleJVyfUKY8iwddVt0qu9FUu9vk+cT2e1w940ETh0Akr+Ssw1PtSlW1AmFQkbZmmxr257j/hCZqRzR45G5dg7n4k9/+TV20cVrb0kXN4oV74UEMhpD6fiOTItExeoBG/+13tus7u4/oCOFjPVNRMz+hpT7MTSjZjeVFFZxP6ykaENKc0Na9TTjwqSA/e2kk0UmK6qIx6/M4JWPf40YF1HGLQc4Ex7a9NgqQHT9bVYXjUyphPivqDSe1fbmnT+86qE/vaegJhKSPVA+4z5/TaAUDoVbpu2PtSR49i+Jfs036l5edpxuQsK3E1oVaA+Hy/G9Zw+KEegUPmXos2ePqljqbAkTNI20cJw4gZ6wY8gW8dhOdwh1PV80YJ7Sy4269bENJv/zq6/X6F1+sKS4XPMDT8MMcWB0QdcQMEAA/jvf18XsP6ZZ9J3R4UMDkT2Ljy1oF5BoabQgjqjgVjNj1QIzp4pBjjXIGeARy5OR0kJP8bKSR1z2qzCm2YzjXV53ckEj/+GZfsz23R+mxWjrjEg2aV3B2esTNOZUBpIUbXMMBOo59/sjtd+rmXUf08CCt5VQeOk5iflGSPJZMRdq+NlWCvib6Ky/N63XXXqJLt5Y0k6kpS+iTah5D2pbxztHRMFQVT9aaIIZeiedDmnH2vGjRSjPI3D9J8wj+uidgmBPadvKENu3brfMJ1X7mDdfrja+6KtyA0LIxmUGJwyr7E2qynS8V9V1itS88tF+33PW4Vtr+0kJVmbwb7Wd42MlzlzGyRxsclnrFRiSOTTvTZ0ThhKL2h5Ko4Ulh7TOYXPIalJ4PSo6cn1xhctYNdBpvT907HpSPSzFqRpOzBfVXGhAvBf2x41kIVpjWIwtNvf9bd+qWYws6xP1o3viweA3MHK646kzWNrsT49Qbuefac4t6649eqws3F3TaBE5h7aC6ywdVHPBEcxkJxCtaBMRj2PIT+MKrnK9x3FmNEbg8PkAGoCeyNdpV09TcARXuuVszu3fov/7Wr+lNP3J1rDPwlGEkMwvSGvFiFycLFbybo/ff/4g+cfdDaIhppQqzatO3vsG0pBjQfH40fMvNHliy6rfTZzL55HqQvcuejwx0kuPKM54yb/ut97zn+/vmdXS1SZyZjEDF2K/ZOqbtzOJW2SO1jXfrPPCQaGQalrQ9mjh0p+Fwv8s0JE7OEHp1OjwLl1uN9ul8vlKGQD3t2X9QOWLZK8+djCKs4Zyy/Q7eshUuiXY4bvf6wepEVhdecK6e2LVHU1w6s72s7L6dau/Zrne97jW66T//pT77/n9Q+tiynrjz+7r/lq/rjMqENp92tpYWV7TnoYeUWVnWRBMPe8d2zc4d103v/c+6+OyNKmQHyuHFhW9I2zys60Ehe/srtGsfDPd/fOYufffYEiZqmvZX5LVm7k+AbDD577F4L6IMaV4LZ9i3nR+DbA0aF8aZSkO146OMzngUN8oLLzJhgTIXZooFbdu4QTsee1i1xZPQ1FO1o3rGZte+jjNHfrZYKvxTQI8qXg80jXO9Y6AjJgxOJSO9HgPIcc8UIA9XlzVAhebxttPFsvqefvQKQi8ooE39VkdFvN8+XtLqSl0rnYLOO6sSEZS/YJFDCrIUOPSbHzBIhzp6nrRAFW9Cas4DhCduvU3pe+7R9Th9r5zdpG0r2GPMwaZmXqehakvzTU2erKl4eE4Lj+7R0oOPKrtrv7bNryr9yA5dg8P16+/6BV119dmxZr/jBfowWBbJ90xTm4igBin20uTvECr81a0P6+G5ppY7FWw1bR3QfvqRhzOSKQDCTY8rjEcQLQCeUzcIPsd1v+OVDNU6GYZEZQcNvR1BY4F6poFO6vxBac0pS1Ko7RFHnkpc93001Grbc9DFdlMbum3CFXRAL6020uwlO2EoeRb5BLAiRSEV2qIdKwN9dvtuffLheZ2AHsXR5IQbO0CM/dUAQlLOtTTbW9bpK8e1ePONOvfxB/UjzYZeQ/mvS01o5qGDuqJe1QvT27T1eFabD3R1xUJWW+4/oOqXv6Ozb7tDbzpyUm85uqCfWazrbVu36hU//LxkZpSgyUuScjE02kFbdcOztqr+OmblA7sP63MH5/RED096sBHeJ36HSStovjxMmQomacGc1gSmh2nlsgySJTvRiF7QEVoxslNCuwRktrGfXHmmU7z71aMCr23wcpeAnjAl5REp2yvXG/Y3h43FiyR0GGBvM7ZfcDWsnzg+eLHdfJfwooVJKyntBfVtkKvh2dpKesVdz5924rGyl9MMCb0GalHWsbmObrrlXn3t8SU9CvHmkOIVQpMBjo7Xck6262ru2K1dX/2mlu99WA988kZta9R17Wlb8M6RQq5nvYAvB2A4Z53hMmHXcgx5NiytAzQDzDeL9G1Byq7etEFX2DzhUOnOx5U+2QIw2w1MSGqaGHlCBzi6E5C/ef9B3X/XXrSMQSZwo911QoNV+tquZLSML5EsKUpBn6yy2OgsdWTw6vzTB7n4fBTakL4O0Eh9APdnrfowQUhtSD30o412Hh3ZBEP4oqd3vZzZy5I9SARYMRCExvB31uLzWUQCfrvTHwiKqVZLFG3x25k9sr+05JT5qd97z3vu2I1ThNPUjVCFijs1CsO5MaNZPRt9VwzhPcfsyaUi8XKesMkvkUU4U2wDLhW405ZGHs7iUedgkCwA+/tc/nQVrUvUDUTp4Zl7SVoh/OWcHty9R8WtZ2nDxliAG0qgaBt4+IA+/9cf0H/53T/QxtZQV05v0vn5soo12kmexeYP410wf4eU+zM95Upm3C51mgkz2F7aT1k57G8G769z9Jga339Ee+97QFvPvwAHAM8fJ6EBXY9S730I46cenNed9+5TbR7vf3IrzOkZKId2A/VLmWSkzC/k2ev2nDypj/r2r9Z4ea4nbrIxxEJh9LkfK1EgkAeK7LDC0GmetQIfYt5yXItXc6wQ8E2GXhkaQ8XQEg3pVagbilmduXFGux99SI2Fk9RofHwvyt1+lU2uNYr7bQYilQtFpb1ix6/Eeq1X8ipKT1PVqiasbk1k/3CG33osl7kGoF3CnnI2+tbD0837Y5W2v40lQF8hzOyhar1GG+k117rjPVQXOSb63Wnz9eoSvIO6hMCZImo8O4kUT+nz339MNz+6EsOlvlOrdf3d//4fdP+Xb9XbX/4qbYXLi4urqtYb2gzBNlfLqi+ChBfHe0oDoIfpToDsryq0YVwzn30ML07wR1MnCmmVickzR49rY7Orhz75WdUe3xPruf3ihicpvnD7Ad352F7VYezJqY2o+DwaClrE6zVsPSDj9cVupYXGfbONDlXuTN/p8xAm9y9OgYJyEDwPLcOmlyBgHV9mZUn9BjFbG2nOJsuzxgCxQzaQiS33FCalxT9XOjYByYsAABwqghwnKSPK8b1g/OZ3v+c99++f18JKh1PVmI/PdvpIGVwEl3rV1rAF98WYIs4HEllIt7RSX0C44VK/bZFtqYwE9RxKEDcHdweHUXl45tCB3M9TsRdxWWvE67d5mGWQvH6a53lU4smVE6ovHA91dM7klP7s135NAyT9wk3bdFppUhXCmTLVFLDNaYiJJsVbdj102/0lG1h3drQJBvc2tA3t8Kcth0h5Kp/VMirzOAy8AIhmtsXsjN5342164MATmsf0ZEDfZqgNoB3MUqgZ7HCOMuL1JPfR+geg4/enYKgsBI9VLtDCS5UT6STEJAoZUJd/+4IrCEwZBsIk2g3N4MGjUZI1OzCqnQf3K7x3a8GBSoAzjSY5fdNM8sHXpZPhFNs/co65bGdKieecIEi5gCl1OOHJCi/zqfil7n4BaYPwjSGeZQZPjxtoXKG9ihpdVufQI1p57Fs0DL7PY8eLdH7YVAYJKQawlOcy3UayP9Pkb5XE1wadrZecLQk03i/GddAoyImWsfUNHLCjSPF3H3hYN3/l6/rmV29TdqWlsyZmNWkVhgQW4ZoSAHjSoodKykIQ+5juYqTRjmuJzHHUSNuakLWG09SEYTtFmAPgCoBTO3BIJw7sUwNNs3/vDgS2Adub6G2tEKvX8FlSMGoW5i546VK3AQPBcXa4IupAOLDLecD2imQ7P35bpJ/COycPB6ho2j2cn1frkfs14aHa5qoyftsF86YcAaMXWBi0iHbIVr+RYUxyn2zz535EhoPNvIbUfYy01ukkm8mdMm/HRt+zd05HF1tqprG52LI2hGhDCKs/c9cEnd3Qr6t/YKda379DOnFQr37Nq9TB6/V66irOUKm2jBfqtxD8VkNTFTow2WlqutPQdLemKXJ2uALjr0CkOnZyVSU89FmkYiNEKhET55oL2pjt6jR8hNSB3dr/5Zu1bWFJL5ic1ZZiVUX0ah5tU4GLivTQ688tRe6LOzyW5nGnDb13zXs0M0n0rw+wfkk+QrlgEiSQh1Jwvl8U2AvoafY9VpDyCF+3ozJqf5ZCJvAFKq2ays2apgG66Bfw0GrTnRXNdIjRe3WEBQ3H+TzXbauLcbyiif6Kmke2a7jnPr3phpdqIz6NHckeferh5Pb9ov1onH4QWopskxAq2Jp0LNHTEV6tItGJbU4kOqR5LNFQJdFkKZWKJZyx30V1P7GoQwBdw/PsIeKZabzrbJ/+rcBYdZ2Fdzm5eEz7b/uyhkf36roXXanf/fV36P77HqGyRU0i8RW84O6JYyrB6cXWssr1Fc45L6lSX+R4gU4tKNc+CZGWYRxi6ZVFlVaWVYVhCjxjoFPLxzW1NKfCkSd08NZb9fMvfLGeP7VBuRa2F4exgu6ctL1sODIYqkIc3cC0pADQq02fDLT/2MFJslVbwZ+nRq1Zg+Wwnb0m0cJqM0zVQq2u7Tt3x4qZZZylGg7SEE3lj8aW0Hpm3jwSn1maV5FtePzNJdq2qGrjZOQix1mYwAAOMQcDysi0VpVvnFBu9ahyJ/doS6Gpv/y9/0Evv+JM7unpGCFfD2luUH4u00F47GMAstV3qG4j5gEd/KeR6t4ZQC8AaQJ0sHOA7Gx/BNPm/vO3WCwq9Q/zw+Hffnu7Hjjc0EJqA8xgA0jh5FJrSfmVOU2cOKRDN35MOnZAv/Svfl6//3vv1slMQde+5R0aPjGXOHGmLmGThyMRAcoxN6IXkbrgSseVecp2doMwE/bghanQkDDN3qtfj/Uy3eaKLsXh+9WXXa/Lmn1diCQXKD+DY1OCg0/iRJVzBZXxtj24sYpmGPqlP2x/otYS8TV9vBtWw03gXAutY4aYQPWXUaWrKzVNbNpCM4rag2bZ0enqJGHbn9z2NR2g3HiV135HEJMSwuGifzG0yamogMLjHDkIzjOOJLC7sU7dEuZJFr9KW2rrhusu1j98+EP4ChUdp7uf//4Jve9L31d6w2mEai2c2a46WbSLlx47dA2OHWgCJjhnuqDrLrlAN3/iozq+Z5eGDsHsdUdjEqBtUvzticR1S2tqelqpj8wNh+//5mN6YK6txdIW/C2cqw72lzrMod39O9S+73vSjof1nne8Te/4ubfqvMvOVx3jduM9j+pYL4+qGqKa3CB7unYk8CABOr7RBdBeoWmPt0ns6YX24Th0HUJhk7pEyl0Pc3Iu08XZ6+u+T36M/BH93lt+WpuOLeu0Va/6xAGi6XmAdkBitd0FGGe/wtMH5OTlOGhDdieNgcG2zQygYTCvxiyUSyrZI16uUS8SUSqEn7AIwZZggJNbNyn98hfp6JkwALX5pd6uAYZjbKpKtseAOoBpBn7Zj8LjQzwRC/ttjELkZqYc5tAgpVHrJTyE2fSqtlUHevF1LxJ6TP4R18eXsvrao/O6+e5HaAMxOm55G5Bb5L49dvMYEj0Ffc6eKehFAP3FT3wsAZr2hYdoh2gMNC32TzMkQKcAekapT54cDt/79e266+iK6uVNdIYO+eX1FjHa3u3Sw/dKOx/Rb7/9x/U/veUNmr74HMqCDYmp2/nJ+GyElwD5yz9ow4jtIT/FJ7YvnFQ7XgDdgxFQlBwBKldQpKF6LBz246wU+t2+Pv+n/0E3/vG/12+9+ae1ZamvqQXUJ5ydx5t3qe5SBoD8XlfHD+M9x+eleX6sut3lkR9zSqIB2rbPSqaM7a24wbS/gfMTYRjOUwpwFrdt0iXvfpdaV5wez5pRUCbxGQzX4eW+8COVUbc76IrsmDm7QMe/lNXmXlzVSL7FPyeY70PbHoIEY8ElNKysE2niYpTZl75/ULc9vlf7W17fBlvkyAG0OzTUDP7LWQD9wksN9Md1bO8uSqaMGCg5BbQXcmTJpyR6JpQS3JglpKKR2Dp/QtGzRdq1W7oHkI8d02uvf5l+/d+8S9NXXezWJr3EXlibuYpxNUU8Raxn8Jjz+BoUNPqxn5CAYmgGZE32edjLf01QtTrYcdRUH4nHw847vHHgSTjkkGhAzL6K09KEaPbYrbKtrtcDHCbNmf2xVHvfN6RhlhZhWQMm6VbyqueGapCb9Mm/kpsmF+z1Ek7aEUOLxrN+Uxf/FLLxx4My8WYJDG/v2OAGBcaU8BMxa0A/k1ziFtPEiy38VWJ/y8UgCxNY4do5nHr9S87UdZddpC0Vfy24h+bg2VEuUgfNhEksGomTuZaedEDi2PQImoxOeUEGQKexWTmUSArHCLAPHZIeR5qPH9cbrrpaN//dX2jL6Ui7AXary17sRkwIeu5WxnbEBUEAD/15yC+6bAKbDpE5YBuM5WujMGTMFL4XcVd3ua5UrU28TMeIlR0+eRwgBcg9EOuSM2VUI4A7tvWQqs+v75T7bYAD5NF+AraHHulCGduJ+l5E1S4DbAvvt0O//MHWDKKf9pgBfck7BOpjytx2HL+Bv2FCqOUVLPEJSH9+2p2Kyg32CGhutwbzi4qe+gzZcIRg38TLmGwXPbRpYmJj/ZTfDzsTwrz5FafpBZdcmvgQgFvgOVwpGMW/VwRj40N4vsC1uU9JpynXZUdODsf0MPM7WSngueLLstfBex40ajp206f167/yr/T9O7+qD/z5n4TaiVLtUNF4u/QeQfJpA91DC/TxsJOa7eGiYOm4GxMp7AfdGY3F+mW7HDYsgzH15FioWLKl+k/+8N/rL//Tf1SBDm2tTCHRHmeHnBTmHMCOchJLPplz3Z+xlz3O439xk0FDD5v3OtjXLqJqtT/gn7831sX2dvF+HVKlYtDCNwIqNrJYLkY4xh0wmYdbIbzDG84NEZRhGn8jtj7mQejhMW4bhTHtgg6o7KUFwlWPIrl/ePXdei1kyIPBr7q+rB977Ys1aHfUI7rw8Gef/QE0mYRJs9Q77lf0eNx5J58abbllLaVhHK0S07ZQhzk6Up6Z1OQrr9eNn/uMPv+V76o0A13oryehell/RAa7irdcRP3YnerA/PC+hqgbekd2R3jAXODsRjjHOWTX3jamYtB2DGwgODQNgvJkwp1Lt5ytN/7Q9eouYc+wwR4YWMs8sJbpyFNBHv9UgfN6AnjXgyr23HNkX7cDZ1pbFTqmNhO0qa/T62n7N76tld1PUFCOkJP+2Wy47/S1CyQEXDhTedyr5JeELNsoc7YpcppzyVq4iPJdGYLkX48dmNHw5MvTGygPLcU5T4KU4XL7AaHtyPb9fH8uC+OghjyMatHxv57NLLQ17aKfTuPtWrJ99r8khdj5rUS7SG1UWRvVu2nbVrWh/C3f/Ib+/lO3h1PhF9H7af9KsZf+5Ajqcf8NjJkVqfBPHrRsf2y4R6Ub5ycnX6MrHiUKhU3iXkdf7pzVfIpOzBZKOnd2owo4Zmkuxg+2rIE7zhDD5w20ESaNOx7cPub4uJhkX7P1yY+ATrQC4LMfUR+E9ZCvCf7E7n2qn4DRkNBeIZeAyHmPcHk9d5vs6DsBNazOGuDemjTjN57NQz33g32D63cFvUx6gJTFfACOk3+hzu8n+LnHdkqPPnoohl/zMJlplIGuGWsPGufsMZQxUz9JdJ18cq3bvoFuGMR+EWuLR2SvdBHOWSxUVL3yGu2E3f/iy7foQ7c/rGO0wOsr+wNU7rAccbw/yNJE36yAEtG05jJpHYN48wj1Mc4dIR9l/yT3LGOWFmnzPLb1BOdOoKP8us4R8jH259iewDfZ9PyrlTnjdD0yd1RdNEyfMk8BuK79bvzonIEa78c9zlx3cp/8hsT4F28IxAiD/A0RbChi48X58U1u7EAeTZXzywGpojaccb5SM1vjTYsF+uR5ohM8v8j+CqX7F/FXoYeXL3vuen2GPWJixIv7F6hxkfuWMjnVcATbtMPAWwgcz/uDdHWYfgGlvcS5Bw8M9K0HduvRA3thMMI6+yYWMsxIjGm7j6h7dCH9NG28dWHO/FmffdIbUubHfvM977nn4BHNwWat6mzcMPAX7gt55aoVnVhd0ef+4cO66vnXauPEtCZyRL8jrjwB684hCXPsG+AFCOHOec3zMbKn+06QT3J9np55Ruo49/hcPMM5M4jf4Jin9zWOz7/kYjVxBr9902f0gssuVxowcoDBLYFebPnrfwmwoy1n145Hd/k+TgXDJyDj+MHI8HV42B0cBDuFJUAuEDc5BkhnSmrTz6t+/p3Knne69sHg+ylkAeZcZn8Ffey2ztPvmkHn2jLlGSQD7K3pYKCXuOYX71a4v8mzyys9raysYLZaqlaL0S6PatWh5/FGT7sp6BO336UHDs+rg8T38mXVuoRJhGJUATv0NVMp6qzTN2vHI4+otgC1edY9s2KPFF2ncdYlYGlqlIplpT7eHA7/y63f14NHWlotbkPv0KJ2DRboq+K3J9rLKi8e06GvfUH/9Q9/Xz9zw4viV4kO0qv/9PFbtINedEtwXhk11PfyWVsn7BwqL15dgcKetDJY/tV4v9Ru4mdQ87l8CbNIR6lz2FzR+ZsnNdFY1Mpnv6Dhbbfrd37iLZqqNzRlz9vtN2G8jd4kaitR0wnIcdbUY8/3xU8/RE6A9s8flXA2/JXHGkZ5xd+iBOgqfkURPd7DHHm58tzWzdr2rp/Xx+YP68uP79BBJDE/tTE+Y+kPs/ftN2Da8sTv/khOfCgndClqmHqTGSUqxAn1YgFPdpTbdeL2umqHdim1fEwf/MBfK1cp+BNpwTS75tv62y/eqkdP1lWvEuGUpmEs9I/Fnz5lkeoNmZ62VbJ6+fMu1+c++hEd9Q+coS086x39HKszDEAqRQ7JzmpmakOsClOaGKDviel5APavgAxxrLxsJjujwdRpcPgGzVx1jf70Qx/Un3z08zpKH5a45RC261C5rP3pgna1MtrXLekAzx3oTWp/5Cnt709pH9t9/Wn2yT3nKe1sFLWzXmCbR2rKOpnfrPsO1fTg0YaO9srqTmzTqj8SS/jhwQ6r59g+Nfs8OaSZ41DbZCdvxtJsD93Tk63cgLgZaSYoju9k87B/r6VpD9zeMkTz1/8XSiXtyqe1B9V6OFfWbtT6Tmzydhyy/ZmqjkObA7R7P/11Hw/0q3qiV2G/qn2DSe0ZzGjXYKN2DLdgAjfrQGqT9rYoZ7mvw6tddfKe+qRe2vUg6u39tz6ohxaJfKY2q5XPaAHP3+/lx1oAoPSPrwxQ3/Yf4sXGcefM8PHXx6NMCjp4mxx62MPLWzog7vndjKp5q2+vJKnimFW0TGDfKE1p6vyLVSsUdeN3vq2/+PRntGzbSix6AGfhSKGqxfJGLeZmNV/Yovn8aVoqnKZGYSvPnIbNP01z5BPkefLJwulaqpyhE7nNWiDXSqdpobBZy8XNqPRJVN+UGuwv9/1TR8SZNDoGK9iOgV0D+KmA06lx57wzlmY7b/4RnhY3NwHaixISJ8+OZkpNsn8Dq48ENgF7kb4dnqzoaBUJL0/RVsxYZQbfYgq/YlqLpU34JDP0dTP92pr0u7CJTB84XijSx9KZ+CZn63jxLB2nz8cyG7DxU2oXp2G4xJTd/viSPnfXDj0EQY/nt2gpW1XDnaA9/jWgWFDpRSCA3UFCCwhWHwdp7E+PGdvZ9HnquXFKZ7tZZVp+YS2rQgHj7mEYj/hkree7eHhdwgvsVmWjJi55Mdw6qw9/b4++eQRb2ymo28U+QEUihEhe/tL355jtR3uIcGAV4i97dajDY7AeAO1TF9djYAKdQkfaDiW8ahR1Xtw4qeq5M6plG0gidhQmNJie0He5bbb+WJR/xyqb8acz/B1NX3NM7J8kwvpAKP8Mka2U7ZdVqKXVn5/wF/w8YFHol5Xr5JWlD2Ykx9WLOIQL0LVLhJFBQr0ubohzZk6xgKWIs1O0u53qEmVYSCxRtqHJIoPkt7XcFlOZ/vnt7FSLvR7gEqZtOUfZi66TBy+/tkf69L179N1dh9TEPPjDAp1YW0d9NiOu0UO8Lg5a+iuNRe4bmysLtL+k5MWMSbYJsfkwGNbM7qdbHUATWnRKsbbL8r3SwJXy5yVsyDjlEtuAt5SqIolbVL7sZRqe/xL9+afv01G/55L3l3axVf4cEaovxnmjkbSOcC0zGH+CAp/d3yZxg8OmAbBXp3DOw5teldJ02JAraPbs03T2tReqfPpEDCTZIbPkuo3+AoK/YVYn+32vHEzlAZpkGTJeLCquSbMMtkFPnBTKN9DO/gQFzzlELPQrAF2QPz7nRXYdwsTaVF6prcS47Kegi/qUHzNQ2GkcuaohpTEG2vFQvPM8wE5CVI8nJAPAJjT9i89u1Dlq0hY0SGVC1Quu1MYXvkZ34MZbYO7DU61VNmm5RYDr5VwwlT9oG19tsJ72G6swV6xSpTddD6DggMUoG8f+eYYEZNOfNgXYXAmQ3Rb3n7/mjOSn9LgagSzZVLUecFmRMvECnWdj6pkJrWan2VaD602AIGYY/nHmtLcQJToMUYaRfUzjkL52g0ZV/bVAiNmsqYQ2KXhxQmtJe/c+pu0H9+jt7/41FbZt0hJ21aoulYeYXeLsqVlNV6ejqfWVVehgh8gddu4jtag26vJCu2S1pGfPaClgZqg200HxtSEszLlhZlpV7HGf+H0Ruzg8fYNe/2vvUHoD9ZUzKpYgL/5LPlvEW+7T7h5tIArIwhw8lyb8S1w/pzHB1vUd+GE/5YowAc8s4Axun1vWZ765rCdW+3jnBWSezpUIWcODNlNaGk3TQCyyx9iT5cLUMq5uVE/y1YdRXmuLAR6VMTpiPxlDGev92KzlKHrUhWR/rA7jOE5xTI4Oe6rOn15GTfuWPhTuQvz4fgjME6/uePzHS4VRjR448cL89In92tA+rqXHvqPLz96i3/m936e/Od30wB26s3YY56en5W47Vks05peUXqqrTNsmCgWVvdAO3esfAx06ZIK4njIskL1gwG9EehqxiGaYhOE3w9gTpmW2rpX2CXV7TZUwGRe/4Pm69qd+Qoc7bX3m7nt1/8F7uLaoEh6zllfln1PIljejdSZjZK9fhzEo20Am2cCa2OtzQkivpwt/gaPVel3bd+2KwRIvD06GWk0sD55ww7OQrO5pBqV7a9DGKS6Mc3I8Dl3+Uea/gbYEeZ62TJjl+dBgPcD1zx/Z1iZA0yFsmbJeI1XFSgxVQaJnWouau/+betVlW/ULP/Vjuuqai3DICvrhn/1JlV94CV5wSg041j9mXklnVXXsiyr1oEcXBoCVoo4h6suDj/YH3JYiPobDmxw5PqNBsybaSDnM2E+hDbJN1VurymIyqqdtlc45U80NBRXPmlSrvKpuf1Eb4aMqGPo3MnrpCTQSmqxFW3gG60D3YVRa4G+gBNgeTVoHsunTsWmDRgbWtIrPd1k4kPIAGj8kbn+WkpX0yDNdV8uofWvtXA8yKiWkmUauZR9zLXk1xADjxbvTZnDHNV5pYin2umN7kfasUMdeVFglbp48cUQZYsJrZyf1373uBr32uivD6RxWs3rlO96ma978RlUvu1jLE2UdhZD1SknNUkE16q5ZUoLaiXqLxe3U7ew2xLQi2W3z0KlZIqY4EZ0c/sQAL/bYxrIWrz1XqUvOtCXSRvjw1RdepJ849wJdsgnpLTbjizrtoX9XBLvrfuHMlbJopGBcJBEmjP4nBGM7ToDqzKmY6DCwOfyDCf/eNexJjlAJ4L2ezfc/Gykk2mHG+qatJV8kJ16ePVeDnKjuMbjrt6H8A+jEuyaKkX8nw9+ODsfAzpo7Y4M5aOI3rKpcW1Dl6EEVDuzRe9/9G3rt865E8jwFii0H7VX444xXvkxXvuE1Sp21TUe4chTpXKKYOgB7CLdQKaP53E5PDZK5bo1iI2Eym/jun3muhfT5LZE0ZqFMNNErEnE87yJV3vwy5V9yVUzBpmt9XUhTf+nqa/RjP/wC7GdbbXIv08YyOYJIxye17Ee6+ADZO2tgj5LJMtr6VwZiTSmMCYWUJdLwZ7z8PbWY1Qn1TR4/8wynta/7rnGj87pdAx0SHYf+O8rrJTpy3Brq2dN+ftQMkvzeE2h5/tX7JsgAb3vlsCbqh1Tffb8qS8f07Rs/qIu2bXRjwrZ6ATCKksiLmD47oeKlV+nat/yk2qcTj09UiW9Lqk1PqjMxqf3HT6Aa7XQ5TEI9UoXrdnttKvxLeW0I2cS7704Sp07xPI7Udrzc/XjC593wak1eemkSr9LEyRLMibPoNzZfcc5p+lc//jr1ju7VTKqhSVR9zi/Y049W0z9WnqjgUMfr6RMCQI5QCyEhtOriQfvr/j20SdcS7LcgLOW+3YsrrN59/llImZ/4nfe85579JzXnV3K8utLqNRqYgOL1yt4bN7+PfUxe/eBonMMuhT4LZ9HMY88xWdvsr/FYbdOp0HnYTCR562BJJ+75ml565gb9ya//a11yOs6Zh4ogTCo3VIEQz+FE1gsHmzzvRYSTm3T+Fc/TtuddreO0a+7kSfXaPTzwKs7WEHu8ntTWMP50Y04NiFzP4t2ynYOYvQ0zmkZLXPDOn9PG61+uqXMvVBavl2BevToRehk7ms/EZznc99MLWV19zqU6ceiwllcWYvFDF+fNJsPrra2qE7BPAbu2He2HkNjT8nlAtVD4DRmvXrXf4eFKv5YT/XdZ48ct7TxtSv5/epvSoMTN/EvOs/Vu5JFtjksJ1yZ3jQocFeX7IrkidwoVZElKmufxYEs0DgyV+cWzydaCjtz5Jb3x0hn99z/xcl138ax5KqFqDFU51m4RFsLh/uIQ17xg9HgvpS/s3qOvzh3TnTh8e+n0SUBeyRWR2jydIUzETDimRr5jrL2ZTUBexXFaLBTV3LRJk9c+X7lXXK/tF5+jT+HBHyKGj/ppgMeULVU2+04znL+C7etOL+qnr7tcV59ZVFHLeMyrtks8kjiYERqxjU6Mw6T12eXnYVZ/F5Q0sArv+e0Y6iLHu2OeqRvV+0ynkOh7D5zQieU60lpA5twwGmypRS35hXY332ib0/zbGGucS2OTlmF9sIv+8RMPHoT0cl8ftWROpxBCqbaqeNaTS0elPQ/pilJPv/X2N+iGF78AdqEcnLRBPuVvwwIRVAkOJG6H+08i1P4C0Jce26eP3nOn7lw6oe3DjprFrHIbZ3TG5Rdp8qwtmjpzi5Ync9rXWdV8Macl1HT+oguUveoydS86X73zz1Xhiiu18SUv1+FNs/rszkP60j0PUM2scjNVeYVREeagwaFRrdu8DMhn7ByevqmMWclocbWuuRoeuePWEAxTyP1ka0kI74rjsSCYBj6FBI/DqPDM7WlzKRxGaJmzneaEpf+ZlujMm3/3Pe+5b/88QDdQc4UAMmwpKtpsmIQMSfJXAx0HR4fcYKsagPBymTRAZnmmj1SFTbaUxPs+Jgbeb6ehyslDKj6xE+drlz7xx7+jH7r0dJ7BD0534rXTJgziEcCi67ajkyrqBEU9Sl8///CC/v7OO3Viw5R25Ic6OltRt1xQFqBf/OpX6OKXXKv0tVeqOFXQo9j89kacpTPP0KWve422vPE1qr7wcnUuuFipC8/RiemCvrh3SX/37bu0nC/r4QMHlZk5Xds25TVJtQE1tPNiPJuPTL+tYialEtrmrKkppcol7T05Fwv8La3RZ4iUoc/GfQ3oMZ2cDILP2waboBYQskG2MJlSfjhA5rlnGujUh5aHw/fe/pgeA+x2xj8xWKA+cx4Uxp5mcIzcGH9w3AF+35KGLfdIDh4QeGaUaaMN/GYgdxYmNqiFvY9PAU5xz/JJvO+uthUyWr33m9oE2N/4yF9oa9FILtGurlYc+6ZnqNu/vJGPD8H6o0EeDXuQ/fd+a0m33XevTnRbqpy5WfOLR0Cgr0mkYOrYUR380hf0nQ/8tV5y/tlIRosHa6hJ1IBH7rJFLdLk7x6c03s/9QWlJk/XwZVezJW3N2ykm1m1sbvnbpzVz1x5ud7xvLI2g0UxoS/JO01ogor2ECcmYB9d+9ZcT3/xyS+rnt+sY+2i2u1OfBu1XKmq1emRuyEEhUpF7ZqnfWlEUN6FkkMTWJCSkNCjXkbWJicGlYy8s8M5zj4jv5IzZojY9x/XOUredSFEewnnuMGo2ZjEwK70mw04vqdJPMhZOD3NudL0BHyAtDVrqmJrzxiuav+tN+qq6az+5g9/W1vAIAqOgRNsK1zfGCzTGH+tN1ml4QUN2+GXf/javL63fb/qOGOl/CY1vSS6SrwLgTudHCoUhkGVrpaK6nmEzD8JATFiaDXPPvX4DcpUZVYneznt9Q+25GbVrG5SHe212GirUZ7WY7Webnpwh/7ujnp8r8RtoMvQjYdRqbFmrIDG4dAfvHv5bFb/4w0v09loowmiiA25gcrduhrHCBU7dZX8DppDMbJ/7S8kM8D8QWkU2fxTl5+BFBZ2LVORt+uTQY4fV4HrQp04DvY522e/NgqwWfY9+uQVpH3AHSDhaaSqyHaGzh/87i16w2Wn69/+5Kv10ktOi3VhATQ+gWd9cIGUg6DmZ49weZWGQf74HS3djh090iSEyc8om5mmfByuFgzSr8LASIullhBphdDoJBLQsLnwi+bErQEU9fhTof6WmT/6tkQ5y+UtqhenMBOUM4H+IIQbFqbwA4b6LH7Ajfc1ddiLxPy81S1tGwK2dZv10AT5EvJrz5rWT153tS7ZOq2JPn0l7JrmjuqgHS/ZFbpNNBPhGFS2eo4CnwR2Yo9H1B/lZyclkxrkNZDXt4Nkq7HmmcdNcCbqfGiVwnGRTngcub20qMUdjwDugirNY5pcPazJ+f0a7n5IL9xS1bt+/NV6zUsvp7I+RMPjBJAGADdjges0e5vVkn//LaudIP3F7W197pFHtB87WCO86aAx/JX7NCals9oK1V7CNhY9CgIHug9OffyFeO0UcD0HbZB9i98YShNeeeCi5dEoPPsYpMg5fOPhHqBjOvYvNfSZ+x/U5w8s6Q6eP5JH26B5hoNC/OC4x8q9Ysb98M8WvvzKSb3mqrN0xYaspppzOiPX1kRjXp0ju9U6sldFHMPKEND95gR0sm4MwE1sVK3tsS20fSNvkzmEZz4lvyKE2CajX+T1XBWNiRsgCtk3u7EOBcyxgDUBAH63auX4cen7d+ncmbw2DBeUPb5L+UM7NHnygN77u/9Or7/mEuU9O+T5Wex1hxBsGeem0c/TwTJynI+v4B5Hkm7fvqAPf+8u7cQrrfn7ycS0ddriTyHn/NuVVA89Y52XF/kL9WsbZxI5km7DjLZb/mV3ry72azTx9o1XXnJ96OVSBtojUQ32Mevppqf+ymoh6Q/hY3zw/gd047Hj2kmZVuNWXvHb5bTPg389gLPV3sC1115a0eued5429RaVnd+n5v5HtfrgHeoe3KUzJvLK9xrKo8o9eeOfeTwlTSawQ8FxhiufLaBd1ZpEj/JaO5zGYFv1+EYbZ29xsAx6fJnPW3ugOF6/+tZXSoe36+DH36/y4gF94QN/qYtPn4KjHH55jNkEwgxApDK23t8W8RJZL6bzNzs/fvtufeqbd2u1gBRNel7WUkDdHtWi7jqx9eT0dHyXw+uzq467q1P4A/7Bw35kl+0fX7L77NFXl9DtDON97hwMO7VpWoWZGQCG6AurOGRlvOocNr+rFgxQ3LhFT7QG+sAt39FHv7U9PnLnDwKHgzRKfofLL/15pnob+UevPEM//aPX6e6/+ysd+OQHUQV7dd1VF+vnf+L5SLRn07zwwuMD9GVNfQf1kWo8d1oeLwPEuWc+eVQDHBM5XqtifLA+m9i+2UDbTvsMRPcPdXphwCTA+OdmZ5pt/dVvvEtf+Mon9bf/4X/WbBHP3KoUAoeNR1W5UvvX+OTyD77OI1SWmv+C4/XFx4/rBOo8O4Fj54mPaYJbS0FzVW1sXy87VJNtF8JZ6fuboTp6QhvQ0zPYmNJINjoDj2ong20mazGXihCp31hWt3ZCPf/EYptzm85QHpuepn0Ocz371Ki3UBJ5Qr7NunfXnP78i4/Gct+GG+xgBMD9lSb3JDtsEpI1dDp9fPU1F+nmr9ykT33jZn3ipo/q3/7i2+LNnTIMbtWdTLSYjk7Q0eEX4LpAg+yo5VkDOsFxpLYNus+OGc4743ojHqSREdexRRqtuqN5SJ09b0RGm/oNvfSMWb3u6gt03cVbNZX1igh/Esq/SufJBKsniuN+42g76hWlH/p6XV97/JgOpgjP8JBrmIa+54EpMxqG+o6QreyVHD11KS/MR8v2L43t5B64xm3xlKF/ycf3ubXuZDJphjvlFS/A72+NxDAt5sILF1p4yn4NtoQ/4Pc1/Wt99e6kDiwPdd+RRX3sjqM6AGgeqGMT5Q5w1Mo8U0FlTxA1nEGge8PzL9UN15yrl182o8sQdb95aaD99YNkGZWB5mQQdgT0GOwx0L68lsYAjJMvRrSdHD4prb93dH10KpmmHFVy6kZuGqsYe51rW657a6LiSGRwZvzT//7JA7+NpF4dLLyc1jNIVu0ebHE5XWyUV1p4wKWkVWRxPlPUAap8CFH+2o6GPnvH3TpWr5n2wQxDq2S/4OXfE/LMF6rV0hY/OF5sq1lqqJZrqum1UIRVHtNOls6UacsE907QK+JYzvhsOtXCbiPliG0rh08QnjnAdajTn6PE7/ACSb/y5unLnD1yml5P53QUR+mm+x7SzY8d10Pwnl9YoGXcj3DEC/2IudsLnVKW3FGdFv4iGshLoG2bE7NoOvsOZz/DxmyTgj7OVBr61ffFShNX5uyzvoaZjPtMW2cLqO+jRm+jXCcEjyjAryJG2BrYWW14NMaqJComBcc701uP5vRcqBtJNticiw+kkWNRWjInSTVJI0Ld9u30QETbc3rpV0z8K5VW017E/wBE+8IjK7rx3ocBPq8+cXiHZ7pIexG7GT825ljbZKO+VBdnzr+B6cGWMiCz7RYHdMXOF2SlLx539ld+PJQbhKap7noqZSbqBNDtVJFW0o+MfQWbloEKiHyWAoYtCAmAHf9CXa6oPqHbUcraw7mP3nm/vr7vpI5zqU+5VjAD/5qA13d54mbUxsRXsIxSNx73sO/PcECPSKaxQTF4picFmV5BtzHQ7orv8z0G0aNczpZkt9z30U7f68fXA+1nXCbM4HUBsb7bYMd97Lpo78du7CXqwQXFTYAbhVrNEKKkcEZ6SIAn8L1CwvOrybe58WwhyiB+BpjGGjBAGKAF/HvKVnvAFEtdP/edQ7r5e/dpzu9Dn3aGilPEysWiBq2umosrFId9dn3YXk8/5qznk1iPp1GCgJqsWLFCjIbHX5PP3XX2lKVTfB1x7X6u+EY65LlkL7BLwkcXb/VJeQu4hx7GzcN8K3WcsQrxfEdfvONeffV7h7UK2DEuX6HfhUnKgiHNbJ5gofAGzEoUiFMPka2hHItT7inN6ewUxOWsBcm9cIM559Oje/0vOeZPgOA8us/XIvvecebY93ksfpQjjv5vJg+t0WkLdpTvwqwFXCCA2wONF8fofD1dVMvLVstTSNsMkkZsjHpr+mPtOb+UhvNF/szX9uqhnfvURTX6d6GOzS/EZEG2gBNW9ZAEvOsVkKO2egFDoZsjQ9Aukk7O+LeG4j1jOzPxSDClzzh7csm0cJPbaf/kAZ682z4aP3Y2wI6zvbh//eu4lXPO5iRWfhHAJyYBKqtsuYrv0NddxPcf/cJD8VtXNepsUnmDNvglQ2fLnH/nypFgboKIgP559ak1p2cATyW3LGmHB1TWQF5L3h91bF12X0MMHYdzxvunrtN4Xxtll+iJJZ9NmGSUnlrNOPk3K+Ipz7ywjcItGZ7IQLW0HKiCdh2C+sUzhySr3LNIbsDl/oU7v5f12FxfN371cX3v/ke12IQzkBT/rrI1m0HooBPN3x6+tIVw0/1CeQ7q5wmMDXSuCwW75QDac87rgXaj49OMbnz0MlGMHdrV9cCH5Tz8D3JwPbcYZE6PgfaS4VgY4DK8BNe/PEv/m72BTtabemDXHn3le9+LaXJ/B7TBs150b23l7EE1ay17/HUqP0Fc7kguccW4Mdrqwk/lU9CMzz01nboaBQTDcGywR/tjkH3N5xLll+iJ8LqT9JQKRs+OucczV3HZxIsLVjaed85CGNS4CYIUr+RTYX8ttQ5JDK5jZOd4EQ01v5qtIAn+2QOknzIa/mq+pdgDGrG0hhrLZdR9jyotae6gZ2TwiAe4S728Ur0Ckm5IzWxYLIdw0U83EDLjO4z7gODFF4I9Z2365u0khs0kh2pLQj9LsoEOP7Dl0RHKdtgIE7fJDYA+NL+oFfp8xtXPj0Ecv1jnbL/D23E/fWxmt8S3ceysufxJqTVQ7P+YoJbkkTTHu1JB5HFO0pPPJsAloCd0WevoU7KvRcnc4rviVJLYBpeP8ug4wPahk6cQDapBhjpd2MZvPxSqU9IZ58avuT1Avh+xfhj23g69HoQCD3G8B1ZvV6SLrztLE9vOVSdX0goE9LRswS/Sm7A+gKmynqQ36NEG/02AzuDhZvtIdQCNOQmtYoB4jt1YxB7yBNBOPOs9+0xd1KrtXfKVJDOEQXZ91OFn4/nkmeiw++ryOzBcw+9C0aZGm7afpVe9/UXaQX8epY8P079HyJ4zf4x+Pkp+nGt7uHacc35Bb2DHjrJCoscpaHoKslM5acKT0ujEWILXg500etzw8f7oOCSbXn9kYTh832179dgTxwlVKtgYf/+TG+yIeKwvXpvhGSc3zK/bxDAkBMWjThHLTmEMy4Om5o8c1LlnnKluo4HD3SDkJb6tIJl43Z1ORy2YogV71TzEVJkB6Kq6EK8VHiuFexTMKzxiCSjlN6GUJQoGyKMnJ5pIBCD1aEKPcGm6fkzDQ4/p6Ndv1Nc//yFdf9EWsDLI9gR4blAJtb2dPt+KmP3pB79MxEadop/wqt/oCJ1mbWUnze2KMMlE8jFt8j30Q6sLOIdZFQcdFWhXGSfLgz5ZGKbHcQqBqFSKMZVrlRnqH0Zu0b8n5leUndqkXmGSa6arBYUU9gq9iPZJviJkEpsZMIcIjx3bGG4GB1/fQGh57nRB1156ob7wiY/ryL49YOXlw9xnLnUBzjYafkskPO++JjxNuXYtUBxnUnLyVFp/eez54lzZSemaSDhRk1vP0AnatQyArcpGLWUntb8+QMr7OoF99c8kDSY2Kje9WQ2k01+Aju5FXRwUAccStop4rCwrv2kD4kAHMoQ7uM+dTPIigMMG/+BYkg2sieFvNiT/rO7xpUMVxxQld3giouivFcZMG+HPmlSPOuWbxjnS6MAzbTUYLluAB/JqwggreP+L3sLwtcKEasVpTNakFtIVzFURc1XSPP09SeUNnNOprWfilFcgG42JctcT0zKZyGdy7LT++qmUnEkaGJId+8nxeBPpyY+REgU/qsRptB2r7sijUzEyxoFVqycE2GQ83wvYHYC3/ep4bRaebY1ON0rTEGEKezyhBt530z96BtD+KZNVQO45DEGV+UfGwzFy8eZe7/stwhLlNtF7rsjXMn69FRgB2r8066FHv88VPyscQNueG+YBzIOUcZScSR73y+9FNIsX9edxKP3VAzt5azZpPaGc6Gc6zAJtMVMDsodr28SpltRuib7g4C2lMD/012AvZ6s6OQT83KRaHDc59i8DNemvHc5E6lyR66RBbMcKeLyfXCNHe7z1MXuj9iVXfZDk5Oqp4/UpOUrKDaBHd8dmXOBTU3Kav26fRwv8eBDADllabSTEoXkP79S/p9yGQPHWPpI+KKIuHY9yrmkPnTIcfoS6dIHhGLH1AIv3cxnoy3U7RJ5fdDM9I4VK9uxX2j89rDrmoq5iG4PIcwWYz8t+PP5sgvopw+wjD1HPol43dluqWpoB15NxztHpYDa24/7ZOQTouM/A0EcnfzAmvHbb6ixgW8JRw80MTiXH/iUdb1tIeifn76kWQ+e0IpKgHP4naVxxkk/BvXZDnE0Ox+fG15M8oG3+xIU/tR1xr9tpIfE+d1pVY+hwXnE8ewR8I4ZZS3E4Lm9d8hdyYhWSO+3CUdn+HJI5w6ANyD3y0J4zktABUC91t5Q3DTAwhP2HCXxP+AFhH8nhKUPcYDv2aZg/yRTOme+LtnsEroVv1NLiif1amdun+vEDah0/qBIAFvDQ0xDURSR2zgoRNc6zHkibWFlU79ATqh09om7TrfFrsJTtWN1b22V33qADsq/54+oph5MRcfgiW/odv9pnKQXY9gjkJira89b90iT7BfbzMHseDYT9tPO6pradXNb6zN+RKh4dxd9TaXyebdxnPOklWHidWvQhNC5XRubIlBsvU8oYaI5PVe/+jg+cYt8P04RRjuRN7PqGpHK/Ppqs+FyfKR7QYxrOku/MftwXj48KcuOigQk8SfYlgIMp/Ekqf9WwgFNULUO0r39ZtY99WPtv+qT2f/c76mNDPbFhDT7seIFxDgORxx3L4SihBVYb6hw7qu/87d9q14c/pIP798GrtGtkhsqOGKyiWxQAs0xMTsb0qdsxblO0MxrlkGXkMDmHeqcssr8yFAsIkPJY+85xeO0/yDYHLZ35Cz3MoskwtOkWp0+lOF5/EnrD2G2iEn/jLZIjFD+KNszh03j6uA/N/DvcU2jH1MdP2uveo4cPHse2+COlbhxPeJbJsShepvEYv3XhceShPdpokBtqIjRpZjMamrwfbbsW1Y86tG77pORzp7K7G8w0Lpf6HFL1W16E2NNEmU50V/XW17xMZxGNbam3tLW+og2Dtq466zQV/f0mLLS/N1rwa6jhRVMM3WjgEN59eEn7qxt0EF3+8CE88Xvv1/IKqn9yGqmgTnwNf1clxrwhpNsSI2bW8UFn/yHjiHlI1i3256tCK0Vyu9dvnZ56brQNeiQMNH4d1ueSkjCB1gRohPh1PMyW3ynfkO7onJlifPT1sx/7qBaPHIbH8AmaaFYvQJyoEJZi9np1DdormqmgVWpLOmPLzD+W6LWDsbSRg9/cCHKyWpE8vuzEM2tSGo23Okw6kSSuBRO4unXc7bKQ5Fg7PtqeOo9qZevPVk7h8PkNyoF/qgCVfvjgQe3ZdYBHh3re5Zt11ZVnqkjoY6vkJcKFFEgCsqPDYFKqq5YyeuHVG3TR+RLRjnbuOUCE2FV5g38vA8akjjTOpT/Q3m40Kdt9IHvpVGTa5mZHP8njECz6lmwS5nce93V8YZwoY9TnhD5JMu0cX8cy3zU6kp76+Lr9Qj5PdNtWvbYqf/WR2A6N1lIPKfYkkkO2Qauh02Ym9bwLL0yATqBcl8Yg/wCwPSyfqPBxHoHjbGLYmXI8HDHiumtOo02Sxr1I8qiGZEuHk1AE9ekwiPJ8l1Vjlzj+ew/t1Dfu36Gvs719fz8mSOowv2uzSQ3AqcujXB4R84cZVggQPGJ39x7pew/s027stV8wyBaKif+Cio0lERSQ9eQ1kjxeShuTueMc/oQT6jH6437aVxn3edTvJ/WdvHZufH6c3LMEZPfZhmL91XEalzTes3sXb3p4LIM6J/0TVJgb/zAcIgHQnCvl9UPPu1o3vPg6d+dUISZy1LuWxmfHMFjqDLhPP/nJpNfuhIcXR50OyfZ5pwTQtbzmDKzbws3B1dQUtp1zXsViLu3hcPhbmwZ6dZDXSrqq+w/N62O336EH55MhVw9B1qjaayCcPH7tMegltkco/vtz0lfvflD7jh3WELuVRipWa3UNbZvb2DQk3Ha75C/W85y/oOBvhODlJTmkOumrN8H4AaArHOf1YPoa2xHAie+R5OS6k/ud9NcM+gNttFOcGz9DqNkmtIQh/StF/sF107xcyKqM6i5mUwBf1Auuujy+zPzya64wRZ1c+PrSKTBh10gBNA0eq24DbjiSisfZKen42kqK6KRzXCK5jh+UR5IczTnVaXN4lo5UJsohffXlVTWbAD69VSe6We1pDvRYo6P3funb2t3AUyjxNH6VB+88WOIPuXms2ZJ8x/GB/ujvP6UHDx+MD7Fnq2V8LyTCIZz9EZwpv+vs129r9RomG9VnYP+RRCedSVqOdxt9NaGpbC1z3zgHHSwgiZCs5YQgpHV0CAxOXVmf/tE5yigVCqqisl328tKiaivLajXqqkCz5191hf7F296qa684W5vQZiOgn5JcX6SkU/4fckbhAcmosaekmmQu9z3BBInNXbPnT0ou3NWe2vrJZN85AdlgG2i/T+xPYww9310BxamN2FbuK29QZ/Y0HSpUdNfcvP7ow5/T63753fr9P/tAfIHQ7023wc9q/ev7a3rf7bdrB9phtZBD6jvJ6zTs5zbMKu0X3wDavxLrty1yrgvALdEBrl/cD5BHOVqcMHVM7cAUzmtfPIjMfSOAx4Ixpk1IddCGFLTmj6U6DuLEP5nGd1TKxO0w5MLcceWJIKYmqjijOc1OTer5z7tKb3vrW3T+GZMqcbM18JrqTv6OcnJiLUXVa+fcyaSxp1TUqRywmRHW9jkd156S1jTIqOkjbj7lyHibkl9ka/Q7apswOEzhiWZxtvITAFAE0JxWpma0B/W7iKf9rcd36I//rw/HLJIl+fbt8/rC/Q/qIVR0C8erU60irQAR4+rY/Pg8MpGFgQWUWqMW2/gCxFo2wKN99yW2CQ0Shk7WqZ1i8FMAj2kVecT4psuYXpHWSDGiwZPy+pQ86TTAlPmlvFKxgKpOaxpV/abX3aCfe/tb9dofeYUuO3c6vgEOxeIdMn9DTh1PIhBC0G0O6pQ3IoTjTMKIGCAgMG/DOV6S2/U3STzm7Jmi0cC5ba551nGlf1LIcbU/JRE2Ltxf34ctXJ/Hn0tyjnvIbsP68Wvw9nhYYv+41qd9Q3uWbL1MqQdBsxWcsVnpnOfp4PTZ+siek3r/w6v6yMM1ffHRg3rkSA3NUEZi/Wq7Q0MPYNARwEg+rIMKpz09shcmdWlP8qkPKneI5rcATCivcAmwkjF3D8nGb3rR32T1SnJLfEECDRBfSYJJTn2NOLk+vifRDpb+cZ+9jyaLjwa4jTYpbA04tztW93tvHg4x02Txrieh4QWzRb3uBZfo7a98od76sov1w5du0GaewoLFciov3E39Tbxkt1/7Dh6Kxq4Qm5amptUFuJ6HAl1JjtvdP+/zP0k+4YY6j/edfIMl0ml889pD/+301FtHUhAXQtK9O75pVDcS6qE+L6d1SOYcLQpmMwCOd/2sn3tqdmLrB9bSqM61yz4eHYydyDVnctz/tZtH2x+U1lcyum+tL6RY9+WpOQD2aX8RwQzexQGBGWbyQ503W9W1527TNz7195rf/qDOnK7gVV+rt7z+Bp21bSJU9bhFlBJgW6pTfzlvoPfp4JGjmKmc6v5Ni1IlBvA9huDRHX+WYX0Tk2JcnFVSoqqTcxzRcEv2c+mfkTxA5FUwXoxm82JRNNDWdIRwM2zPmCjohQD95Q+9D6lt63U/fK3e8NIX6YrzNqjgx4AhvgHOs/5pBrOKAU+9b2U4/KvbTmj/gYMUjHpGFfqzSl5QYCuTTD4AntX4WhoDyzmrv7VjagqpcwOfS/+c5FjYdLWfEKrdjh4a2295TAP2OVNlvfzyi/TwrV/S5Zun9LofeqGuPntSk77HzwOD55ziG2aeHOKc0Uj9XR2gv76snbv3cgPq2riNJiZi/JZbvaQn1DeAJxAmUpw4Gae2iZuR+JfPpaefUkhsH98jY58FifRiZH8FyVPy/pD8Bmz+RZtn9Ybrrtbw+FFdsmFCV55R1Wabc9yWfIguOeQOIL1gIlDm/wdR3R/89l7t3rsfkCl4FNbYCUghzQa/hWea9YJ3zj/Jo3YeSfQa0Nzj7XPp6SeHZgOcQ0/HZ0DNryq3PZkD6I7XZwD8oi0b9MYfvk7nTaV0dkXaCFT+2aQUfmlM9o2TcYkRPvZT0v8NuuM0prfcjgAAAAAASUVORK5CYII=;" vertex="1" parent="D9mL_kNJqEYYvsfLAUP1-133">
          <mxGeometry x="135.70999999999998" y="226" width="49.59" height="50" as="geometry" />
        </mxCell>
        <mxCell id="D9mL_kNJqEYYvsfLAUP1-77" value="" style="group;rotation=-90;" vertex="1" connectable="0" parent="D9mL_kNJqEYYvsfLAUP1-133">
          <mxGeometry x="325.71" y="221" width="7.080000000000041" height="70" as="geometry" />
        </mxCell>
        <mxCell id="D9mL_kNJqEYYvsfLAUP1-75" value="" style="endArrow=async;html=1;rounded=0;endFill=1;strokeColor=#00FF00;" edge="1" parent="D9mL_kNJqEYYvsfLAUP1-77">
          <mxGeometry width="50" height="50" relative="1" as="geometry">
            <mxPoint x="-31" y="31" as="sourcePoint" />
            <mxPoint x="39" y="31" as="targetPoint" />
          </mxGeometry>
        </mxCell>
        <mxCell id="D9mL_kNJqEYYvsfLAUP1-76" value="" style="endArrow=async;html=1;rounded=0;endFill=1;strokeColor=#FF8000;" edge="1" parent="D9mL_kNJqEYYvsfLAUP1-77">
          <mxGeometry width="50" height="50" relative="1" as="geometry">
            <mxPoint x="37" y="39" as="sourcePoint" />
            <mxPoint x="-28" y="39" as="targetPoint" />
          </mxGeometry>
        </mxCell>
        <mxCell id="D9mL_kNJqEYYvsfLAUP1-79" value="" style="points=[[0.35,0,0],[0.98,0.51,0],[1,0.71,0],[0.67,1,0],[0,0.795,0],[0,0.65,0]];verticalLabelPosition=bottom;sketch=0;html=1;verticalAlign=top;aspect=fixed;align=center;pointerEvents=1;shape=mxgraph.cisco19.user;fillColor=#005073;strokeColor=none;" vertex="1" parent="D9mL_kNJqEYYvsfLAUP1-133">
          <mxGeometry x="85.00000000000001" y="366" width="50" height="50" as="geometry" />
        </mxCell>
        <mxCell id="D9mL_kNJqEYYvsfLAUP1-82" value="" style="group" vertex="1" connectable="0" parent="D9mL_kNJqEYYvsfLAUP1-133">
          <mxGeometry x="465.71000000000004" y="16" width="58.5" height="72" as="geometry" />
        </mxCell>
        <mxCell id="D9mL_kNJqEYYvsfLAUP1-78" value="" style="points=[[0.35,0,0],[0.98,0.51,0],[1,0.71,0],[0.67,1,0],[0,0.795,0],[0,0.65,0]];verticalLabelPosition=bottom;sketch=0;html=1;verticalAlign=top;aspect=fixed;align=center;pointerEvents=1;shape=mxgraph.cisco19.user;fillColor=#005073;strokeColor=none;" vertex="1" parent="D9mL_kNJqEYYvsfLAUP1-82">
          <mxGeometry x="7" width="50" height="50" as="geometry" />
        </mxCell>
        <mxCell id="D9mL_kNJqEYYvsfLAUP1-81" value="German Client" style="text;strokeColor=none;align=center;fillColor=none;html=1;verticalAlign=middle;whiteSpace=wrap;rounded=0;" vertex="1" parent="D9mL_kNJqEYYvsfLAUP1-82">
          <mxGeometry y="52" width="58.5" height="20" as="geometry" />
        </mxCell>
        <mxCell id="D9mL_kNJqEYYvsfLAUP1-83" value="" style="endArrow=classic;startArrow=classic;html=1;rounded=0;strokeColor=#1120e8;dashed=1;dashPattern=8 8;" edge="1" parent="D9mL_kNJqEYYvsfLAUP1-133">
          <mxGeometry width="50" height="50" relative="1" as="geometry">
            <mxPoint x="185.70999999999998" y="36.52000000000001" as="sourcePoint" />
            <mxPoint x="335.71" y="37" as="targetPoint" />
          </mxGeometry>
        </mxCell>
        <mxCell id="D9mL_kNJqEYYvsfLAUP1-85" value="" style="image;aspect=fixed;html=1;points=[];align=center;fontSize=12;image=img/lib/azure2/networking/Azure_Firewall_Manager.svg;" vertex="1" parent="D9mL_kNJqEYYvsfLAUP1-133">
          <mxGeometry x="342.71" y="23" width="50.17" height="43" as="geometry" />
        </mxCell>
        <mxCell id="D9mL_kNJqEYYvsfLAUP1-86" value="" style="endArrow=classic;html=1;rounded=0;entryX=0.011;entryY=0.583;entryDx=0;entryDy=0;entryPerimeter=0;" edge="1" parent="D9mL_kNJqEYYvsfLAUP1-133" source="D9mL_kNJqEYYvsfLAUP1-85" target="D9mL_kNJqEYYvsfLAUP1-78">
          <mxGeometry width="50" height="50" relative="1" as="geometry">
            <mxPoint x="385.71" y="166" as="sourcePoint" />
            <mxPoint x="465.71000000000004" y="46" as="targetPoint" />
          </mxGeometry>
        </mxCell>
        <mxCell id="D9mL_kNJqEYYvsfLAUP1-87" value="WAN" style="text;strokeColor=none;align=center;fillColor=none;html=1;verticalAlign=middle;whiteSpace=wrap;rounded=0;" vertex="1" parent="D9mL_kNJqEYYvsfLAUP1-133">
          <mxGeometry x="223.70999999999998" y="36" width="60" height="20" as="geometry" />
        </mxCell>
        <mxCell id="D9mL_kNJqEYYvsfLAUP1-88" value="" style="points=[[0.35,0,0],[0.98,0.51,0],[1,0.71,0],[0.67,1,0],[0,0.795,0],[0,0.65,0]];verticalLabelPosition=bottom;sketch=0;html=1;verticalAlign=top;aspect=fixed;align=center;pointerEvents=1;shape=mxgraph.cisco19.user;fillColor=#005073;strokeColor=none;" vertex="1" parent="D9mL_kNJqEYYvsfLAUP1-133">
          <mxGeometry x="172.70999999999998" y="366" width="50" height="50" as="geometry" />
        </mxCell>
        <mxCell id="D9mL_kNJqEYYvsfLAUP1-89" value="User" style="text;strokeColor=none;align=center;fillColor=none;html=1;verticalAlign=middle;whiteSpace=wrap;rounded=0;" vertex="1" parent="D9mL_kNJqEYYvsfLAUP1-133">
          <mxGeometry x="80.00000000000001" y="416" width="60" height="20" as="geometry" />
        </mxCell>
        <mxCell id="D9mL_kNJqEYYvsfLAUP1-90" value="Client" style="text;strokeColor=none;align=center;fillColor=none;html=1;verticalAlign=middle;whiteSpace=wrap;rounded=0;" vertex="1" parent="D9mL_kNJqEYYvsfLAUP1-133">
          <mxGeometry x="167.70999999999998" y="416" width="60" height="20" as="geometry" />
        </mxCell>
        <mxCell id="D9mL_kNJqEYYvsfLAUP1-91" value="" style="endArrow=classic;html=1;rounded=0;entryX=0.41;entryY=0.989;entryDx=0;entryDy=0;entryPerimeter=0;exitX=0.254;exitY=0;exitDx=0;exitDy=0;exitPerimeter=0;" edge="1" parent="D9mL_kNJqEYYvsfLAUP1-133" source="D9mL_kNJqEYYvsfLAUP1-79" target="D9mL_kNJqEYYvsfLAUP1-62">
          <mxGeometry width="50" height="50" relative="1" as="geometry">
            <mxPoint x="80.50000000000001" y="366" as="sourcePoint" />
            <mxPoint x="80.71" y="256" as="targetPoint" />
            <Array as="points">
              <mxPoint x="97.71" y="316" />
              <mxPoint x="155.70999999999998" y="316" />
            </Array>
          </mxGeometry>
        </mxCell>
        <mxCell id="D9mL_kNJqEYYvsfLAUP1-92" value="" style="endArrow=classic;html=1;rounded=0;entryX=0.41;entryY=0.989;entryDx=0;entryDy=0;entryPerimeter=0;exitX=0.46;exitY=0;exitDx=0;exitDy=0;exitPerimeter=0;" edge="1" parent="D9mL_kNJqEYYvsfLAUP1-133" source="D9mL_kNJqEYYvsfLAUP1-88">
          <mxGeometry width="50" height="50" relative="1" as="geometry">
            <mxPoint x="87.71" y="367" as="sourcePoint" />
            <mxPoint x="167.70999999999998" y="276" as="targetPoint" />
            <Array as="points">
              <mxPoint x="195.70999999999998" y="316" />
              <mxPoint x="167.70999999999998" y="316" />
            </Array>
          </mxGeometry>
        </mxCell>
        <mxCell id="D9mL_kNJqEYYvsfLAUP1-120" value="Network Switch" style="text;strokeColor=none;align=center;fillColor=none;html=1;verticalAlign=middle;whiteSpace=wrap;rounded=0;" vertex="1" parent="D9mL_kNJqEYYvsfLAUP1-133">
          <mxGeometry x="85.00000000000001" y="276" width="64" height="20" as="geometry" />
        </mxCell>
        <mxCell id="D9mL_kNJqEYYvsfLAUP1-122" value="Company Network" style="text;strokeColor=none;align=center;fillColor=none;html=1;verticalAlign=middle;whiteSpace=wrap;rounded=0;" vertex="1" parent="D9mL_kNJqEYYvsfLAUP1-133">
          <mxGeometry x="562.9200000000001" y="109" width="105.79" height="30" as="geometry" />
        </mxCell>
        <mxCell id="D9mL_kNJqEYYvsfLAUP1-73" value="" style="rounded=0;whiteSpace=wrap;html=1;dashed=1;dashPattern=8 8;strokeColor=#00FF80;" vertex="1" parent="D9mL_kNJqEYYvsfLAUP1-133">
          <mxGeometry x="258.71" y="200" width="410" height="266" as="geometry" />
        </mxCell>
        <mxCell id="D9mL_kNJqEYYvsfLAUP1-59" value="" style="shape=image;html=1;verticalAlign=top;verticalLabelPosition=bottom;labelBackgroundColor=#ffffff;imageAspect=0;aspect=fixed;image=https://cdn2.iconfinder.com/data/icons/whcompare-isometric-web-hosting-servers/50/firewall-server-128.png" vertex="1" parent="D9mL_kNJqEYYvsfLAUP1-133">
          <mxGeometry x="539.71" y="226" width="50" height="50" as="geometry" />
        </mxCell>
        <mxCell id="D9mL_kNJqEYYvsfLAUP1-60" value="IDS/IPS" style="text;strokeColor=none;align=center;fillColor=none;html=1;verticalAlign=middle;whiteSpace=wrap;rounded=0;" vertex="1" parent="D9mL_kNJqEYYvsfLAUP1-133">
          <mxGeometry x="542.71" y="272" width="50" height="20" as="geometry" />
        </mxCell>
        <mxCell id="D9mL_kNJqEYYvsfLAUP1-63" value="" style="shape=image;verticalLabelPosition=bottom;labelBackgroundColor=default;verticalAlign=top;aspect=fixed;imageAspect=0;image=data:image/png,iVBORw0KGgoAAAANSUhEUgAAAHoAAAB7CAYAAAC7BZRBAAAAAXNSR0IArs4c6QAAAARnQU1BAACxjwv8YQUAAAAJcEhZcwAAEnQAABJ0Ad5mH3gAAABhaVRYdFNuaXBNZXRhZGF0YQAAAAAAeyJjbGlwUG9pbnRzIjpbeyJ4IjowLCJ5IjowfSx7IngiOjEyMywieSI6MH0seyJ4IjoxMjMsInkiOjEyNH0seyJ4IjowLCJ5IjoxMjR9XX0VeeP9AABrEklEQVR4Xu29d7yt11nn99u9nnqrdNV7l2XLlsFFNljuGGOMDQzGQ8lgJhOGCZgAgcQEJmQGhsAwTIyxwTa4W3KViyzLclW3unR70e3nnnvq7jXf3/Pufe6RMJmISJ/8o3XvOm9f5fk9da31vjs1GJIkpchSj21PGvaTrDRbcirLflaDftpnxjerz62DVF/dgtTVQENyWXnlh6MbnktPLxmI9dsfRMY4N7ohgBvdtP7Z0akB2wYwtjmXGvaabDhKsUmTDfs4G1VuNuQtdrrkMoDnhzlOZuALLlLREkDPc49v30Se8APPpaefIPladhoBFmm8P94ORttx8vn1z5KGQLTKfS3kNDXsA3RI77rkh0a5y8YANwLuvDICVZK5BIFWh3tW2Tpb7qvkEvm59PSTSW5hCXnjYIzb+jzG19tQxeQ092bIoW2dOGe5TY1O9EOOB50EaMu5n/ZT3DBk2+GwTfU9TtT6LWUz5QDe0rvjSEO1dFlNuMYF+dFKmT/sUMJz6Z+RTDeD7K0xNCTjbQA72jqlwWjgiwaR8zmOs2xT3BByy7bA9VyjrakU+ng47AM0Z0YX4ylEs8e2Q5VtTllyDbC3+7jv3oN13b3nkBZTJdWQ3zS6IdcrqlQpqt5fUTftp55LTz8NEKk+VB/E3hCRHKBD+6PtgO3Q57kjk8lqOAAwHKUU2zwinQXHlB0nsu+aHLZ0dqGtyzfkuSfxxULUg33WJXOSVXOd/SXyXvC7+4h058GT2jG3qGa6pE6mpFw3rWw3o3Q2rXaqo17GXPNcevrJACQSNwZ1kDLQgBz7yTkgib8GOt3vKoMI57mSHQBwr2OWUDGb0cZ8XxdWe5puHVeqB9BjdeBkO4sjndQ3Sgv4XjsQ6dsOSN862NFDtZZWuLOrHFyXCxVBmer0aSA6pIc6fy7989IQ3es8luhIRtZ5fTJoo4xsg0FfmV6b3FEB+k9XS9pWTSl97DH1Dj2kVGcUXrlIl5VZV0CPkzV2D7H9xkHpq7s7enh+WXPZovKTE2q24AcADvtAbnV7GmYJw1zYc+mflcaYhv11Gp8Y09Tnx4LPthAg91TEsGY6zdifKOa0YbKi0gAT+7VPKVM7bKDbSPQA2SRGRlcPOygFVIULnyc/gUf24Ir093cc1W5CqnoGO4y6HhBbp0bx8hAVMEj3UDE+ti//HNL/rARwVoZpQOwhaEOjPfKZ0s4mr89jhrO4VkVuLvSxp81VVbmex2GeRpy3zEyqhM3++Iffhzc9r+npnFKt4SoSbQcgA0dwIlMQfriOEy/tRl0/uCjdsuOY9vZTOpGrqJvKR3Yae4j9NKxC6wYcYSni2nPp6afwk6B5DqJmMJf2rLGG6nAO8xsgO4zKc2PZ8tRp4AjXVIH2WydLuuiMGU1w/tCeA/ruN27VieOHuKmlidmSUs1hDe0+AGqkdJDFwZIex/O6Y29HO5o97R9k9Pjxk2rlywTeee7LJLYjpHeUDXjk1JqUP5eefjLOdoBDTY+VolX0SE2b1DmkuAiYwxYgdxuazqd1xuyEymjVxSMHVJ8/pvnDBzW/ewfizs3DtiamykqtDJdQ3WkYaUJ1CtuN3f3qXun2gwva0x1ooTw5asG4stGOgTbLuUU91Dhcl+WSpXzcxufS00sEL+pZWZqABtekdvLxSH4caFnc1K4pP+xoC5K8bWZCB3c+qj3fv1s6ijOFQxaOk6VvALJTVaXmmrVhqliJ8GkP6v42HK7b95/UEymfy6mVpuY8nDGOzteyazbHZMAetc+psSoftem59DQT1jEilvCOx4KF9FqKQ756SFOnRaiELS7lVC2k0cM9dZYXtPO2W8JWq4ukYsxT5aKGK9hd1PrU9IRSDZzuBmV8nzK+vLelz923XcczU0ptOkddam6vYhyoCDbiIRsKsr0BVHQW5ywNyEMuJgG9T1usfd9z6WmnIQ7x0E5uIix2vjzaFQa634k4uZjBPiOtZS6csbmqk0fndN+nPyHhZatBjNRFWh0wh1FH+gYtzUwVkWjiq72I861H6rrlyFHtrPXUrmzW0gDHvTUEvryqE3m1iNEGKHgr+QxAZ0F1DHQ3nSOjUBwDArJntJ5LTz9lANoTRuleCpw8w+ARL8sZYmSaI2RFNHIJb23T1ISOPLFPOx95SL2jOF0G2CmGswHaYA9tT3vaMIONvn95ODyASO8hhDqA87VKHNxAelfMFDyXpqLgKp6HmSLOzlqlkELDcI2ITB1LPcnmxCr8ufT0U+LQjoTRdIaYRbCwF24lOjCWPeJlwHzsoQe049GHVDt2LBF/zmXxm4bdboyY5XJEUIA2UAfVXVHq5rnh8L7DPa0s1/CvkFeAXu731S8VNeBmlz1s45NjiwtUZocrR/ZgSgfk29iQZDsEYIJ3GCL3nED/s5LHsB3R9JGelEe6oHEBKUtbSlHdGSTUsXO5kNNNn/qEdm1/DF+rx3EBhiDs7XTU5zgN4Lkc5hSu6fDMxAzO2CeODocf+sbj2nfgIGo3I0y5lnkgP4m3ncnGaFea4LyAWjGAMaQO1/VpRBfR7VKxpdqOhK9lcNoMeMJmTt46vn7ycZLYPkX6kyvJSbpLmVTAYS/Vg7k8WI86o/wsXBuEITtqUCqHv4i/EFWnlYJAXVSd/+UHfZ6xfnI7kzFj98HtXHMg2Q7548fdnySb8ElrHDZGRBE52ff9Hj+wyRqnpP1Op/YirYWdyfbJ9BgnT1bkuGZK9pPcR4XjReepcEOlqLM3bdD5Z5ymmz93kw7s2YmWpm+5rPIAXat5HDOlPGFwGlr0rBog3+TspFIfPTkc/s1t+7XjwBPqIM1tiNCmUcMstgJw3QeEdg3AARWaUwysieH2+z6Pqrn547HapAMGAhDG2+hscpycM5Tsm5JraUwC12enowLXDrSqGoyFjbEXybUSQA+47hGkLvF/pjCB85hVt8vzqazKM0QNvRUIhaaCUNO2PdTT4Vo3zf3uF30KczQC3P1y7uEFRajDNumjJQyfhIMsHbdW875HBLvZDsxuXZukpO3jPiVH4/4m/SebgUbnYhvnfZTU4+xFA0Ma16ftOdqeRapnaM/Z05O69tKL9LlPfVSH9+2ifaZ30u6kTGOBeEQBLnqgKcKv1IcXh8O/vu2QHj14UE1UdSdlqaCXHpqhM+4Dj/C49fGAzkMIUyfaljQyQ8E5RNxV9T1Clra0hezHk2vgutzx/lpen0ydUzlFYzOAl6L8bgHHokiGuIVGS7lmUz0ThTbnilX1h3lAT+5N0e6mDRqOqNLoKKR5mqpWV2vq50t0CMOHlsqNgV7HxBHi0MSYmPEwVDSRPwaDiy47x9aTOCZiJ9t9EtBO8ci4b+5K7J8CNzJgr+1HJo1ABjPh4yaExwk23XMAvYHbzp2a1AsvuVCf/9RHdHTvjhiVdHbzkjJpPA+noYWZl15pGqDTLnRclXOSonWjlJx1IyNHYU6jJ0bcmXTCKtFxtUMEKvO+wXUrnKMyxMFeeRrQ0gT2nrvOAEYGac0619fyMLsK0RcBGZVkynoMHs+v2yMiSE1jwCbVzXkOvKV2fwHpPap875CqnYOaGhxXqjkX9WTo8UobMIoTHMPAJkaacsgdchuvp+WMUWyh8nv2PgPkMXG8JQdBE8L2yDYB6X5Rue7EulzF0a0iIGVyCUYt8liBjDod4CARPgXDj+kSyfRen5/5RG1O/1RFBpYzYzBj69MmwihzPuZKyaGeYcME7FGmQ+bSU2kENDY3gM4AtKUu0xyBPQI6B7jOBtnZDOGpsg71DQgXsrOAP6VeroBwtpHuZbh2To35x3Tiga9o+eHbVagfVaG9jG7vAEoWgQRkL3QEoMj4JAPA7ZG7AN23m2sPyCC7K85jsN3zEdgBNLrfY/vpgYGeDJANcIDcrbCtADJg9w32CGiHTpY26JOATA6C+s84PzvJXTGEcfDkNAZnPci2WWsUGG2T/eS6AffAiR0Kz5KSzcFszclj8EMveXFhLDAcZ+6zZ9fxltwBFAxlOGMxIgTQPYDOcIzX2QCUdsTrXcKQrqZ7NVVPHlTvkTulb39Z6WN7dNVUXpv7TeXbqyp4gLgDM42cskgjWq/tJFwdKjoWPoYO95bLfsxkCrAT89XODdUk2vDiuySnIred3RVsagem6bL1ih3P7oWDR13+F+VFXr9PfhYSTSBReAob5T6sdTpS0qhTeQzsKYAjR+OhhTtioAHWEuR9kKH8BGBzcwa1ngPgHLY3D7iFbg7Tm1MJYMudvCrO7VEG9AkIXWwj+cSHMbY+WXV8gSPW0bBF8D9oaEs1q02DuuZv/7L03a/rBZeeo8Nffr/+z3/9Br32yos0iw1tNxaVmihGc8I1f3I3kz8jkNPkDCBnu2zNbAbbPDXmERs/QI44M49kY1YGbIccDzk/BPzQ0N4m3U+y6TTKTv4blKQYO7Mu1sfPRopyExidEjiT5DPJ2fEdSQPXmjfaX38PJcQl9kacPxYS57g3LiWeYQJ8An7kfm6U83i3zmiGlgdYs8pmk9WnyTAfKr6ITOBTpRtLWt75mHbhherAbv3kT/6YPvmf/6NQ7NpG/vEXn6vXPO9yVepLKrdqgAfTeOTI838xgkSD3HAnthkamsGxDIcLsPNsC7FNnLzoiOng/rifdsTwvNdyxluYMrxYayCykRyp/USa7LYm9TlHUc5BKF945lMi0aMak/0npwT6pCmJRLO/duP6fe61oxV2F5ubXZexw0MI0IcAvWwPDU1Ygo3rov48omb11sFetonb23jEzi1v00W1VYJ5JjGdSKNjqRq2uLms2e6ytqzOq7x3p2p3fEc6flxvf+Ob9G9+8Rd03oVnR3vc2rNhhp+4+jT96x+6VpuOHtLm1VVNt7poix7apAcz9QEQMEYqPegcDG3fAsMBI2YB2cO91kTpsbnxFm/d62SVWj2V0zBiCh/DoWAKU5HydWji6T3bgPBPEnontBsJkfOaID3zybRYqypgNYc/KSUVJ2A/NZ9K8bSBDo6mgyOAlV2XfQ2Qh+QBQCc0sw3D+8X2dgjpxkC3M4UAup+bUGdYxkzTVKQwA5Fm+w1VF48od2CHUo88ID38kH76hhv06z/zs3rp868OoXN7CjRnhu3z0fY/d/km/exlF+sCiDnd7mqyA9jdvorY/RxApwDaNBgT3arJcbxDxyxgJ+aGDMhpjxa58UEr+pnChKyBPQI6ZaB9bR3QdkBtAyLySKR6TNdkG7vPShoBfSqtVRjbZN+cliInq8ucSXGJ/VB9lvXE/QqVGJkOjZaeRvYoTcx60WkcqITDTYQRA1jdWQK8n2MfNTjM9gE6j6OdpwjKBJTpUkFVmGTxyF4d2v6QegvHdcXF5+n3/t2/1YtfcHWytplmuHlVeueXCfIUdwZg/8rbLtE1556h04qU4SHGdgPat+kbtjXsqbd41PiBrXxa9VxaTRixjSfeR+O4l2MpN9gpQM949Wsb+pDTtudmSGc7csEQZO7HaaHvblUQLkkGG3XucYdYoeN2mIbPQvonVPdoz6pkpE4yOXvQIwCTUzSe/ZHa84BDnnstRXlAcS4AuHMMQUbu4cN4FobY1mDjEWtgcNn3IHlnCYCRgiIMkbNG6MUQYKY8qbQHOhoN9Zp1nKOmVh9/QMNdj+qFl12gO2/7pC47dwsENjOQSfhCMbNqs+kx+knoPUWb3/zKs/Syqy7XbD6j5uK8Oo1V+sYFgI3RE0udHy7ncLCsaexNA3Q+h59m0BIpz+NTVAiXqvgRlWZaZQR4AodyopdXGfBLRA5FruWJnfNekTcOqQJsUnCjM+0NdQ7IAO5Rrmcj0fIkjapfl8Znkq0FN5OD1fOQz7GmmcNsgtqNUZdBV33UYSq81mzkVOSE++3Juk9pj0KRS4U8IQ8OlmNXS7pVmgluQofUs42BFfaaDfwmGGZqSrlsVh3Crctf9Ur9yh//of7XP/qDJDSGjuFR2zXuElfXzRADpB+pphoL2DLKY2ajdOkV0tXPv0oXXny+JqarxODU5Ql7b90ezw362A3m4XTZvsJAbU8Fcj2dw8z0OoTnvehjPlWGT8r0q0ARHpHiGfIQie+2BjBTF3kwHd1Ab0d5DegR2NTxrEn0aPv/mKyyuxC73zMINMpbL1exXcPzzKHeYhUE1O6iLFuaJk+RJyEQNlZVzlfQ6GVykU7ncZ57hLWUhVctiGH7pwxSi6SIsMYCL5ylBHRLPRqjUMSBy2mJelYqkzrUH+oz99yld/zmH2jn0TkaEA9RRgcp6kNsNA1FLXP2+ws1feBb9+mvv75fn7r7iO56YocOtZe1TPkdmxVrLg/7OlvqPD/rDFP16itYnqZSk0WcxK4atGdQcbzcVw3mrxcmtJqrahEJX6EftVRB9WxJ7XxFw9KEVJmCQeC2NY402anDmI5MX9DV9Pz/E+hIqOwQYHKoa6tw7NwQSfYUWgpi2Yb10xWIhQvknJ5BHU1he6ZQexNsuUZO2XI6fFIRHocA1gCdZCGDTXVEJwbcBLcazSWAN5otrXb6ahYrmoNo98/N6aa779RNX/ycjhE+RShjoM0clk7Uvum2Si93dur6/GMP6POP3KNv7n9U25eP6SQsSAjPc+4YN1k1u4g2f3omPvvWEO4jNnSY50SRbDMToVQfTZFWC5B7eZyAbJm2svV+hijB8V/EgM5U5DW7BjoGnU4lO8DBlKagQX8WksuODtlCRxUG8klpdCULJNjprJG2yom20mHU2ZCchhhYNM7bubJ9tRQ6+xiHJzxuiO9lRjg9uUJWBdRioVRSJl8YmdcU/lbaE4sjosEEXslooL3CBRttmhdykwhgVa02drZNQ0qTGhQKyRBmDGTQLteFSgwfyE3NVrXUHmoVj75eLqlbAYwK0lZkm06Yzc0PDWOgCcFSI+ZOmI3zLQ+z0h+P03fQE2n7GGyHZHvb7m/4FxQ0wPPu4I13Hfez79Uenlc244zBhJGTIWLnZLj4BwDwjKQRa50qfNSEJPmARiXOP9YDSfYSF3vRaatrqJAFdE+OlwGuaOkY0rHhIv1BwoZkE2KwwrOr2NkaYDbU9SREY0W1+qpaXjKT5cGswYXgWY9eEVal2JouPZimR9gCsUtTs9owvRktUILzK9Q3o2IBzQHt25xt0R07vJ5H7ANMm7b53TGnYqWi/MQm9cqAi2PlsZIB2iEWsRtgvGa/P1ZC/U6gdsu0pYrkFeirPfMivkOeMGmAJtDqnKoopdmpHD5DE6tCf3snAXQ+6XfP2eADfBmb7kXYaITokFV0gM1mDWiDnEwErUHyDKcnlfokkCOdOjOEu7sdnJyOCe8XuQDfIQrEdEhj9d1cOKLp3qKm+ic0PZgnn9TM8KRmIcQsXD87XCWurWsaSdiAl5Tr4aq2VsClC462pxTksezwbinTAxJoksictyJpNNtaXWmogV0fAEoKp0fY+n7PrOjJ1AwaIYOph3Hy2HSKRJ60vDTU4mIdh4qyLb0RB3NPpqwc6rZAzG6n0eB3W4R2+CHdVlN9QrAc0uhF8lmYc5bHNtsvmTum/v6d2tic1+n0c2v/JH1f0Kb+kma6i3gldU0SJs6kYY7F4yg6nMMwcR6gMe3opk1TSLGp6eDUbXp2gI6FB++7bZ8eOXSIuDGvFrYkJiJsY6z38BbdjAxq0PTuDlqR83imBj0NxyeR0Yq6Ox7Qb//GL+vCDUWzQZKxSShAisqqFxmHjWLxxXTH/bu098icWtix1e4QiQRuJNqLHoZ2iuyJ9utITAfTgD3vo+IhUD+88742rZ5Q9sAOHf3SJ/SNL31E11+yiXrsHzeo2+8XVkJYD5HvRtj+6ENf0MnSJi1mJ+mIC3I5WfpHx+grZ2B9oga677VWAwDOEgJmyOnmipr7duv1r/5RveyaK1FSNU0SfmWGDTQL3jImoQNIwxxOWConf0diFeV3ZLGtb951nxowYofzPQrvUme8IQlD2zKPQ1gLVsw5cNaht5v1jM1Hc+X/ZRpBR1lRHipoiANmm21fpltDve56WG84rahfPLegXzqvpF8+r8K2ql9g+/Oc+9lzMnr72dJbzpLeeB5hTrmv2faCqi1yd1XVYVslPOeMFw10m8TkfZVbfU1BtaKBQd/2LQpenA7YjmuTCYcscSvSHW4AAHNsybaytGJwJ93GAgxcJOatNIuq9irEwah/7s945gzC+BXVZNqSQzOZnS/bZtqTh+D40JpdrelSyvoXl1b1Ly8t650XbNS/PG9W7zx/Wu+8cFI/c05Ob6OPP3WO9OMXSi8/vaDT2jX6iYQTspW7XQQD7UDDwiYDOpWwRbvErN/TgORppBhHJ/43Q7Plj5NV5sirdlzrVSOOG+uc60CQ4dCv7xQAvIBkFzQB0QtInpbnEDSozePxh+L8vQSHOiWObcKdUP7aDV/sqQ11vFPQ6mBSPeytClWliK+HRoUQqY3GSN4PLiAJxK4uAO5NwrvEQ7XpsIc2tJfteulIHvByXRxH3062VK9Q5BL9WaVvba70rdqpKxXOHmFNDiufbqFW6YedJ09+wCy9NBKamVBvYrM2XXaVHp47rq/dd5/mML+2/3QfSwOzU26WJlBqZPRhLHCpcL2N+u8hGJZkL2Pq4IV7m7yUaFa0o0aBMLpXbj4bKZZ6JWvAkvlS//OARt7jygE0jTB3m/gZHIZchVBzGlrn0XL0gnamg1NBzsMKSHnHxISD7Ie7g/52gl0ld8vkOwogf/YPX9d3DpzEAz5d7cJWNQnBlrC7NWLnob1nL3ckPAp1jxnpYjcGDp+yPOyBG9gmsXWmLpJtPeUKnGhXlucsjAaaHsQS5hZefrdYAjxUK9qhjnQ1YagObRukGtxbR+rrCLLVJQ/7QTuFxQ2qd7KqT8zoBI7c93Y/oo9+5WbazC2uk1uTkBPJZ9cgm8mcQj5pm4dQ2+vG8vsOt+yLQHvTJwfQ+YEdO1f6zCeTJ9oZfoEpZeJYUsi2IAGy7yrRfI/3Egf5TU07M151yckYPSzHirm0cnQmkysjHQbDEsffkDhiVv4dOD6nv/vATcrT2YnypDrYyWXCmQ7H+eo0lMM+NeFuP1imTo8zQxCPbIU0W4KdaLBNiRfoWev0YrqQ8ya8E7f5Vp9yK33si9FHS5LLM+N4+JXQb0Ae2jPGF3EReRy5lMMumwakITUzSzjXwhmsac+e7frGrV+OcqPsUWU5vFI7rU7jeo1/NgfdkProBxrKfksCsmtyiyxUIRax/2yksbIeJR+N81OST4U6pyEQP5NH7VkLIBldpL/Xp7Oo09B4oOIVljlsGwEP//o4XDgISOHWqc1644teol++/mW6rpzRRHueiApnp4z741UkGQ+4AHCLfRw9ZCHATFSa0aL+AI2NNZHBQWc28XDbgDZ0zB1xdEIwf42BSFkz2IspYuSSA3ZT3/FwrFFzzA/YMFEPz75F/N6mDf1hESkrABYF9GsqNU6ounRMw92P6ZrJGf0v7/wVzbiYFvV5YCYYEOGAQc1DTiZZFsTbbTRdhFVOo8avJUNrJkics/GihGc6RZui6HDbTjUjafY4sWeQg0DEmznUoic5uNIH0MgjY58i5PHcAOjTQwc2lpSUanQHkmgjGL7iii16zQXS26+4QC84ewOEXsVuWYrN6VZ8aAOXhwR5hMuv+QTAATKFR+YI4nrtFq6xWgDdoK4muR+DGsFxNBA7yS0BNKcNdNpDng6+1wZ1EqBtmkQM7ZCrj4NmDZ4jzi+nWqp2FtXe+5ium53UL/3Ij+otL75SBapIXlbgT5g5Nw2NxBmTwFtP5OULmBmLVDDDOPl4nBOtlYyNcfwspDHzrSt+pN7Wzoy2ATJbSzON9iTDgF5Y1oJAHsUiD/KlxHbFFB3n7bQBvo1ZBiJDRk1wqQKmL7u2oDdfd4VeVM1rw+JcLPlJDUEEu5mxKGAaChC80s7hA1BvhEQEa5iCDChkI0Nt1J79CZ4gOxykgmA8TvCIO+mmD/whnSzS5blxM0+MmviC7+dpx9YxvWhA0ES9FRWai9qyuqjpY4d0AZrlna+6Xj/56hdEuaGb8zhVmCmrZG/bbCmdpxN/pAnZMkWbvdEgpBsS2UejBNgRalmi4+Izn0J1P4nRIj0VbJLHgk18kl/96NiOQqgUIKdz2DMDnS0AclYnudQwwfLEq4O8mgSUJSR1krDII4Sx8JM67bj8KJL9m6+9VucQghRrJ4mcuAh4fdTdDM5Phdi5CtCVThqwUcU9T3d2UastcgK2gc7RlpGLxrHBMnhu7Yh0dNJ2uGuQ826AgeYGx9IxX+yZtmSdWLZHWXjiKuBc1ReU3btT9Xvu1J/9m3fpZ3/kWpVdrkWVRzu0xRMtfcfRsJQZ37xjQY/q6eSJxSW1YVA7vsnsVFxJyBuqmraSk4WXPn7mU8Jmaylq5tT67frEzUj2wAv1DHKhiOOFFwlhlutIYgs7mUV1T3DnJJyNem8NciqWpgHCUh0KQSU6X6RoK2ncL70A7f2//eLrdUE1pcn+ikoDSzUOFup/aIfPU37IaiIN1EskkEI9p5FQ+wD2G8w4yDwtthYxCxl2noWQ5jkvX+qhovuOgey4UWKagDnbJY4mBk+TM0hyGm2SdYhVO67J3pLS808oM3dQf/+nf6xrzt4SJIjKPPGOWz9ALdeo+STNWOS0jRV8jhlJvqboqdFcZQLllLQ/+uBCQrqcRykA9/Vk+0ynkOgnKwzvGWRz1yjZJnqMOxwKN5INIHra0La5BdB9B/6zm7TEbctc/tb+tt73ze06Ds09HoG8x8RNjECiAnPwvePMMqw/RbGXbpR+9fU/pOtPr2ozoUYZp6aJ5qhhtxeKBS2jImv5VCyxbQNW36AhlbF8ifaYEQaIj5c1RPvcfMown5jo9fwAO+4lTDZBZCS42Cur3KmQS7EC1S+zdXIrmMx5zbaOKfPIHboMpv2Dd/+qrr7ydHntQwCEk9luL6vWawawK9S1DF8dqEl/84Vv6QNfuVsPzocXoD7cPMhj8wE67HCQ1wCPaLmWn910SnVH9pFTnB1lJy4aZA5TXmjAU2mHWjS8A8ge1JjauEX5K6/BAEt37Bvqc/c9qs/vOMx2mfiYIqCti4dEgNFCcoirAdKjRBOoUGRFrzxTetOl2/T8MzZoklClh/ZoYS7qhYI6BQAEaA9uDAC655DIixQMWrQQrxV0LaseyIgMAPYXQsJ4rhUMkgCdQ10XumWVDHQboNteLMDTAJ0G6M7++/XKmaze+SMv0qtfcr4qgGxeHjjuxmwM3QaOwVaL5B0Ae/MdD+kbD+3Wdx7dq9sf2K5HOIfCUANu86tOHqcIEps5A+hxfvbBToCmEm+dvLc++2rk0carSXzF/3rhiXMaGz21cavOufxqPQGLf+7uB/TdXYd1qJHWP9x+h75yeKiHIMpJP49se2lN2EYT1mAREhUAxZ8SfdHFs7rh6ot09YaqZmO0CFLaptpmUmdi6JA+vwExdOapGMJEdEfJ2i8EmtutwK1NSp2iiu0iZhfKQ/0UpqSLtugWMTH5PiFVA498VTOL88rv36mtxZbe9OaX6I2vfiFOvVequ0AzzhAGQtXn/dpeWQuc3k6fb3v4kG769gNaSE2Qq7pj+0HdcvcB7T4GM2D7MQgh0QkhDeoYZDPqOrCtPZ+FlLx75RyH/guM9v6cR8fJhkYSLw4cM44aNvCbE/5SEazeAK96qqD3feZ23XXohJZyk9issvaiq//k1q/pM3NtHecpw5HxawwQy2PlsW4sJLweH0fbyqVXXFjSz770Mp1XzWA3V0CKOo1W3O8tQKETs8OK8mlUiOekkZo1ErFjM+rIy+GPfYEyvFJoFJSrExoivQTc6thhmCyiLdAcGepvLmjmyCEt3fVt/ft3/4p+5CXX0N46EYInQdvq2sNHu6TyFY4KobYPoK1uvmdFX7p3h47TnkZlKwxd1eFWWnfteEI33nKvmukCGghjZRqalgHmCOQwh2S2yYTGs5PMYqQ1EpEScKPKsWMQl/0nkWbnSL5O4w10L+UP2xR0kpBqtTSjenFSy4BZL8Ph5Pd97XZ9/O794aB08kgSXO43IWMNkof9ED8vGjQomGs9/zTpXW96oS6Ztn6ERZbnoAce9+QMHOWpxIxaAFz3QoGpDYRjSBnPmZEcEhuToOWIno4OA/J0CV8BoLH5XTTJwupRri+pMlxVfe/j6u7arjs/+TFdvW0zd9cJBz3+bM0C2PTXXrUBRivrMXY+/c0n9L0dB7WYriq76Ry1yhtg8JKWhkU1UiUYqBRj2x7KTWjrRJtjLMB0dGPHdB1dexbSmupOUnLk5DOnqhwdjRsXDXTiXnd+BHYHoBvZiuq5CbVKZXUrBbW4ZWGli2NV1Dex2X/+3f06yLmGx01hjj6hkHVE2Fj2bXIN9lbuefFW6Tde/Ty9erqgrasLmu60lFleJVyfUKY8iwddVt0qu9FUu9vk+cT2e1w940ETh0Akr+Ssw1PtSlW1AmFQkbZmmxr257j/hCZqRzR45G5dg7n4k9/+TV20cVrb0kXN4oV74UEMhpD6fiOTItExeoBG/+13tus7u4/oCOFjPVNRMz+hpT7MTSjZjeVFFZxP6ykaENKc0Na9TTjwqSA/e2kk0UmK6qIx6/M4JWPf40YF1HGLQc4Ex7a9NgqQHT9bVYXjUyphPivqDSe1fbmnT+86qE/vaegJhKSPVA+4z5/TaAUDoVbpu2PtSR49i+Jfs036l5edpxuQsK3E1oVaA+Hy/G9Zw+KEegUPmXos2ePqljqbAkTNI20cJw4gZ6wY8gW8dhOdwh1PV80YJ7Sy4269bENJv/zq6/X6F1+sKS4XPMDT8MMcWB0QdcQMEAA/jvf18XsP6ZZ9J3R4UMDkT2Ljy1oF5BoabQgjqjgVjNj1QIzp4pBjjXIGeARy5OR0kJP8bKSR1z2qzCm2YzjXV53ckEj/+GZfsz23R+mxWjrjEg2aV3B2esTNOZUBpIUbXMMBOo59/sjtd+rmXUf08CCt5VQeOk5iflGSPJZMRdq+NlWCvib6Ky/N63XXXqJLt5Y0k6kpS+iTah5D2pbxztHRMFQVT9aaIIZeiedDmnH2vGjRSjPI3D9J8wj+uidgmBPadvKENu3brfMJ1X7mDdfrja+6KtyA0LIxmUGJwyr7E2qynS8V9V1itS88tF+33PW4Vtr+0kJVmbwb7Wd42MlzlzGyRxsclnrFRiSOTTvTZ0ThhKL2h5Ko4Ulh7TOYXPIalJ4PSo6cn1xhctYNdBpvT907HpSPSzFqRpOzBfVXGhAvBf2x41kIVpjWIwtNvf9bd+qWYws6xP1o3viweA3MHK646kzWNrsT49Qbuefac4t6649eqws3F3TaBE5h7aC6ywdVHPBEcxkJxCtaBMRj2PIT+MKrnK9x3FmNEbg8PkAGoCeyNdpV09TcARXuuVszu3fov/7Wr+lNP3J1rDPwlGEkMwvSGvFiFycLFbybo/ff/4g+cfdDaIhppQqzatO3vsG0pBjQfH40fMvNHliy6rfTZzL55HqQvcuejwx0kuPKM54yb/ut97zn+/vmdXS1SZyZjEDF2K/ZOqbtzOJW2SO1jXfrPPCQaGQalrQ9mjh0p+Fwv8s0JE7OEHp1OjwLl1uN9ul8vlKGQD3t2X9QOWLZK8+djCKs4Zyy/Q7eshUuiXY4bvf6wepEVhdecK6e2LVHU1w6s72s7L6dau/Zrne97jW66T//pT77/n9Q+tiynrjz+7r/lq/rjMqENp92tpYWV7TnoYeUWVnWRBMPe8d2zc4d103v/c+6+OyNKmQHyuHFhW9I2zys60Ehe/srtGsfDPd/fOYufffYEiZqmvZX5LVm7k+AbDD577F4L6IMaV4LZ9i3nR+DbA0aF8aZSkO146OMzngUN8oLLzJhgTIXZooFbdu4QTsee1i1xZPQ1FO1o3rGZte+jjNHfrZYKvxTQI8qXg80jXO9Y6AjJgxOJSO9HgPIcc8UIA9XlzVAhebxttPFsvqefvQKQi8ooE39VkdFvN8+XtLqSl0rnYLOO6sSEZS/YJFDCrIUOPSbHzBIhzp6nrRAFW9Cas4DhCduvU3pe+7R9Th9r5zdpG0r2GPMwaZmXqehakvzTU2erKl4eE4Lj+7R0oOPKrtrv7bNryr9yA5dg8P16+/6BV119dmxZr/jBfowWBbJ90xTm4igBin20uTvECr81a0P6+G5ppY7FWw1bR3QfvqRhzOSKQDCTY8rjEcQLQCeUzcIPsd1v+OVDNU6GYZEZQcNvR1BY4F6poFO6vxBac0pS1Ko7RFHnkpc93001Grbc9DFdlMbum3CFXRAL6020uwlO2EoeRb5BLAiRSEV2qIdKwN9dvtuffLheZ2AHsXR5IQbO0CM/dUAQlLOtTTbW9bpK8e1ePONOvfxB/UjzYZeQ/mvS01o5qGDuqJe1QvT27T1eFabD3R1xUJWW+4/oOqXv6Ozb7tDbzpyUm85uqCfWazrbVu36hU//LxkZpSgyUuScjE02kFbdcOztqr+OmblA7sP63MH5/RED096sBHeJ36HSStovjxMmQomacGc1gSmh2nlsgySJTvRiF7QEVoxslNCuwRktrGfXHmmU7z71aMCr23wcpeAnjAl5REp2yvXG/Y3h43FiyR0GGBvM7ZfcDWsnzg+eLHdfJfwooVJKyntBfVtkKvh2dpKesVdz5924rGyl9MMCb0GalHWsbmObrrlXn3t8SU9CvHmkOIVQpMBjo7Xck6262ru2K1dX/2mlu99WA988kZta9R17Wlb8M6RQq5nvYAvB2A4Z53hMmHXcgx5NiytAzQDzDeL9G1Byq7etEFX2DzhUOnOx5U+2QIw2w1MSGqaGHlCBzi6E5C/ef9B3X/XXrSMQSZwo911QoNV+tquZLSML5EsKUpBn6yy2OgsdWTw6vzTB7n4fBTakL4O0Eh9APdnrfowQUhtSD30o412Hh3ZBEP4oqd3vZzZy5I9SARYMRCExvB31uLzWUQCfrvTHwiKqVZLFG3x25k9sr+05JT5qd97z3vu2I1ThNPUjVCFijs1CsO5MaNZPRt9VwzhPcfsyaUi8XKesMkvkUU4U2wDLhW405ZGHs7iUedgkCwA+/tc/nQVrUvUDUTp4Zl7SVoh/OWcHty9R8WtZ2nDxliAG0qgaBt4+IA+/9cf0H/53T/QxtZQV05v0vn5soo12kmexeYP410wf4eU+zM95Upm3C51mgkz2F7aT1k57G8G769z9Jga339Ee+97QFvPvwAHAM8fJ6EBXY9S730I46cenNed9+5TbR7vf3IrzOkZKId2A/VLmWSkzC/k2ev2nDypj/r2r9Z4ea4nbrIxxEJh9LkfK1EgkAeK7LDC0GmetQIfYt5yXItXc6wQ8E2GXhkaQ8XQEg3pVagbilmduXFGux99SI2Fk9RofHwvyt1+lU2uNYr7bQYilQtFpb1ix6/Eeq1X8ipKT1PVqiasbk1k/3CG33osl7kGoF3CnnI2+tbD0837Y5W2v40lQF8hzOyhar1GG+k117rjPVQXOSb63Wnz9eoSvIO6hMCZImo8O4kUT+nz339MNz+6EsOlvlOrdf3d//4fdP+Xb9XbX/4qbYXLi4urqtYb2gzBNlfLqi+ChBfHe0oDoIfpToDsryq0YVwzn30ML07wR1MnCmmVickzR49rY7Orhz75WdUe3xPruf3ihicpvnD7Ad352F7VYezJqY2o+DwaClrE6zVsPSDj9cVupYXGfbONDlXuTN/p8xAm9y9OgYJyEDwPLcOmlyBgHV9mZUn9BjFbG2nOJsuzxgCxQzaQiS33FCalxT9XOjYByYsAABwqghwnKSPK8b1g/OZ3v+c99++f18JKh1PVmI/PdvpIGVwEl3rV1rAF98WYIs4HEllIt7RSX0C44VK/bZFtqYwE9RxKEDcHdweHUXl45tCB3M9TsRdxWWvE67d5mGWQvH6a53lU4smVE6ovHA91dM7klP7s135NAyT9wk3bdFppUhXCmTLVFLDNaYiJJsVbdj102/0lG1h3drQJBvc2tA3t8Kcth0h5Kp/VMirzOAy8AIhmtsXsjN5342164MATmsf0ZEDfZqgNoB3MUqgZ7HCOMuL1JPfR+geg4/enYKgsBI9VLtDCS5UT6STEJAoZUJd/+4IrCEwZBsIk2g3N4MGjUZI1OzCqnQf3K7x3a8GBSoAzjSY5fdNM8sHXpZPhFNs/co65bGdKieecIEi5gCl1OOHJCi/zqfil7n4BaYPwjSGeZQZPjxtoXKG9ihpdVufQI1p57Fs0DL7PY8eLdH7YVAYJKQawlOcy3UayP9Pkb5XE1wadrZecLQk03i/GddAoyImWsfUNHLCjSPF3H3hYN3/l6/rmV29TdqWlsyZmNWkVhgQW4ZoSAHjSoodKykIQ+5juYqTRjmuJzHHUSNuakLWG09SEYTtFmAPgCoBTO3BIJw7sUwNNs3/vDgS2Adub6G2tEKvX8FlSMGoW5i546VK3AQPBcXa4IupAOLDLecD2imQ7P35bpJ/COycPB6ho2j2cn1frkfs14aHa5qoyftsF86YcAaMXWBi0iHbIVr+RYUxyn2zz535EhoPNvIbUfYy01ukkm8mdMm/HRt+zd05HF1tqprG52LI2hGhDCKs/c9cEnd3Qr6t/YKda379DOnFQr37Nq9TB6/V66irOUKm2jBfqtxD8VkNTFTow2WlqutPQdLemKXJ2uALjr0CkOnZyVSU89FmkYiNEKhET55oL2pjt6jR8hNSB3dr/5Zu1bWFJL5ic1ZZiVUX0ah5tU4GLivTQ688tRe6LOzyW5nGnDb13zXs0M0n0rw+wfkk+QrlgEiSQh1Jwvl8U2AvoafY9VpDyCF+3ozJqf5ZCJvAFKq2ays2apgG66Bfw0GrTnRXNdIjRe3WEBQ3H+TzXbauLcbyiif6Kmke2a7jnPr3phpdqIz6NHckeferh5Pb9ov1onH4QWopskxAq2Jp0LNHTEV6tItGJbU4kOqR5LNFQJdFkKZWKJZyx30V1P7GoQwBdw/PsIeKZabzrbJ/+rcBYdZ2Fdzm5eEz7b/uyhkf36roXXanf/fV36P77HqGyRU0i8RW84O6JYyrB6cXWssr1Fc45L6lSX+R4gU4tKNc+CZGWYRxi6ZVFlVaWVYVhCjxjoFPLxzW1NKfCkSd08NZb9fMvfLGeP7VBuRa2F4exgu6ctL1sODIYqkIc3cC0pADQq02fDLT/2MFJslVbwZ+nRq1Zg+Wwnb0m0cJqM0zVQq2u7Tt3x4qZZZylGg7SEE3lj8aW0Hpm3jwSn1maV5FtePzNJdq2qGrjZOQix1mYwAAOMQcDysi0VpVvnFBu9ahyJ/doS6Gpv/y9/0Evv+JM7unpGCFfD2luUH4u00F47GMAstV3qG4j5gEd/KeR6t4ZQC8AaQJ0sHOA7Gx/BNPm/vO3WCwq9Q/zw+Hffnu7Hjjc0EJqA8xgA0jh5FJrSfmVOU2cOKRDN35MOnZAv/Svfl6//3vv1slMQde+5R0aPjGXOHGmLmGThyMRAcoxN6IXkbrgSseVecp2doMwE/bghanQkDDN3qtfj/Uy3eaKLsXh+9WXXa/Lmn1diCQXKD+DY1OCg0/iRJVzBZXxtj24sYpmGPqlP2x/otYS8TV9vBtWw03gXAutY4aYQPWXUaWrKzVNbNpCM4rag2bZ0enqJGHbn9z2NR2g3HiV135HEJMSwuGifzG0yamogMLjHDkIzjOOJLC7sU7dEuZJFr9KW2rrhusu1j98+EP4ChUdp7uf//4Jve9L31d6w2mEai2c2a46WbSLlx47dA2OHWgCJjhnuqDrLrlAN3/iozq+Z5eGDsHsdUdjEqBtUvzticR1S2tqelqpj8wNh+//5mN6YK6txdIW/C2cqw72lzrMod39O9S+73vSjof1nne8Te/4ubfqvMvOVx3jduM9j+pYL4+qGqKa3CB7unYk8CABOr7RBdBeoWmPt0ns6YX24Th0HUJhk7pEyl0Pc3Iu08XZ6+u+T36M/BH93lt+WpuOLeu0Va/6xAGi6XmAdkBitd0FGGe/wtMH5OTlOGhDdieNgcG2zQygYTCvxiyUSyrZI16uUS8SUSqEn7AIwZZggJNbNyn98hfp6JkwALX5pd6uAYZjbKpKtseAOoBpBn7Zj8LjQzwRC/ttjELkZqYc5tAgpVHrJTyE2fSqtlUHevF1LxJ6TP4R18eXsvrao/O6+e5HaAMxOm55G5Bb5L49dvMYEj0Ffc6eKehFAP3FT3wsAZr2hYdoh2gMNC32TzMkQKcAekapT54cDt/79e266+iK6uVNdIYO+eX1FjHa3u3Sw/dKOx/Rb7/9x/U/veUNmr74HMqCDYmp2/nJ+GyElwD5yz9ow4jtIT/FJ7YvnFQ7XgDdgxFQlBwBKldQpKF6LBz246wU+t2+Pv+n/0E3/vG/12+9+ae1ZamvqQXUJ5ydx5t3qe5SBoD8XlfHD+M9x+eleX6sut3lkR9zSqIB2rbPSqaM7a24wbS/gfMTYRjOUwpwFrdt0iXvfpdaV5wez5pRUCbxGQzX4eW+8COVUbc76IrsmDm7QMe/lNXmXlzVSL7FPyeY70PbHoIEY8ElNKysE2niYpTZl75/ULc9vlf7W17fBlvkyAG0OzTUDP7LWQD9wksN9Md1bO8uSqaMGCg5BbQXcmTJpyR6JpQS3JglpKKR2Dp/QtGzRdq1W7oHkI8d02uvf5l+/d+8S9NXXezWJr3EXlibuYpxNUU8Raxn8Jjz+BoUNPqxn5CAYmgGZE32edjLf01QtTrYcdRUH4nHw847vHHgSTjkkGhAzL6K09KEaPbYrbKtrtcDHCbNmf2xVHvfN6RhlhZhWQMm6VbyqueGapCb9Mm/kpsmF+z1Ek7aEUOLxrN+Uxf/FLLxx4My8WYJDG/v2OAGBcaU8BMxa0A/k1ziFtPEiy38VWJ/y8UgCxNY4do5nHr9S87UdZddpC0Vfy24h+bg2VEuUgfNhEksGomTuZaedEDi2PQImoxOeUEGQKexWTmUSArHCLAPHZIeR5qPH9cbrrpaN//dX2jL6Ui7AXary17sRkwIeu5WxnbEBUEAD/15yC+6bAKbDpE5YBuM5WujMGTMFL4XcVd3ua5UrU28TMeIlR0+eRwgBcg9EOuSM2VUI4A7tvWQqs+v75T7bYAD5NF+AraHHulCGduJ+l5E1S4DbAvvt0O//MHWDKKf9pgBfck7BOpjytx2HL+Bv2FCqOUVLPEJSH9+2p2Kyg32CGhutwbzi4qe+gzZcIRg38TLmGwXPbRpYmJj/ZTfDzsTwrz5FafpBZdcmvgQgFvgOVwpGMW/VwRj40N4vsC1uU9JpynXZUdODsf0MPM7WSngueLLstfBex40ajp206f167/yr/T9O7+qD/z5n4TaiVLtUNF4u/QeQfJpA91DC/TxsJOa7eGiYOm4GxMp7AfdGY3F+mW7HDYsgzH15FioWLKl+k/+8N/rL//Tf1SBDm2tTCHRHmeHnBTmHMCOchJLPplz3Z+xlz3O439xk0FDD5v3OtjXLqJqtT/gn7831sX2dvF+HVKlYtDCNwIqNrJYLkY4xh0wmYdbIbzDG84NEZRhGn8jtj7mQejhMW4bhTHtgg6o7KUFwlWPIrl/ePXdei1kyIPBr7q+rB977Ys1aHfUI7rw8Gef/QE0mYRJs9Q77lf0eNx5J58abbllLaVhHK0S07ZQhzk6Up6Z1OQrr9eNn/uMPv+V76o0A13oryehell/RAa7irdcRP3YnerA/PC+hqgbekd2R3jAXODsRjjHOWTX3jamYtB2DGwgODQNgvJkwp1Lt5ytN/7Q9eouYc+wwR4YWMs8sJbpyFNBHv9UgfN6AnjXgyr23HNkX7cDZ1pbFTqmNhO0qa/T62n7N76tld1PUFCOkJP+2Wy47/S1CyQEXDhTedyr5JeELNsoc7YpcppzyVq4iPJdGYLkX48dmNHw5MvTGygPLcU5T4KU4XL7AaHtyPb9fH8uC+OghjyMatHxv57NLLQ17aKfTuPtWrJ99r8khdj5rUS7SG1UWRvVu2nbVrWh/C3f/Ib+/lO3h1PhF9H7af9KsZf+5Ajqcf8NjJkVqfBPHrRsf2y4R6Ub5ycnX6MrHiUKhU3iXkdf7pzVfIpOzBZKOnd2owo4Zmkuxg+2rIE7zhDD5w20ESaNOx7cPub4uJhkX7P1yY+ATrQC4LMfUR+E9ZCvCf7E7n2qn4DRkNBeIZeAyHmPcHk9d5vs6DsBNazOGuDemjTjN57NQz33g32D63cFvUx6gJTFfACOk3+hzu8n+LnHdkqPPnoohl/zMJlplIGuGWsPGufsMZQxUz9JdJ18cq3bvoFuGMR+EWuLR2SvdBHOWSxUVL3yGu2E3f/iy7foQ7c/rGO0wOsr+wNU7rAccbw/yNJE36yAEtG05jJpHYN48wj1Mc4dIR9l/yT3LGOWFmnzPLb1BOdOoKP8us4R8jH259iewDfZ9PyrlTnjdD0yd1RdNEyfMk8BuK79bvzonIEa78c9zlx3cp/8hsT4F28IxAiD/A0RbChi48X58U1u7EAeTZXzywGpojaccb5SM1vjTYsF+uR5ohM8v8j+CqX7F/FXoYeXL3vuen2GPWJixIv7F6hxkfuWMjnVcATbtMPAWwgcz/uDdHWYfgGlvcS5Bw8M9K0HduvRA3thMMI6+yYWMsxIjGm7j6h7dCH9NG28dWHO/FmffdIbUubHfvM977nn4BHNwWat6mzcMPAX7gt55aoVnVhd0ef+4cO66vnXauPEtCZyRL8jrjwB684hCXPsG+AFCOHOec3zMbKn+06QT3J9np55Ruo49/hcPMM5M4jf4Jin9zWOz7/kYjVxBr9902f0gssuVxowcoDBLYFebPnrfwmwoy1n145Hd/k+TgXDJyDj+MHI8HV42B0cBDuFJUAuEDc5BkhnSmrTz6t+/p3Knne69sHg+ylkAeZcZn8Ffey2ztPvmkHn2jLlGSQD7K3pYKCXuOYX71a4v8mzyys9raysYLZaqlaL0S6PatWh5/FGT7sp6BO336UHDs+rg8T38mXVuoRJhGJUATv0NVMp6qzTN2vHI4+otgC1edY9s2KPFF2ncdYlYGlqlIplpT7eHA7/y63f14NHWlotbkPv0KJ2DRboq+K3J9rLKi8e06GvfUH/9Q9/Xz9zw4viV4kO0qv/9PFbtINedEtwXhk11PfyWVsn7BwqL15dgcKetDJY/tV4v9Ru4mdQ87l8CbNIR6lz2FzR+ZsnNdFY1Mpnv6Dhbbfrd37iLZqqNzRlz9vtN2G8jd4kaitR0wnIcdbUY8/3xU8/RE6A9s8flXA2/JXHGkZ5xd+iBOgqfkURPd7DHHm58tzWzdr2rp/Xx+YP68uP79BBJDE/tTE+Y+kPs/ftN2Da8sTv/khOfCgndClqmHqTGSUqxAn1YgFPdpTbdeL2umqHdim1fEwf/MBfK1cp+BNpwTS75tv62y/eqkdP1lWvEuGUpmEs9I/Fnz5lkeoNmZ62VbJ6+fMu1+c++hEd9Q+coS086x39HKszDEAqRQ7JzmpmakOsClOaGKDviel5APavgAxxrLxsJjujwdRpcPgGzVx1jf70Qx/Un3z08zpKH5a45RC261C5rP3pgna1MtrXLekAzx3oTWp/5Cnt709pH9t9/Wn2yT3nKe1sFLWzXmCbR2rKOpnfrPsO1fTg0YaO9srqTmzTqj8SS/jhwQ6r59g+Nfs8OaSZ41DbZCdvxtJsD93Tk63cgLgZaSYoju9k87B/r6VpD9zeMkTz1/8XSiXtyqe1B9V6OFfWbtT6Tmzydhyy/ZmqjkObA7R7P/11Hw/0q3qiV2G/qn2DSe0ZzGjXYKN2DLdgAjfrQGqT9rYoZ7mvw6tddfKe+qRe2vUg6u39tz6ohxaJfKY2q5XPaAHP3+/lx1oAoPSPrwxQ3/Yf4sXGcefM8PHXx6NMCjp4mxx62MPLWzog7vndjKp5q2+vJKnimFW0TGDfKE1p6vyLVSsUdeN3vq2/+PRntGzbSix6AGfhSKGqxfJGLeZmNV/Yovn8aVoqnKZGYSvPnIbNP01z5BPkefLJwulaqpyhE7nNWiDXSqdpobBZy8XNqPRJVN+UGuwv9/1TR8SZNDoGK9iOgV0D+KmA06lx57wzlmY7b/4RnhY3NwHaixISJ8+OZkpNsn8Dq48ENgF7kb4dnqzoaBUJL0/RVsxYZQbfYgq/YlqLpU34JDP0dTP92pr0u7CJTB84XijSx9KZ+CZn63jxLB2nz8cyG7DxU2oXp2G4xJTd/viSPnfXDj0EQY/nt2gpW1XDnaA9/jWgWFDpRSCA3UFCCwhWHwdp7E+PGdvZ9HnquXFKZ7tZZVp+YS2rQgHj7mEYj/hkree7eHhdwgvsVmWjJi55Mdw6qw9/b4++eQRb2ymo28U+QEUihEhe/tL355jtR3uIcGAV4i97dajDY7AeAO1TF9djYAKdQkfaDiW8ahR1Xtw4qeq5M6plG0gidhQmNJie0He5bbb+WJR/xyqb8acz/B1NX3NM7J8kwvpAKP8Mka2U7ZdVqKXVn5/wF/w8YFHol5Xr5JWlD2Ykx9WLOIQL0LVLhJFBQr0ubohzZk6xgKWIs1O0u53qEmVYSCxRtqHJIoPkt7XcFlOZ/vnt7FSLvR7gEqZtOUfZi66TBy+/tkf69L179N1dh9TEPPjDAp1YW0d9NiOu0UO8Lg5a+iuNRe4bmysLtL+k5MWMSbYJsfkwGNbM7qdbHUATWnRKsbbL8r3SwJXy5yVsyDjlEtuAt5SqIolbVL7sZRqe/xL9+afv01G/55L3l3axVf4cEaovxnmjkbSOcC0zGH+CAp/d3yZxg8OmAbBXp3DOw5teldJ02JAraPbs03T2tReqfPpEDCTZIbPkuo3+AoK/YVYn+32vHEzlAZpkGTJeLCquSbMMtkFPnBTKN9DO/gQFzzlELPQrAF2QPz7nRXYdwsTaVF6prcS47Kegi/qUHzNQ2GkcuaohpTEG2vFQvPM8wE5CVI8nJAPAJjT9i89u1Dlq0hY0SGVC1Quu1MYXvkZ34MZbYO7DU61VNmm5RYDr5VwwlT9oG19tsJ72G6swV6xSpTddD6DggMUoG8f+eYYEZNOfNgXYXAmQ3Rb3n7/mjOSn9LgagSzZVLUecFmRMvECnWdj6pkJrWan2VaD602AIGYY/nHmtLcQJToMUYaRfUzjkL52g0ZV/bVAiNmsqYQ2KXhxQmtJe/c+pu0H9+jt7/41FbZt0hJ21aoulYeYXeLsqVlNV6ejqfWVVehgh8gddu4jtag26vJCu2S1pGfPaClgZqg200HxtSEszLlhZlpV7HGf+H0Ruzg8fYNe/2vvUHoD9ZUzKpYgL/5LPlvEW+7T7h5tIArIwhw8lyb8S1w/pzHB1vUd+GE/5YowAc8s4Axun1vWZ765rCdW+3jnBWSezpUIWcODNlNaGk3TQCyyx9iT5cLUMq5uVE/y1YdRXmuLAR6VMTpiPxlDGev92KzlKHrUhWR/rA7jOE5xTI4Oe6rOn15GTfuWPhTuQvz4fgjME6/uePzHS4VRjR448cL89In92tA+rqXHvqPLz96i3/m936e/Od30wB26s3YY56en5W47Vks05peUXqqrTNsmCgWVvdAO3esfAx06ZIK4njIskL1gwG9EehqxiGaYhOE3w9gTpmW2rpX2CXV7TZUwGRe/4Pm69qd+Qoc7bX3m7nt1/8F7uLaoEh6zllfln1PIljejdSZjZK9fhzEo20Am2cCa2OtzQkivpwt/gaPVel3bd+2KwRIvD06GWk0sD55ww7OQrO5pBqV7a9DGKS6Mc3I8Dl3+Uea/gbYEeZ62TJjl+dBgPcD1zx/Z1iZA0yFsmbJeI1XFSgxVQaJnWouau/+betVlW/ULP/Vjuuqai3DICvrhn/1JlV94CV5wSg041j9mXklnVXXsiyr1oEcXBoCVoo4h6suDj/YH3JYiPobDmxw5PqNBsybaSDnM2E+hDbJN1VurymIyqqdtlc45U80NBRXPmlSrvKpuf1Eb4aMqGPo3MnrpCTQSmqxFW3gG60D3YVRa4G+gBNgeTVoHsunTsWmDRgbWtIrPd1k4kPIAGj8kbn+WkpX0yDNdV8uofWvtXA8yKiWkmUauZR9zLXk1xADjxbvTZnDHNV5pYin2umN7kfasUMdeVFglbp48cUQZYsJrZyf1373uBr32uivD6RxWs3rlO96ma978RlUvu1jLE2UdhZD1SknNUkE16q5ZUoLaiXqLxe3U7ew2xLQi2W3z0KlZIqY4EZ0c/sQAL/bYxrIWrz1XqUvOtCXSRvjw1RdepJ849wJdsgnpLTbjizrtoX9XBLvrfuHMlbJopGBcJBEmjP4nBGM7ToDqzKmY6DCwOfyDCf/eNexJjlAJ4L2ezfc/Gykk2mHG+qatJV8kJ16ePVeDnKjuMbjrt6H8A+jEuyaKkX8nw9+ODsfAzpo7Y4M5aOI3rKpcW1Dl6EEVDuzRe9/9G3rt865E8jwFii0H7VX444xXvkxXvuE1Sp21TUe4chTpXKKYOgB7CLdQKaP53E5PDZK5bo1iI2Eym/jun3muhfT5LZE0ZqFMNNErEnE87yJV3vwy5V9yVUzBpmt9XUhTf+nqa/RjP/wC7GdbbXIv08YyOYJIxye17Ee6+ADZO2tgj5LJMtr6VwZiTSmMCYWUJdLwZ7z8PbWY1Qn1TR4/8wynta/7rnGj87pdAx0SHYf+O8rrJTpy3Brq2dN+ftQMkvzeE2h5/tX7JsgAb3vlsCbqh1Tffb8qS8f07Rs/qIu2bXRjwrZ6ATCKksiLmD47oeKlV+nat/yk2qcTj09UiW9Lqk1PqjMxqf3HT6Aa7XQ5TEI9UoXrdnttKvxLeW0I2cS7704Sp07xPI7Udrzc/XjC593wak1eemkSr9LEyRLMibPoNzZfcc5p+lc//jr1ju7VTKqhSVR9zi/Y049W0z9WnqjgUMfr6RMCQI5QCyEhtOriQfvr/j20SdcS7LcgLOW+3YsrrN59/llImZ/4nfe85579JzXnV3K8utLqNRqYgOL1yt4bN7+PfUxe/eBonMMuhT4LZ9HMY88xWdvsr/FYbdOp0HnYTCR562BJJ+75ml565gb9ya//a11yOs6Zh4ogTCo3VIEQz+FE1gsHmzzvRYSTm3T+Fc/TtuddreO0a+7kSfXaPTzwKs7WEHu8ntTWMP50Y04NiFzP4t2ynYOYvQ0zmkZLXPDOn9PG61+uqXMvVBavl2BevToRehk7ms/EZznc99MLWV19zqU6ceiwllcWYvFDF+fNJsPrra2qE7BPAbu2He2HkNjT8nlAtVD4DRmvXrXf4eFKv5YT/XdZ48ct7TxtSv5/epvSoMTN/EvOs/Vu5JFtjksJ1yZ3jQocFeX7IrkidwoVZElKmufxYEs0DgyV+cWzydaCjtz5Jb3x0hn99z/xcl138ax5KqFqDFU51m4RFsLh/uIQ17xg9HgvpS/s3qOvzh3TnTh8e+n0SUBeyRWR2jydIUzETDimRr5jrL2ZTUBexXFaLBTV3LRJk9c+X7lXXK/tF5+jT+HBHyKGj/ppgMeULVU2+04znL+C7etOL+qnr7tcV59ZVFHLeMyrtks8kjiYERqxjU6Mw6T12eXnYVZ/F5Q0sArv+e0Y6iLHu2OeqRvV+0ynkOh7D5zQieU60lpA5twwGmypRS35hXY332ib0/zbGGucS2OTlmF9sIv+8RMPHoT0cl8ftWROpxBCqbaqeNaTS0elPQ/pilJPv/X2N+iGF78AdqEcnLRBPuVvwwIRVAkOJG6H+08i1P4C0Jce26eP3nOn7lw6oe3DjprFrHIbZ3TG5Rdp8qwtmjpzi5Ync9rXWdV8Macl1HT+oguUveoydS86X73zz1Xhiiu18SUv1+FNs/rszkP60j0PUM2scjNVeYVREeagwaFRrdu8DMhn7ByevqmMWclocbWuuRoeuePWEAxTyP1ka0kI74rjsSCYBj6FBI/DqPDM7WlzKRxGaJmzneaEpf+ZlujMm3/3Pe+5b/88QDdQc4UAMmwpKtpsmIQMSfJXAx0HR4fcYKsagPBymTRAZnmmj1SFTbaUxPs+Jgbeb6ehyslDKj6xE+drlz7xx7+jH7r0dJ7BD0534rXTJgziEcCi67ajkyrqBEU9Sl8///CC/v7OO3Viw5R25Ic6OltRt1xQFqBf/OpX6OKXXKv0tVeqOFXQo9j89kacpTPP0KWve422vPE1qr7wcnUuuFipC8/RiemCvrh3SX/37bu0nC/r4QMHlZk5Xds25TVJtQE1tPNiPJuPTL+tYialEtrmrKkppcol7T05Fwv8La3RZ4iUoc/GfQ3oMZ2cDILP2waboBYQskG2MJlSfjhA5rlnGujUh5aHw/fe/pgeA+x2xj8xWKA+cx4Uxp5mcIzcGH9w3AF+35KGLfdIDh4QeGaUaaMN/GYgdxYmNqiFvY9PAU5xz/JJvO+uthUyWr33m9oE2N/4yF9oa9FILtGurlYc+6ZnqNu/vJGPD8H6o0EeDXuQ/fd+a0m33XevTnRbqpy5WfOLR0Cgr0mkYOrYUR380hf0nQ/8tV5y/tlIRosHa6hJ1IBH7rJFLdLk7x6c03s/9QWlJk/XwZVezJW3N2ykm1m1sbvnbpzVz1x5ud7xvLI2g0UxoS/JO01ogor2ECcmYB9d+9ZcT3/xyS+rnt+sY+2i2u1OfBu1XKmq1emRuyEEhUpF7ZqnfWlEUN6FkkMTWJCSkNCjXkbWJicGlYy8s8M5zj4jv5IzZojY9x/XOUredSFEewnnuMGo2ZjEwK70mw04vqdJPMhZOD3NudL0BHyAtDVrqmJrzxiuav+tN+qq6az+5g9/W1vAIAqOgRNsK1zfGCzTGH+tN1ml4QUN2+GXf/javL63fb/qOGOl/CY1vSS6SrwLgTudHCoUhkGVrpaK6nmEzD8JATFiaDXPPvX4DcpUZVYneznt9Q+25GbVrG5SHe212GirUZ7WY7Webnpwh/7ujnp8r8RtoMvQjYdRqbFmrIDG4dAfvHv5bFb/4w0v09loowmiiA25gcrduhrHCBU7dZX8DppDMbJ/7S8kM8D8QWkU2fxTl5+BFBZ2LVORt+uTQY4fV4HrQp04DvY522e/NgqwWfY9+uQVpH3AHSDhaaSqyHaGzh/87i16w2Wn69/+5Kv10ktOi3VhATQ+gWd9cIGUg6DmZ49weZWGQf74HS3djh090iSEyc8om5mmfByuFgzSr8LASIullhBphdDoJBLQsLnwi+bErQEU9fhTof6WmT/6tkQ5y+UtqhenMBOUM4H+IIQbFqbwA4b6LH7Ajfc1ddiLxPy81S1tGwK2dZv10AT5EvJrz5rWT153tS7ZOq2JPn0l7JrmjuqgHS/ZFbpNNBPhGFS2eo4CnwR2Yo9H1B/lZyclkxrkNZDXt4Nkq7HmmcdNcCbqfGiVwnGRTngcub20qMUdjwDugirNY5pcPazJ+f0a7n5IL9xS1bt+/NV6zUsvp7I+RMPjBJAGADdjges0e5vVkn//LaudIP3F7W197pFHtB87WCO86aAx/JX7NCals9oK1V7CNhY9CgIHug9OffyFeO0UcD0HbZB9i98YShNeeeCi5dEoPPsYpMg5fOPhHqBjOvYvNfSZ+x/U5w8s6Q6eP5JH26B5hoNC/OC4x8q9Ysb98M8WvvzKSb3mqrN0xYaspppzOiPX1kRjXp0ju9U6sldFHMPKEND95gR0sm4MwE1sVK3tsS20fSNvkzmEZz4lvyKE2CajX+T1XBWNiRsgCtk3u7EOBcyxgDUBAH63auX4cen7d+ncmbw2DBeUPb5L+UM7NHnygN77u/9Or7/mEuU9O+T5Wex1hxBsGeem0c/TwTJynI+v4B5Hkm7fvqAPf+8u7cQrrfn7ycS0ddriTyHn/NuVVA89Y52XF/kL9WsbZxI5km7DjLZb/mV3ry72azTx9o1XXnJ96OVSBtojUQ32Mevppqf+ymoh6Q/hY3zw/gd047Hj2kmZVuNWXvHb5bTPg389gLPV3sC1115a0eued5429RaVnd+n5v5HtfrgHeoe3KUzJvLK9xrKo8o9eeOfeTwlTSawQ8FxhiufLaBd1ZpEj/JaO5zGYFv1+EYbZ29xsAx6fJnPW3ugOF6/+tZXSoe36+DH36/y4gF94QN/qYtPn4KjHH55jNkEwgxApDK23t8W8RJZL6bzNzs/fvtufeqbd2u1gBRNel7WUkDdHtWi7jqx9eT0dHyXw+uzq467q1P4A/7Bw35kl+0fX7L77NFXl9DtDON97hwMO7VpWoWZGQCG6AurOGRlvOocNr+rFgxQ3LhFT7QG+sAt39FHv7U9PnLnDwKHgzRKfofLL/15pnob+UevPEM//aPX6e6/+ysd+OQHUQV7dd1VF+vnf+L5SLRn07zwwuMD9GVNfQf1kWo8d1oeLwPEuWc+eVQDHBM5XqtifLA+m9i+2UDbTvsMRPcPdXphwCTA+OdmZ5pt/dVvvEtf+Mon9bf/4X/WbBHP3KoUAoeNR1W5UvvX+OTyD77OI1SWmv+C4/XFx4/rBOo8O4Fj54mPaYJbS0FzVW1sXy87VJNtF8JZ6fuboTp6QhvQ0zPYmNJINjoDj2ong20mazGXihCp31hWt3ZCPf/EYptzm85QHpuepn0Ocz371Ki3UBJ5Qr7NunfXnP78i4/Gct+GG+xgBMD9lSb3JDtsEpI1dDp9fPU1F+nmr9ykT33jZn3ipo/q3/7i2+LNnTIMbtWdTLSYjk7Q0eEX4LpAg+yo5VkDOsFxpLYNus+OGc4743ojHqSREdexRRqtuqN5SJ09b0RGm/oNvfSMWb3u6gt03cVbNZX1igh/Esq/SufJBKsniuN+42g76hWlH/p6XV97/JgOpgjP8JBrmIa+54EpMxqG+o6QreyVHD11KS/MR8v2L43t5B64xm3xlKF/ycf3ubXuZDJphjvlFS/A72+NxDAt5sILF1p4yn4NtoQ/4Pc1/Wt99e6kDiwPdd+RRX3sjqM6AGgeqGMT5Q5w1Mo8U0FlTxA1nEGge8PzL9UN15yrl182o8sQdb95aaD99YNkGZWB5mQQdgT0GOwx0L68lsYAjJMvRrSdHD4prb93dH10KpmmHFVy6kZuGqsYe51rW657a6LiSGRwZvzT//7JA7+NpF4dLLyc1jNIVu0ebHE5XWyUV1p4wKWkVWRxPlPUAap8CFH+2o6GPnvH3TpWr5n2wQxDq2S/4OXfE/LMF6rV0hY/OF5sq1lqqJZrqum1UIRVHtNOls6UacsE907QK+JYzvhsOtXCbiPliG0rh08QnjnAdajTn6PE7/ACSb/y5unLnD1yml5P53QUR+mm+x7SzY8d10Pwnl9YoGXcj3DEC/2IudsLnVKW3FGdFv4iGshLoG2bE7NoOvsOZz/DxmyTgj7OVBr61ffFShNX5uyzvoaZjPtMW2cLqO+jRm+jXCcEjyjAryJG2BrYWW14NMaqJComBcc701uP5vRcqBtJNticiw+kkWNRWjInSTVJI0Ld9u30QETbc3rpV0z8K5VW017E/wBE+8IjK7rx3ocBPq8+cXiHZ7pIexG7GT825ljbZKO+VBdnzr+B6cGWMiCz7RYHdMXOF2SlLx539ld+PJQbhKap7noqZSbqBNDtVJFW0o+MfQWbloEKiHyWAoYtCAmAHf9CXa6oPqHbUcraw7mP3nm/vr7vpI5zqU+5VjAD/5qA13d54mbUxsRXsIxSNx73sO/PcECPSKaxQTF4picFmV5BtzHQ7orv8z0G0aNczpZkt9z30U7f68fXA+1nXCbM4HUBsb7bYMd97Lpo78du7CXqwQXFTYAbhVrNEKKkcEZ6SIAn8L1CwvOrybe58WwhyiB+BpjGGjBAGKAF/HvKVnvAFEtdP/edQ7r5e/dpzu9Dn3aGilPEysWiBq2umosrFId9dn3YXk8/5qznk1iPp1GCgJqsWLFCjIbHX5PP3XX2lKVTfB1x7X6u+EY65LlkL7BLwkcXb/VJeQu4hx7GzcN8K3WcsQrxfEdfvONeffV7h7UK2DEuX6HfhUnKgiHNbJ5gofAGzEoUiFMPka2hHItT7inN6ewUxOWsBcm9cIM559Oje/0vOeZPgOA8us/XIvvecebY93ksfpQjjv5vJg+t0WkLdpTvwqwFXCCA2wONF8fofD1dVMvLVstTSNsMkkZsjHpr+mPtOb+UhvNF/szX9uqhnfvURTX6d6GOzS/EZEG2gBNW9ZAEvOsVkKO2egFDoZsjQ9Aukk7O+LeG4j1jOzPxSDClzzh7csm0cJPbaf/kAZ682z4aP3Y2wI6zvbh//eu4lXPO5iRWfhHAJyYBKqtsuYrv0NddxPcf/cJD8VtXNepsUnmDNvglQ2fLnH/nypFgboKIgP559ak1p2cATyW3LGmHB1TWQF5L3h91bF12X0MMHYdzxvunrtN4Xxtll+iJJZ9NmGSUnlrNOPk3K+Ipz7ywjcItGZ7IQLW0HKiCdh2C+sUzhySr3LNIbsDl/oU7v5f12FxfN371cX3v/ke12IQzkBT/rrI1m0HooBPN3x6+tIVw0/1CeQ7q5wmMDXSuCwW75QDac87rgXaj49OMbnz0MlGMHdrV9cCH5Tz8D3JwPbcYZE6PgfaS4VgY4DK8BNe/PEv/m72BTtabemDXHn3le9+LaXJ/B7TBs150b23l7EE1ay17/HUqP0Fc7kguccW4Mdrqwk/lU9CMzz01nboaBQTDcGywR/tjkH3N5xLll+iJ8LqT9JQKRs+OucczV3HZxIsLVjaed85CGNS4CYIUr+RTYX8ttQ5JDK5jZOd4EQ01v5qtIAn+2QOknzIa/mq+pdgDGrG0hhrLZdR9jyotae6gZ2TwiAe4S728Ur0Ckm5IzWxYLIdw0U83EDLjO4z7gODFF4I9Z2365u0khs0kh2pLQj9LsoEOP7Dl0RHKdtgIE7fJDYA+NL+oFfp8xtXPj0Ecv1jnbL/D23E/fWxmt8S3ceysufxJqTVQ7P+YoJbkkTTHu1JB5HFO0pPPJsAloCd0WevoU7KvRcnc4rviVJLYBpeP8ug4wPahk6cQDapBhjpd2MZvPxSqU9IZ58avuT1Avh+xfhj23g69HoQCD3G8B1ZvV6SLrztLE9vOVSdX0goE9LRswS/Sm7A+gKmynqQ36NEG/02AzuDhZvtIdQCNOQmtYoB4jt1YxB7yBNBOPOs9+0xd1KrtXfKVJDOEQXZ91OFn4/nkmeiw++ryOzBcw+9C0aZGm7afpVe9/UXaQX8epY8P079HyJ4zf4x+Pkp+nGt7uHacc35Bb2DHjrJCoscpaHoKslM5acKT0ujEWILXg500etzw8f7oOCSbXn9kYTh832179dgTxwlVKtgYf/+TG+yIeKwvXpvhGSc3zK/bxDAkBMWjThHLTmEMy4Om5o8c1LlnnKluo4HD3SDkJb6tIJl43Z1ORy2YogV71TzEVJkB6Kq6EK8VHiuFexTMKzxiCSjlN6GUJQoGyKMnJ5pIBCD1aEKPcGm6fkzDQ4/p6Ndv1Nc//yFdf9EWsDLI9gR4blAJtb2dPt+KmP3pB79MxEadop/wqt/oCJ1mbWUnze2KMMlE8jFt8j30Q6sLOIdZFQcdFWhXGSfLgz5ZGKbHcQqBqFSKMZVrlRnqH0Zu0b8n5leUndqkXmGSa6arBYUU9gq9iPZJviJkEpsZMIcIjx3bGG4GB1/fQGh57nRB1156ob7wiY/ryL49YOXlw9xnLnUBzjYafkskPO++JjxNuXYtUBxnUnLyVFp/eez54lzZSemaSDhRk1vP0AnatQyArcpGLWUntb8+QMr7OoF99c8kDSY2Kje9WQ2k01+Aju5FXRwUAccStop4rCwrv2kD4kAHMoQ7uM+dTPIigMMG/+BYkg2sieFvNiT/rO7xpUMVxxQld3giouivFcZMG+HPmlSPOuWbxjnS6MAzbTUYLluAB/JqwggreP+L3sLwtcKEasVpTNakFtIVzFURc1XSPP09SeUNnNOprWfilFcgG42JctcT0zKZyGdy7LT++qmUnEkaGJId+8nxeBPpyY+REgU/qsRptB2r7sijUzEyxoFVqycE2GQ83wvYHYC3/ep4bRaebY1ON0rTEGEKezyhBt530z96BtD+KZNVQO45DEGV+UfGwzFy8eZe7/stwhLlNtF7rsjXMn69FRgB2r8066FHv88VPyscQNueG+YBzIOUcZScSR73y+9FNIsX9edxKP3VAzt5azZpPaGc6Gc6zAJtMVMDsodr28SpltRuib7g4C2lMD/012AvZ6s6OQT83KRaHDc59i8DNemvHc5E6lyR66RBbMcKeLyfXCNHe7z1MXuj9iVXfZDk5Oqp4/UpOUrKDaBHd8dmXOBTU3Kav26fRwv8eBDADllabSTEoXkP79S/p9yGQPHWPpI+KKIuHY9yrmkPnTIcfoS6dIHhGLH1AIv3cxnoy3U7RJ5fdDM9I4VK9uxX2j89rDrmoq5iG4PIcwWYz8t+PP5sgvopw+wjD1HPol43dluqWpoB15NxztHpYDa24/7ZOQTouM/A0EcnfzAmvHbb6ixgW8JRw80MTiXH/iUdb1tIeifn76kWQ+e0IpKgHP4naVxxkk/BvXZDnE0Ox+fG15M8oG3+xIU/tR1xr9tpIfE+d1pVY+hwXnE8ewR8I4ZZS3E4Lm9d8hdyYhWSO+3CUdn+HJI5w6ANyD3y0J4zktABUC91t5Q3DTAwhP2HCXxP+AFhH8nhKUPcYDv2aZg/yRTOme+LtnsEroVv1NLiif1amdun+vEDah0/qBIAFvDQ0xDURSR2zgoRNc6zHkibWFlU79ATqh09om7TrfFrsJTtWN1b22V33qADsq/54+oph5MRcfgiW/odv9pnKQXY9gjkJira89b90iT7BfbzMHseDYT9tPO6pradXNb6zN+RKh4dxd9TaXyebdxnPOklWHidWvQhNC5XRubIlBsvU8oYaI5PVe/+jg+cYt8P04RRjuRN7PqGpHK/Ppqs+FyfKR7QYxrOku/MftwXj48KcuOigQk8SfYlgIMp/Ekqf9WwgFNULUO0r39ZtY99WPtv+qT2f/c76mNDPbFhDT7seIFxDgORxx3L4SihBVYb6hw7qu/87d9q14c/pIP798GrtGtkhsqOGKyiWxQAs0xMTsb0qdsxblO0MxrlkGXkMDmHeqcssr8yFAsIkPJY+85xeO0/yDYHLZ35Cz3MoskwtOkWp0+lOF5/EnrD2G2iEn/jLZIjFD+KNszh03j6uA/N/DvcU2jH1MdP2uveo4cPHse2+COlbhxPeJbJsShepvEYv3XhceShPdpokBtqIjRpZjMamrwfbbsW1Y86tG77pORzp7K7G8w0Lpf6HFL1W16E2NNEmU50V/XW17xMZxGNbam3tLW+og2Dtq466zQV/f0mLLS/N1rwa6jhRVMM3WjgEN59eEn7qxt0EF3+8CE88Xvv1/IKqn9yGqmgTnwNf1clxrwhpNsSI2bW8UFn/yHjiHlI1i3256tCK0Vyu9dvnZ56brQNeiQMNH4d1ueSkjCB1gRohPh1PMyW3ynfkO7onJlifPT1sx/7qBaPHIbH8AmaaFYvQJyoEJZi9np1DdormqmgVWpLOmPLzD+W6LWDsbSRg9/cCHKyWpE8vuzEM2tSGo23Okw6kSSuBRO4unXc7bKQ5Fg7PtqeOo9qZevPVk7h8PkNyoF/qgCVfvjgQe3ZdYBHh3re5Zt11ZVnqkjoY6vkJcKFFEgCsqPDYFKqq5YyeuHVG3TR+RLRjnbuOUCE2FV5g38vA8akjjTOpT/Q3m40Kdt9IHvpVGTa5mZHP8njECz6lmwS5nce93V8YZwoY9TnhD5JMu0cX8cy3zU6kp76+Lr9Qj5PdNtWvbYqf/WR2A6N1lIPKfYkkkO2Qauh02Ym9bwLL0yATqBcl8Yg/wCwPSyfqPBxHoHjbGLYmXI8HDHiumtOo02Sxr1I8qiGZEuHk1AE9ekwiPJ8l1Vjlzj+ew/t1Dfu36Gvs719fz8mSOowv2uzSQ3AqcujXB4R84cZVggQPGJ39x7pew/s027stV8wyBaKif+Cio0lERSQ9eQ1kjxeShuTueMc/oQT6jH6437aVxn3edTvJ/WdvHZufH6c3LMEZPfZhmL91XEalzTes3sXb3p4LIM6J/0TVJgb/zAcIgHQnCvl9UPPu1o3vPg6d+dUISZy1LuWxmfHMFjqDLhPP/nJpNfuhIcXR50OyfZ5pwTQtbzmDKzbws3B1dQUtp1zXsViLu3hcPhbmwZ6dZDXSrqq+w/N62O336EH55MhVw9B1qjaayCcPH7tMegltkco/vtz0lfvflD7jh3WELuVRipWa3UNbZvb2DQk3Ha75C/W85y/oOBvhODlJTmkOumrN8H4AaArHOf1YPoa2xHAie+R5OS6k/ud9NcM+gNttFOcGz9DqNkmtIQh/StF/sF107xcyKqM6i5mUwBf1Auuujy+zPzya64wRZ1c+PrSKTBh10gBNA0eq24DbjiSisfZKen42kqK6KRzXCK5jh+UR5IczTnVaXN4lo5UJsohffXlVTWbAD69VSe6We1pDvRYo6P3funb2t3AUyjxNH6VB+88WOIPuXms2ZJ8x/GB/ujvP6UHDx+MD7Fnq2V8LyTCIZz9EZwpv+vs129r9RomG9VnYP+RRCedSVqOdxt9NaGpbC1z3zgHHSwgiZCs5YQgpHV0CAxOXVmf/tE5yigVCqqisl328tKiaivLajXqqkCz5191hf7F296qa684W5vQZiOgn5JcX6SkU/4fckbhAcmosaekmmQu9z3BBInNXbPnT0ou3NWe2vrJZN85AdlgG2i/T+xPYww9310BxamN2FbuK29QZ/Y0HSpUdNfcvP7ow5/T63753fr9P/tAfIHQ7023wc9q/ev7a3rf7bdrB9phtZBD6jvJ6zTs5zbMKu0X3wDavxLrty1yrgvALdEBrl/cD5BHOVqcMHVM7cAUzmtfPIjMfSOAx4Ixpk1IddCGFLTmj6U6DuLEP5nGd1TKxO0w5MLcceWJIKYmqjijOc1OTer5z7tKb3vrW3T+GZMqcbM18JrqTv6OcnJiLUXVa+fcyaSxp1TUqRywmRHW9jkd156S1jTIqOkjbj7lyHibkl9ka/Q7apswOEzhiWZxtvITAFAE0JxWpma0B/W7iKf9rcd36I//rw/HLJIl+fbt8/rC/Q/qIVR0C8erU60irQAR4+rY/Pg8MpGFgQWUWqMW2/gCxFo2wKN99yW2CQ0Shk7WqZ1i8FMAj2kVecT4psuYXpHWSDGiwZPy+pQ86TTAlPmlvFKxgKpOaxpV/abX3aCfe/tb9dofeYUuO3c6vgEOxeIdMn9DTh1PIhBC0G0O6pQ3IoTjTMKIGCAgMG/DOV6S2/U3STzm7Jmi0cC5ba551nGlf1LIcbU/JRE2Ltxf34ctXJ/Hn0tyjnvIbsP68Wvw9nhYYv+41qd9Q3uWbL1MqQdBsxWcsVnpnOfp4PTZ+siek3r/w6v6yMM1ffHRg3rkSA3NUEZi/Wq7Q0MPYNARwEg+rIMKpz09shcmdWlP8qkPKneI5rcATCivcAmwkjF3D8nGb3rR32T1SnJLfEECDRBfSYJJTn2NOLk+vifRDpb+cZ+9jyaLjwa4jTYpbA04tztW93tvHg4x02Txrieh4QWzRb3uBZfo7a98od76sov1w5du0GaewoLFciov3E39Tbxkt1/7Dh6Kxq4Qm5amptUFuJ6HAl1JjtvdP+/zP0k+4YY6j/edfIMl0ml889pD/+301FtHUhAXQtK9O75pVDcS6qE+L6d1SOYcLQpmMwCOd/2sn3tqdmLrB9bSqM61yz4eHYydyDVnctz/tZtH2x+U1lcyum+tL6RY9+WpOQD2aX8RwQzexQGBGWbyQ503W9W1527TNz7195rf/qDOnK7gVV+rt7z+Bp21bSJU9bhFlBJgW6pTfzlvoPfp4JGjmKmc6v5Ni1IlBvA9huDRHX+WYX0Tk2JcnFVSoqqTcxzRcEv2c+mfkTxA5FUwXoxm82JRNNDWdIRwM2zPmCjohQD95Q+9D6lt63U/fK3e8NIX6YrzNqjgx4AhvgHOs/5pBrOKAU+9b2U4/KvbTmj/gYMUjHpGFfqzSl5QYCuTTD4AntX4WhoDyzmrv7VjagqpcwOfS/+c5FjYdLWfEKrdjh4a2295TAP2OVNlvfzyi/TwrV/S5Zun9LofeqGuPntSk77HzwOD55ziG2aeHOKc0Uj9XR2gv76snbv3cgPq2riNJiZi/JZbvaQn1DeAJxAmUpw4Gae2iZuR+JfPpaefUkhsH98jY58FifRiZH8FyVPy/pD8Bmz+RZtn9Ybrrtbw+FFdsmFCV55R1Wabc9yWfIguOeQOIL1gIlDm/wdR3R/89l7t3rsfkCl4FNbYCUghzQa/hWea9YJ3zj/Jo3YeSfQa0Nzj7XPp6SeHZgOcQ0/HZ0DNryq3PZkD6I7XZwD8oi0b9MYfvk7nTaV0dkXaCFT+2aQUfmlM9o2TcYkRPvZT0v8NuuM0prfcjgAAAAAASUVORK5CYII=;" vertex="1" parent="D9mL_kNJqEYYvsfLAUP1-133">
          <mxGeometry x="414.11999999999995" y="226" width="49.59" height="50" as="geometry" />
        </mxCell>
        <mxCell id="D9mL_kNJqEYYvsfLAUP1-36" value="" style="sketch=0;shadow=0;dashed=0;html=1;strokeColor=none;fillColor=#505050;labelPosition=center;verticalLabelPosition=bottom;verticalAlign=top;outlineConnect=0;align=center;shape=mxgraph.office.databases.database_server_green;" vertex="1" parent="D9mL_kNJqEYYvsfLAUP1-133">
          <mxGeometry x="472.21000000000004" y="379" width="43" height="57" as="geometry" />
        </mxCell>
        <mxCell id="D9mL_kNJqEYYvsfLAUP1-37" value="Database" style="text;strokeColor=none;align=center;fillColor=none;html=1;verticalAlign=middle;whiteSpace=wrap;rounded=0;" vertex="1" parent="D9mL_kNJqEYYvsfLAUP1-133">
          <mxGeometry x="463.71000000000004" y="435.75" width="60" height="16.5" as="geometry" />
        </mxCell>
        <mxCell id="D9mL_kNJqEYYvsfLAUP1-39" value="" style="sketch=0;shadow=0;dashed=0;html=1;strokeColor=none;fillColor=#505050;labelPosition=center;verticalLabelPosition=bottom;verticalAlign=top;outlineConnect=0;align=center;shape=mxgraph.office.databases.database_server_blue;" vertex="1" parent="D9mL_kNJqEYYvsfLAUP1-133">
          <mxGeometry x="401.71" y="379" width="43" height="57" as="geometry" />
        </mxCell>
        <mxCell id="D9mL_kNJqEYYvsfLAUP1-40" value="DBMS" style="text;strokeColor=none;align=center;fillColor=none;html=1;verticalAlign=middle;whiteSpace=wrap;rounded=0;" vertex="1" parent="D9mL_kNJqEYYvsfLAUP1-133">
          <mxGeometry x="392.71" y="429" width="60" height="30" as="geometry" />
        </mxCell>
        <mxCell id="D9mL_kNJqEYYvsfLAUP1-35" value="Employee Server" style="text;strokeColor=none;align=center;fillColor=none;html=1;verticalAlign=middle;whiteSpace=wrap;rounded=0;" vertex="1" parent="D9mL_kNJqEYYvsfLAUP1-133">
          <mxGeometry x="602.21" y="429" width="60" height="30" as="geometry" />
        </mxCell>
        <mxCell id="D9mL_kNJqEYYvsfLAUP1-32" value="Email Server" style="text;strokeColor=none;align=center;fillColor=none;html=1;verticalAlign=middle;whiteSpace=wrap;rounded=0;" vertex="1" parent="D9mL_kNJqEYYvsfLAUP1-133">
          <mxGeometry x="535.21" y="429" width="60" height="30" as="geometry" />
        </mxCell>
        <mxCell id="D9mL_kNJqEYYvsfLAUP1-34" value="" style="sketch=0;aspect=fixed;pointerEvents=1;shadow=0;dashed=0;html=1;strokeColor=none;labelPosition=center;verticalLabelPosition=bottom;verticalAlign=top;align=center;fillColor=#00188D;shape=mxgraph.mscae.enterprise.application_server" vertex="1" parent="D9mL_kNJqEYYvsfLAUP1-133">
          <mxGeometry x="610.71" y="379" width="43" height="50" as="geometry" />
        </mxCell>
        <mxCell id="D9mL_kNJqEYYvsfLAUP1-31" value="" style="sketch=0;aspect=fixed;pointerEvents=1;shadow=0;dashed=0;html=1;strokeColor=none;labelPosition=center;verticalLabelPosition=bottom;verticalAlign=top;align=center;fillColor=#00188D;shape=mxgraph.mscae.enterprise.application_server" vertex="1" parent="D9mL_kNJqEYYvsfLAUP1-133">
          <mxGeometry x="543.71" y="379" width="43" height="50" as="geometry" />
        </mxCell>
        <mxCell id="D9mL_kNJqEYYvsfLAUP1-22" value="" style="sketch=0;aspect=fixed;pointerEvents=1;shadow=0;dashed=0;html=1;strokeColor=none;labelPosition=center;verticalLabelPosition=bottom;verticalAlign=top;align=center;fillColor=#00188D;shape=mxgraph.mscae.enterprise.application_server" vertex="1" parent="D9mL_kNJqEYYvsfLAUP1-133">
          <mxGeometry x="336.71" y="379" width="43" height="50" as="geometry" />
        </mxCell>
        <mxCell id="D9mL_kNJqEYYvsfLAUP1-27" value="Application Server" style="text;strokeColor=none;align=center;fillColor=none;html=1;verticalAlign=middle;whiteSpace=wrap;rounded=0;" vertex="1" parent="D9mL_kNJqEYYvsfLAUP1-133">
          <mxGeometry x="328.21" y="429" width="60" height="30" as="geometry" />
        </mxCell>
        <mxCell id="D9mL_kNJqEYYvsfLAUP1-16" value="" style="image;aspect=fixed;perimeter=ellipsePerimeter;html=1;align=center;shadow=0;dashed=0;spacingTop=3;image=img/lib/active_directory/web_server.svg;" vertex="1" parent="D9mL_kNJqEYYvsfLAUP1-133">
          <mxGeometry x="272.21" y="379" width="40" height="50" as="geometry" />
        </mxCell>
        <mxCell id="D9mL_kNJqEYYvsfLAUP1-17" value="Web Server" style="text;strokeColor=none;align=center;fillColor=none;html=1;verticalAlign=middle;whiteSpace=wrap;rounded=0;" vertex="1" parent="D9mL_kNJqEYYvsfLAUP1-133">
          <mxGeometry x="258.71" y="431" width="58.5" height="20" as="geometry" />
        </mxCell>
        <mxCell id="D9mL_kNJqEYYvsfLAUP1-64" value="" style="endArrow=oval;html=1;rounded=0;exitX=0.345;exitY=-0.001;exitDx=0;exitDy=0;exitPerimeter=0;entryX=0.425;entryY=0.99;entryDx=0;entryDy=0;entryPerimeter=0;startArrow=oval;startFill=1;endFill=1;strokeColor=#007FFF;" edge="1" parent="D9mL_kNJqEYYvsfLAUP1-133" source="D9mL_kNJqEYYvsfLAUP1-16" target="D9mL_kNJqEYYvsfLAUP1-63">
          <mxGeometry width="50" height="50" relative="1" as="geometry">
            <mxPoint x="295.71" y="366" as="sourcePoint" />
            <mxPoint x="425.71000000000004" y="276" as="targetPoint" />
            <Array as="points">
              <mxPoint x="285.71" y="336" />
              <mxPoint x="625.71" y="336" />
              <mxPoint x="435.71000000000004" y="336" />
            </Array>
          </mxGeometry>
        </mxCell>
        <mxCell id="D9mL_kNJqEYYvsfLAUP1-65" value="" style="endArrow=oval;html=1;rounded=0;exitX=0.285;exitY=-0.016;exitDx=0;exitDy=0;exitPerimeter=0;startArrow=oval;startFill=1;endFill=1;strokeColor=#007FFF;" edge="1" parent="D9mL_kNJqEYYvsfLAUP1-133" source="D9mL_kNJqEYYvsfLAUP1-22">
          <mxGeometry width="50" height="50" relative="1" as="geometry">
            <mxPoint x="275.71" y="416" as="sourcePoint" />
            <mxPoint x="348.71" y="336" as="targetPoint" />
          </mxGeometry>
        </mxCell>
        <mxCell id="D9mL_kNJqEYYvsfLAUP1-66" value="" style="endArrow=oval;html=1;rounded=0;exitX=0.285;exitY=-0.016;exitDx=0;exitDy=0;exitPerimeter=0;startArrow=oval;startFill=1;endFill=1;strokeColor=#007FFF;" edge="1" parent="D9mL_kNJqEYYvsfLAUP1-133">
          <mxGeometry width="50" height="50" relative="1" as="geometry">
            <mxPoint x="415.71" y="378" as="sourcePoint" />
            <mxPoint x="415.71" y="336" as="targetPoint" />
          </mxGeometry>
        </mxCell>
        <mxCell id="D9mL_kNJqEYYvsfLAUP1-67" value="" style="endArrow=oval;html=1;rounded=0;exitX=0.285;exitY=-0.016;exitDx=0;exitDy=0;exitPerimeter=0;startArrow=oval;startFill=1;endFill=1;strokeColor=#007FFF;" edge="1" parent="D9mL_kNJqEYYvsfLAUP1-133">
          <mxGeometry width="50" height="50" relative="1" as="geometry">
            <mxPoint x="485.71000000000004" y="378" as="sourcePoint" />
            <mxPoint x="485.71000000000004" y="336" as="targetPoint" />
          </mxGeometry>
        </mxCell>
        <mxCell id="D9mL_kNJqEYYvsfLAUP1-68" value="" style="endArrow=oval;html=1;rounded=0;exitX=0.285;exitY=-0.016;exitDx=0;exitDy=0;exitPerimeter=0;startArrow=oval;startFill=1;endFill=1;strokeColor=#007FFF;" edge="1" parent="D9mL_kNJqEYYvsfLAUP1-133">
          <mxGeometry width="50" height="50" relative="1" as="geometry">
            <mxPoint x="555.71" y="378" as="sourcePoint" />
            <mxPoint x="555.71" y="336" as="targetPoint" />
          </mxGeometry>
        </mxCell>
        <mxCell id="D9mL_kNJqEYYvsfLAUP1-69" value="" style="endArrow=oval;html=1;rounded=0;exitX=0.285;exitY=-0.016;exitDx=0;exitDy=0;exitPerimeter=0;startArrow=oval;startFill=1;endFill=1;strokeColor=#007FFF;" edge="1" parent="D9mL_kNJqEYYvsfLAUP1-133">
          <mxGeometry width="50" height="50" relative="1" as="geometry">
            <mxPoint x="625.71" y="378" as="sourcePoint" />
            <mxPoint x="625.71" y="336" as="targetPoint" />
          </mxGeometry>
        </mxCell>
        <mxCell id="D9mL_kNJqEYYvsfLAUP1-70" value="" style="endArrow=oval;html=1;rounded=0;exitX=0.12;exitY=0.6;exitDx=0;exitDy=0;startArrow=oval;startFill=1;endFill=1;strokeColor=#007FFF;exitPerimeter=0;" edge="1" parent="D9mL_kNJqEYYvsfLAUP1-133" source="D9mL_kNJqEYYvsfLAUP1-59">
          <mxGeometry width="50" height="50" relative="1" as="geometry">
            <mxPoint x="493.43000000000006" y="296" as="sourcePoint" />
            <mxPoint x="465.71000000000004" y="256" as="targetPoint" />
          </mxGeometry>
        </mxCell>
        <mxCell id="D9mL_kNJqEYYvsfLAUP1-71" value="L3 Switch" style="text;strokeColor=none;align=center;fillColor=none;html=1;verticalAlign=middle;whiteSpace=wrap;rounded=0;" vertex="1" parent="D9mL_kNJqEYYvsfLAUP1-133">
          <mxGeometry x="371.71" y="276" width="64" height="20" as="geometry" />
        </mxCell>
        <mxCell id="D9mL_kNJqEYYvsfLAUP1-74" value="" style="endArrow=classic;startArrow=classic;html=1;rounded=0;entryX=0.003;entryY=0.549;entryDx=0;entryDy=0;strokeColor=#1120e8;entryPerimeter=0;" edge="1" parent="D9mL_kNJqEYYvsfLAUP1-133" target="D9mL_kNJqEYYvsfLAUP1-63">
          <mxGeometry width="50" height="50" relative="1" as="geometry">
            <mxPoint x="185.70999999999998" y="256" as="sourcePoint" />
            <mxPoint x="325.71" y="276" as="targetPoint" />
          </mxGeometry>
        </mxCell>
        <mxCell id="D9mL_kNJqEYYvsfLAUP1-123" value="Company Servers" style="text;strokeColor=none;align=center;fillColor=none;html=1;verticalAlign=middle;whiteSpace=wrap;rounded=0;" vertex="1" parent="D9mL_kNJqEYYvsfLAUP1-133">
          <mxGeometry x="258.71000000000015" y="200" width="105.79" height="30" as="geometry" />
        </mxCell>
        <mxCell id="D9mL_kNJqEYYvsfLAUP1-124" value="" style="image;html=1;image=img/lib/clip_art/networking/Firewall_02_128x128.png" vertex="1" parent="D9mL_kNJqEYYvsfLAUP1-133">
          <mxGeometry x="418.90999999999997" y="109" width="40" height="40" as="geometry" />
        </mxCell>
        <mxCell id="D9mL_kNJqEYYvsfLAUP1-125" value="Secondary Firewall" style="text;strokeColor=none;align=center;fillColor=none;html=1;verticalAlign=middle;whiteSpace=wrap;rounded=0;" vertex="1" parent="D9mL_kNJqEYYvsfLAUP1-133">
          <mxGeometry x="458.90999999999997" y="116" width="60" height="30" as="geometry" />
        </mxCell>
        <mxCell id="D9mL_kNJqEYYvsfLAUP1-128" value="" style="endArrow=none;startArrow=async;html=1;rounded=0;entryX=1;entryY=0.5;entryDx=0;entryDy=0;exitX=0;exitY=0.5;exitDx=0;exitDy=0;startFill=1;endFill=0;strokeColor=#33FF33;" edge="1" parent="D9mL_kNJqEYYvsfLAUP1-133" source="D9mL_kNJqEYYvsfLAUP1-124" target="D9mL_kNJqEYYvsfLAUP1-9">
          <mxGeometry width="50" height="50" relative="1" as="geometry">
            <mxPoint x="280" y="230" as="sourcePoint" />
            <mxPoint x="330" y="180" as="targetPoint" />
          </mxGeometry>
        </mxCell>
        <mxCell id="D9mL_kNJqEYYvsfLAUP1-129" value="" style="endArrow=async;startArrow=none;html=1;rounded=0;entryX=1;entryY=0.5;entryDx=0;entryDy=0;exitX=0;exitY=0.5;exitDx=0;exitDy=0;startFill=0;endFill=1;strokeColor=#FF8000;" edge="1" parent="D9mL_kNJqEYYvsfLAUP1-133">
          <mxGeometry width="50" height="50" relative="1" as="geometry">
            <mxPoint x="419" y="134" as="sourcePoint" />
            <mxPoint x="181" y="134" as="targetPoint" />
          </mxGeometry>
        </mxCell>
        <mxCell id="D9mL_kNJqEYYvsfLAUP1-130" value="" style="endArrow=async;html=1;rounded=0;endFill=1;strokeColor=#FF8000;" edge="1" parent="D9mL_kNJqEYYvsfLAUP1-133">
          <mxGeometry width="50" height="50" relative="1" as="geometry">
            <mxPoint x="435.75" y="218" as="sourcePoint" />
            <mxPoint x="435.75" y="153" as="targetPoint" />
          </mxGeometry>
        </mxCell>
        <mxCell id="D9mL_kNJqEYYvsfLAUP1-131" value="" style="endArrow=async;html=1;rounded=0;endFill=1;strokeColor=#00FF00;" edge="1" parent="D9mL_kNJqEYYvsfLAUP1-133">
          <mxGeometry width="50" height="50" relative="1" as="geometry">
            <mxPoint x="443.8299999999999" y="153" as="sourcePoint" />
            <mxPoint x="443.8299999999999" y="223" as="targetPoint" />
          </mxGeometry>
        </mxCell>
        <mxCell id="D9mL_kNJqEYYvsfLAUP1-132" value="Load Balance/Backup link" style="text;strokeColor=none;align=center;fillColor=none;html=1;verticalAlign=middle;whiteSpace=wrap;rounded=0;" vertex="1" parent="D9mL_kNJqEYYvsfLAUP1-133">
          <mxGeometry x="235.70999999999998" y="134" width="114.29" height="30" as="geometry" />
        </mxCell>
      </root>
    </mxGraphModel>
  </diagram>
</mxfile>
